<svg width="21" height="21" viewBox="0 0 21 21" fill="none" xmlns="http://www.w3.org/2000/svg">
<path d="M16.4624 13.6813C15.4277 13.6813 14.9659 13.2195 14.9659 12.1848V11.5435H13.6832V12.1848C13.6832 13.2195 13.2215 13.6813 12.1868 13.6813H11.5455V14.964H12.1868C13.2215 14.964 13.6832 15.4257 13.6832 16.4604V17.1017H14.9659V16.4604C14.9659 15.4257 15.4277 14.964 16.4624 14.964H17.1037V13.6813H16.4624ZM14.1108 8.12305C10.9469 8.12305 9.40767 6.58384 9.40767 3.41992H8.125C8.125 6.58384 6.5858 8.12305 3.42188 8.12305V9.40572C6.5858 9.40572 8.125 10.9449 8.125 14.1088H9.40767C9.40767 10.9449 10.9469 9.40572 14.1108 9.40572V8.12305ZM8.76634 10.9449C8.30963 9.99053 7.54019 9.22108 6.5858 8.76438C7.54015 8.30762 8.30958 7.5382 8.76634 6.58384C9.22304 7.53824 9.99248 8.30768 10.9469 8.76438C9.99248 9.22108 9.22304 9.99053 8.76634 10.9449Z" fill="#F7F5F2"/>
</svg>
