<svg width="50" height="49" viewBox="0 0 50 49" fill="none" xmlns="http://www.w3.org/2000/svg">
<circle cx="24.0777" cy="24.0777" r="24.0777" fill="white"/>
<path fill-rule="evenodd" clip-rule="evenodd" d="M31.009 35.4685C29.776 35.4687 28.7748 36.4698 28.7747 37.7029C28.7747 38.9362 29.7761 39.9361 31.009 39.9363C32.2423 39.9363 33.2424 38.9362 33.2424 37.7029C33.2423 36.4699 32.2424 35.4685 31.009 35.4685ZM14.4143 35.4685C13.1811 35.4685 12.18 36.4697 12.1799 37.7029C12.1799 38.9363 13.1812 39.9363 14.4143 39.9363C15.6473 39.9362 16.6487 38.9363 16.6487 37.7029C16.6486 36.4698 15.6474 35.4686 14.4143 35.4685ZM37.7131 11.0398L34.6458 11.5701C34.205 11.6464 33.8591 11.979 33.7581 12.4041L33.7317 12.5681L33.386 16.7H12.595C10.7913 16.7001 9.39097 18.2353 9.51977 20.0037L9.54321 20.2253L10.9436 29.8982C11.2012 31.6705 12.6637 33.0043 14.428 33.1169L14.6702 33.1248H30.7639C32.6409 33.1246 34.2172 31.7471 34.4885 29.9148L34.5159 29.6736L35.8645 13.6043L38.0901 13.2195C38.6418 13.124 39.0269 12.635 39.0071 12.0906L38.9915 11.9412C38.896 11.3894 38.407 11.0043 37.8625 11.0242L37.7131 11.0398ZM32.3147 29.4832C32.2522 30.2309 31.6681 30.8173 30.9377 30.8972L30.7668 30.907H14.6741C13.9615 30.907 13.3486 30.4231 13.1711 29.7468L13.136 29.574L11.7366 19.9021C11.667 19.42 12.0034 18.985 12.469 18.9158L12.5989 18.906H33.2034L32.3147 29.4832Z" fill="#5801B7"/>
</svg>
