<svg width="30" height="44" viewBox="0 0 30 44" fill="none" xmlns="http://www.w3.org/2000/svg">
<path d="M14.891 19.6745C18.0353 19.6778 20.5885 17.1208 20.5885 13.9771C20.5885 10.8329 18.03 8.27969 14.8911 8.27969C11.7522 8.27969 9.19375 10.8331 9.19375 13.9771C9.19375 17.121 11.7522 19.6744 14.891 19.6745ZM14.891 19.6745L14.8911 19.5245V19.6745C14.8911 19.6745 14.891 19.6745 14.891 19.6745ZM10.8431 13.9771C10.8431 11.7455 12.6579 9.92901 14.8911 9.92901C17.1227 9.92901 18.9392 11.7439 18.9392 13.9771C18.9392 16.2087 17.1226 18.0285 14.8911 18.0285C12.6596 18.0285 10.8431 16.2121 10.8431 13.9771Z" fill="#5801B7" stroke="#5801B7" stroke-width="0.3"/>
<path d="M19.825 32.3912C21.7884 32.8332 23.4085 33.5166 24.5537 34.3716C25.7456 35.2615 26.4373 36.3495 26.4373 37.5512C26.4373 39.1931 25.1177 40.6174 23.0502 41.6227C20.9741 42.6322 18.1002 43.244 14.8861 43.244C11.6744 43.244 8.80053 42.6323 6.7238 41.6222C4.65567 40.6164 3.33477 39.1908 3.33477 37.5466C3.33477 36.3466 4.02615 35.2586 5.21769 34.369C6.3627 33.5141 7.98262 32.831 9.94634 32.3913C7.97692 29.9937 5.68817 26.9853 3.87401 23.9688C2.01578 20.879 0.639062 17.7546 0.639062 15.2615C0.639062 7.40347 7.03017 1.01406 14.8865 1.01406C22.7428 1.01406 29.1338 7.40346 29.1322 15.2615L19.825 32.3912ZM19.825 32.3912C21.7951 29.9929 24.0839 26.9845 25.8979 23.9682C27.7559 20.8786 29.1322 17.7546 29.1322 15.2615L19.825 32.3912ZM15.4883 37.3484L15.4866 37.3501C15.3281 37.5126 15.1145 37.605 14.8879 37.605C14.663 37.605 14.4429 37.5138 14.2874 37.3484C14.2873 37.3483 14.2872 37.3482 14.2871 37.348L14.2865 37.3474C14.1165 37.1675 12.8466 35.8232 11.1473 33.8308C9.34314 34.1518 7.80085 34.701 6.70897 35.3641C5.59035 36.0434 4.98618 36.8147 4.98618 37.5517C4.98618 37.9939 5.21681 38.4682 5.68067 38.9383C6.14355 39.4074 6.82751 39.8601 7.70269 40.2553C9.4522 41.0453 11.9428 41.5946 14.8859 41.5947L15.4883 37.3484ZM15.4883 37.3484L15.4904 37.3461M15.4883 37.3484L15.4904 37.3461M15.4904 37.3461C15.6652 37.1611 16.9332 35.8185 18.6284 33.8308M15.4904 37.3461L18.6284 33.8308M18.6284 33.8308C20.4327 34.1518 21.975 34.6998 23.0669 35.3623C24.1852 36.0408 24.7894 36.812 24.7895 37.5514C24.7888 37.9937 24.5576 38.4681 24.0932 38.9382C23.6299 39.4073 22.9456 39.8601 22.0702 40.2553C20.3203 41.0452 17.8296 41.5946 14.8865 41.5947L18.6284 33.8308ZM14.8865 2.6638C21.8354 2.6638 27.4875 8.3164 27.4875 15.2598C27.4875 16.7925 26.8531 18.671 25.8478 20.6794C24.8443 22.6841 23.4799 24.802 22.0382 26.8091C19.2396 30.7051 16.1585 34.1713 14.8865 35.5623C13.6146 34.1714 10.5347 30.706 7.73734 26.8104C6.29622 24.8036 4.9324 22.6857 3.92945 20.6809C2.92464 18.6723 2.29048 16.7934 2.29048 15.2598C2.29048 8.31591 7.93805 2.6638 14.8865 2.6638Z" fill="#5801B7" stroke="#5801B7" stroke-width="0.3"/>
</svg>
