<svg width="17" height="17" viewBox="0 0 17 17" fill="none" xmlns="http://www.w3.org/2000/svg">
<path fill-rule="evenodd" clip-rule="evenodd" d="M1.57718 0.550781C0.978805 0.550781 0.488281 1.04133 0.488281 1.63968V13.0916C0.488281 13.69 0.978805 14.1784 1.57718 14.1784H9.50691L12.2718 16.3953C12.3121 16.4276 12.3608 16.4478 12.4122 16.4536C12.4636 16.4595 12.5156 16.4506 12.5622 16.4282C12.6088 16.4057 12.6481 16.3706 12.6755 16.3267C12.703 16.2829 12.7175 16.2322 12.7174 16.1805V13.0916V11.4982V9.58549L13.938 8.36483L15.6525 6.6498C16.1171 6.1852 16.1171 5.42614 15.6525 4.96155C15.4202 4.72925 15.1124 4.6134 14.8063 4.6134C14.5001 4.6134 14.1944 4.72925 13.9621 4.96155L12.7174 6.20685V1.63968C12.7174 1.04134 12.2263 0.550781 11.6279 0.550781H1.57718ZM1.57718 1.09925H11.6279C11.9319 1.09925 12.1689 1.33589 12.1689 1.63968V6.75531L9.22947 9.69475C9.18981 9.73369 9.16292 9.78374 9.15236 9.8383L8.84652 11.4457C8.83796 11.4896 8.84029 11.5351 8.85333 11.5779C8.86636 11.6208 8.8897 11.6598 8.9213 11.6916C8.95291 11.7233 8.99181 11.7469 9.0346 11.7601C9.0774 11.7734 9.1228 11.7759 9.16682 11.7676L10.7758 11.4596C10.8295 11.4495 10.8789 11.4235 10.9177 11.3851L12.1689 10.134V11.4982V13.0916V15.6117L9.77367 13.691C9.725 13.6516 9.66433 13.63 9.60174 13.6299H1.57719C1.27324 13.6299 1.03675 13.3954 1.03675 13.0916V1.63968C1.03675 1.33589 1.27323 1.09925 1.57718 1.09925ZM3.72927 3.42541C3.69325 3.42527 3.65757 3.43223 3.62424 3.44588C3.59092 3.45953 3.56061 3.47961 3.53504 3.50498C3.50948 3.53034 3.48916 3.56049 3.47525 3.59371C3.46134 3.62693 3.45411 3.66256 3.45396 3.69857C3.4541 3.73459 3.46134 3.77022 3.47525 3.80344C3.48916 3.83666 3.50948 3.86681 3.53504 3.89217C3.56061 3.91754 3.59092 3.93762 3.62424 3.95127C3.65757 3.96492 3.69325 3.97188 3.72927 3.97174H9.47853C9.55089 3.97146 9.62021 3.94259 9.67137 3.89142C9.72254 3.84025 9.75141 3.77094 9.75169 3.69857C9.75141 3.62621 9.72254 3.5569 9.67137 3.50573C9.6202 3.45456 9.55089 3.42569 9.47853 3.42541H3.72927ZM14.8073 5.15598C14.9715 5.15597 15.1355 5.22003 15.2637 5.34826C15.5201 5.6047 15.5201 6.00664 15.2637 6.26309L14.945 6.58231L14.0312 5.66802L14.351 5.34826C14.4792 5.22004 14.6432 5.15598 14.8073 5.15598ZM13.6435 6.05581L14.5572 6.96956L13.5513 7.97597L12.253 9.2743C12.2502 9.27693 12.2474 9.27963 12.2447 9.28238L11.0562 10.4709L10.1419 9.55715L12.6362 7.0628C12.6362 7.06262 12.6362 7.06299 12.6362 7.0628L13.6435 6.05581ZM3.72927 6.27541C3.69307 6.27526 3.65721 6.28229 3.62375 6.29607C3.59028 6.30986 3.55988 6.33013 3.53428 6.35573C3.50869 6.38132 3.48842 6.41172 3.47463 6.44519C3.46085 6.47865 3.45382 6.51452 3.45396 6.55071C3.4541 6.58672 3.46134 6.62235 3.47525 6.65557C3.48916 6.68879 3.50948 6.71894 3.53504 6.74431C3.56061 6.76967 3.59092 6.78976 3.62424 6.80341C3.65757 6.81706 3.69325 6.82401 3.72927 6.82387H9.47853C9.55089 6.82359 9.62021 6.79472 9.67137 6.74356C9.72254 6.69239 9.75141 6.62307 9.75169 6.55071C9.75183 6.5147 9.74488 6.47901 9.73123 6.44568C9.71758 6.41236 9.69749 6.38205 9.67213 6.35648C9.64676 6.33092 9.61661 6.3106 9.58339 6.29669C9.55017 6.28278 9.51454 6.27555 9.47853 6.27541H3.72927ZM3.72927 9.5346C3.69325 9.53446 3.65757 9.54142 3.62424 9.55507C3.59092 9.56872 3.56061 9.5888 3.53504 9.61417C3.50948 9.63953 3.48916 9.66969 3.47525 9.70291C3.46134 9.73612 3.4541 9.77176 3.45396 9.80777C3.45382 9.84396 3.46085 9.87982 3.47463 9.91329C3.48842 9.94676 3.50869 9.97716 3.53428 10.0028C3.55988 10.0283 3.59028 10.0486 3.62375 10.0624C3.65721 10.0762 3.69307 10.0832 3.72927 10.0831H7.73511C7.77117 10.083 7.80686 10.0758 7.84014 10.0619C7.87342 10.0481 7.90364 10.0278 7.92906 10.0022C7.95448 9.97661 7.97461 9.94628 7.9883 9.91292C8.00198 9.87956 8.00895 9.84383 8.00881 9.80777C8.00853 9.73532 7.97959 9.66592 7.9283 9.61474C7.87702 9.56355 7.80757 9.53475 7.73511 9.5346H3.72927ZM9.7533 9.94542L10.6676 10.8597L10.59 10.9374L9.46036 11.1543L9.67675 10.0226L9.7533 9.94542Z" fill="#5F5F5F"/>
<path d="M12.6362 7.0628L10.1419 9.55715L11.0562 10.4709L12.2447 9.28238C12.2474 9.27963 12.2502 9.27693 12.253 9.2743L13.5513 7.97597L14.5572 6.96956L13.6435 6.05581L12.6362 7.0628ZM12.6362 7.0628C12.6362 7.06262 12.6362 7.06299 12.6362 7.0628ZM1.57718 0.550781C0.978805 0.550781 0.488281 1.04133 0.488281 1.63968V13.0916C0.488281 13.69 0.978805 14.1784 1.57718 14.1784H9.50691L12.2718 16.3953C12.3121 16.4276 12.3608 16.4478 12.4122 16.4536C12.4636 16.4595 12.5156 16.4506 12.5622 16.4282C12.6088 16.4057 12.6481 16.3706 12.6755 16.3267C12.703 16.2829 12.7175 16.2322 12.7174 16.1805V13.0916V11.4982V9.58549L13.938 8.36483L15.6525 6.6498C16.1171 6.1852 16.1171 5.42614 15.6525 4.96155C15.4202 4.72925 15.1124 4.6134 14.8063 4.6134C14.5001 4.6134 14.1944 4.72925 13.9621 4.96155L12.7174 6.20685V1.63968C12.7174 1.04134 12.2263 0.550781 11.6279 0.550781H1.57718ZM1.57718 1.09925H11.6279C11.9319 1.09925 12.1689 1.33589 12.1689 1.63968V6.75531L9.22947 9.69475C9.18982 9.73369 9.16292 9.78374 9.15236 9.8383L8.84652 11.4457C8.83796 11.4896 8.84029 11.5351 8.85333 11.5779C8.86636 11.6208 8.8897 11.6598 8.9213 11.6916C8.95291 11.7233 8.99181 11.7469 9.0346 11.7601C9.0774 11.7734 9.1228 11.7759 9.16682 11.7676L10.7758 11.4596C10.8295 11.4495 10.8789 11.4235 10.9177 11.3851L12.1689 10.134V11.4982V13.0916V15.6117L9.77367 13.691C9.725 13.6516 9.66433 13.63 9.60174 13.6299H1.57719C1.27324 13.6299 1.03675 13.3954 1.03675 13.0916V1.63968C1.03675 1.33589 1.27323 1.09925 1.57718 1.09925ZM3.72927 3.42541C3.69325 3.42527 3.65757 3.43223 3.62424 3.44588C3.59092 3.45953 3.56061 3.47961 3.53504 3.50498C3.50948 3.53034 3.48916 3.56049 3.47525 3.59371C3.46134 3.62693 3.45411 3.66256 3.45396 3.69857C3.4541 3.73459 3.46134 3.77022 3.47525 3.80344C3.48916 3.83666 3.50948 3.86681 3.53504 3.89217C3.56061 3.91754 3.59092 3.93762 3.62424 3.95127C3.65757 3.96492 3.69325 3.97188 3.72927 3.97174H9.47853C9.55089 3.97146 9.62021 3.94259 9.67137 3.89142C9.72254 3.84025 9.75141 3.77094 9.75169 3.69857C9.75141 3.62621 9.72254 3.5569 9.67137 3.50573C9.6202 3.45456 9.55089 3.42569 9.47853 3.42541H3.72927ZM14.8073 5.15598C14.9715 5.15597 15.1355 5.22003 15.2637 5.34826C15.5201 5.6047 15.5201 6.00664 15.2637 6.26309L14.945 6.58231L14.0312 5.66802L14.351 5.34826C14.4792 5.22004 14.6432 5.15598 14.8073 5.15598ZM3.72927 6.27541C3.69307 6.27526 3.65721 6.28229 3.62375 6.29607C3.59028 6.30986 3.55988 6.33013 3.53428 6.35573C3.50869 6.38132 3.48842 6.41172 3.47463 6.44519C3.46085 6.47865 3.45382 6.51452 3.45396 6.55071C3.4541 6.58672 3.46134 6.62235 3.47525 6.65557C3.48916 6.68879 3.50948 6.71894 3.53504 6.74431C3.56061 6.76967 3.59092 6.78976 3.62424 6.80341C3.65757 6.81706 3.69325 6.82401 3.72927 6.82387H9.47853C9.55089 6.82359 9.62021 6.79472 9.67137 6.74356C9.72254 6.69239 9.75141 6.62307 9.75169 6.55071C9.75183 6.5147 9.74488 6.47901 9.73123 6.44568C9.71758 6.41236 9.69749 6.38205 9.67213 6.35648C9.64676 6.33092 9.61661 6.3106 9.58339 6.29669C9.55017 6.28278 9.51454 6.27555 9.47853 6.27541H3.72927ZM3.72927 9.5346C3.69325 9.53446 3.65757 9.54142 3.62424 9.55507C3.59092 9.56872 3.56061 9.5888 3.53504 9.61417C3.50948 9.63954 3.48916 9.66969 3.47525 9.70291C3.46134 9.73612 3.4541 9.77176 3.45396 9.80777C3.45382 9.84396 3.46085 9.87982 3.47463 9.91329C3.48842 9.94676 3.50869 9.97716 3.53428 10.0028C3.55988 10.0283 3.59028 10.0486 3.62375 10.0624C3.65721 10.0762 3.69307 10.0832 3.72927 10.0831H7.73511C7.77117 10.083 7.80686 10.0758 7.84014 10.0619C7.87342 10.0481 7.90364 10.0278 7.92906 10.0022C7.95448 9.97661 7.97461 9.94628 7.98829 9.91292C8.00198 9.87956 8.00895 9.84383 8.00881 9.80777C8.00853 9.73532 7.97958 9.66592 7.9283 9.61474C7.87702 9.56355 7.80757 9.53475 7.73511 9.5346H3.72927ZM9.7533 9.94542L10.6676 10.8597L10.59 10.9374L9.46036 11.1543L9.67675 10.0226L9.7533 9.94542Z" stroke="#5F5F5F" stroke-width="0.4"/>
</svg>
