<svg width="18" height="16" viewBox="0 0 18 16" fill="none" xmlns="http://www.w3.org/2000/svg">
<path d="M13.3426 6.70844H11.3321C10.4337 6.70844 9.56873 7.03693 8.86925 7.63359C8.78966 7.60901 8.70589 7.59336 8.61793 7.59336H7.44514V7.428C7.44514 6.90509 7.25456 6.41347 6.90691 6.04251C6.55926 5.67156 6.10062 5.46821 5.61056 5.46821H3.88488C3.39482 5.46821 2.93617 5.67156 2.58852 6.04251C2.24297 6.41347 2.05029 6.90509 2.05029 7.42577V7.59113H0.875406C0.391629 7.59113 0 8.01124 0 8.52521V14.1968C0 14.7107 0.393723 15.1309 0.875406 15.1309H16.1154C16.7647 15.1309 17.2924 14.5677 17.2924 13.8772V10.9208C17.2924 8.59896 15.5207 6.70844 13.3426 6.70844ZM5.73412 10.5856C5.71737 10.3621 5.54145 10.1878 5.32783 10.1878H4.16341C3.9498 10.1878 3.77597 10.3643 3.75713 10.5856H2.90685C2.39794 10.5856 1.96233 10.3152 1.70893 9.84366L0.887972 8.30175C0.885877 8.29505 0.881689 8.29058 0.8775 8.28611H8.61584L7.79698 9.83919C7.54567 10.3152 7.10796 10.5878 6.59696 10.5878H5.73412V10.5856ZM4.40426 10.8783H5.08908V10.9856H4.40426V10.8783ZM5.76763 7.5956H3.72571V7.43023C3.72571 7.37213 3.75503 7.33191 3.77388 7.3118C3.79482 7.28945 3.83043 7.26263 3.88278 7.26263H5.60846C5.66501 7.26263 5.70271 7.29392 5.71946 7.3118C5.73621 7.32967 5.76553 7.3699 5.76553 7.43023V7.5956H5.76763ZM2.69742 7.43023C2.69742 7.0928 2.82099 6.77548 3.04507 6.53414C3.26916 6.29503 3.56655 6.16318 3.88278 6.16318H5.60846C5.9247 6.16318 6.22209 6.29503 6.44617 6.53414C6.67235 6.77548 6.79592 7.0928 6.79592 7.43023V7.5956H6.41266V7.43023C6.41266 7.2023 6.32889 6.98554 6.17601 6.82241C6.02313 6.65928 5.82208 6.56989 5.60637 6.56989H3.88069C3.66707 6.56989 3.46602 6.65928 3.31314 6.82241C3.16235 6.98554 3.07858 7.2023 3.07858 7.43023V7.5956H2.69533V7.43023H2.69742ZM0.64713 14.2012V9.24478L1.14766 10.1833C1.51835 10.8783 2.1592 11.2761 2.90685 11.2761H3.75713C3.77388 11.4995 3.9498 11.6761 4.16341 11.6761H5.32783C5.54145 11.6761 5.71737 11.4995 5.73412 11.2761H6.59696C7.3488 11.2761 7.99175 10.8761 8.36034 10.1766L8.84411 9.25818V14.2012C8.84411 14.3331 8.7394 14.4448 8.61584 14.4448H0.875406C0.74975 14.4448 0.64713 14.3353 0.64713 14.2012ZM16.6453 13.8817C16.6453 14.1923 16.4086 14.4448 16.1154 14.4448H9.46402C9.48287 14.3666 9.49334 14.2862 9.49334 14.2012V8.52969C9.49334 8.36656 9.45355 8.2146 9.38653 8.08052C9.94989 7.63806 10.6305 7.39895 11.3321 7.39895H13.3426C15.1646 7.39895 16.6453 8.97885 16.6453 10.9208V13.8817ZM15.2358 3.09053C15.2358 1.38549 13.9353 0 12.3374 0C10.7394 0 9.44098 1.38772 9.44098 3.09053C9.44098 4.79557 10.7415 6.1833 12.3374 6.1833C13.9353 6.1833 15.2358 4.79781 15.2358 3.09053ZM10.086 3.09053C10.086 1.76761 11.0955 0.69051 12.3353 0.69051C13.5772 0.69051 14.5866 1.76761 14.5866 3.09053C14.5866 4.41568 13.5772 5.49279 12.3353 5.49279C11.0955 5.49279 10.086 4.41568 10.086 3.09053Z" fill="#5F5F5F"/>
</svg>
