<svg width="42" height="43" viewBox="0 0 42 43" fill="none" xmlns="http://www.w3.org/2000/svg">
<path d="M41.8408 16.2181C41.8428 16.1736 41.8469 16.1271 41.8428 16.0826C41.8145 15.8238 41.6651 15.5953 41.441 15.4659L32.1699 10.1604C32.1113 10.126 32.0487 10.1038 31.9861 10.0856C31.5863 4.5477 26.964 0.164062 21.3342 0.164062C15.6942 0.164062 11.0638 4.56172 10.6782 10.1141C10.5893 10.1302 10.5005 10.1586 10.4177 10.2051L1.22981 15.464C1.00364 15.5934 0.854213 15.8218 0.827962 16.0806C0.823924 16.1272 0.827962 16.1716 0.829982 16.2161C0.795653 16.3071 0.773438 16.4042 0.773438 16.5052V35.7013C0.773438 39.2275 3.63893 42.0948 7.16044 42.0948H35.5124C39.0322 42.0948 41.8979 39.2257 41.8979 35.7013L41.8958 16.5073C41.8958 16.4042 41.8756 16.3071 41.8413 16.2182L41.8408 16.2181ZM10.7024 11.9074C11.2275 17.3179 15.7973 21.5618 21.3709 21.5618H21.3729L24.7391 21.4061C25.1854 21.3859 25.5287 21.0078 25.5085 20.561C25.4883 20.1141 25.1168 19.7724 24.6644 19.7906L21.3365 19.9443C16.3366 19.9443 12.2676 15.8701 12.2676 10.8639C12.2676 5.85759 16.3366 1.78343 21.3365 1.78343C26.3365 1.78343 30.4055 5.85759 30.4055 10.8639C30.4055 11.891 30.1713 12.8878 29.9188 13.8118C29.0848 16.8649 28.3417 16.9397 28.3094 16.9417C27.8571 16.966 27.0029 15.7326 26.5404 14.6165L26.0941 10.8153V7.54789C26.0941 7.10105 25.7327 6.73913 25.2864 6.73913C24.9169 6.73913 24.6099 6.98782 24.513 7.32749C23.6689 6.56723 22.5583 6.10019 21.3365 6.10019C18.7134 6.10019 16.5769 8.23735 16.5769 10.8638C16.5769 13.4903 18.7114 15.6274 21.3345 15.6274C22.7259 15.6274 23.9759 15.0228 24.8482 14.0645L24.9472 14.9117C24.9553 14.9804 24.9714 15.0492 24.9977 15.1139C25.2299 15.7063 26.496 18.6684 28.3942 18.5551C30.1228 18.4621 30.979 16.0459 31.4737 14.2363C31.6737 13.5023 31.8615 12.7239 31.9543 11.899L39.6642 16.3108L21.3324 32.7977L3.00064 16.3128L10.7024 11.9074ZM24.4767 10.8641C24.4767 12.5989 23.0672 14.0101 21.3346 14.0101C19.602 14.0101 18.1905 12.5988 18.1905 10.8641C18.1905 9.12924 19.6 7.71798 21.3346 7.71798C23.0673 7.71596 24.4767 9.12929 24.4767 10.8641ZM2.38873 35.7031V17.9367L8.74575 23.6547L3.1988 38.3641C2.68791 37.6019 2.38873 36.6878 2.38873 35.7031ZM7.15849 40.4789C6.15083 40.4789 5.21788 40.1635 4.4485 39.6277L10.0363 24.8111L20.7936 34.4857C20.9471 34.6232 21.141 34.692 21.3328 34.692C21.5267 34.692 21.7185 34.6232 21.872 34.4857L32.633 24.8111L38.2208 39.6277C37.4514 40.1635 36.5184 40.4789 35.5108 40.4789H7.15849ZM39.4703 38.364L33.9234 23.6525L40.2825 17.9365V35.705C40.2805 36.6877 39.9812 37.6018 39.4703 38.364Z" fill="#5801B7"/>
</svg>
