<svg width="17" height="13" viewBox="0 0 17 13" fill="none" xmlns="http://www.w3.org/2000/svg">
<path d="M13.9841 1H3.01589C1.90245 1 1 1.99196 1 3.21586V9.78414C1 11.008 1.90245 12 3.01589 12H13.9841C15.0976 12 16 11.008 16 9.78414V3.21586C16 1.99196 15.0976 1 13.9841 1ZM13.9841 1.80612C14.1209 1.80612 14.257 1.83105 14.3869 1.87865L9.23339 6.81051C8.8155 7.20715 8.19555 7.20715 7.77766 6.81051L2.61309 1.87865C2.74299 1.83105 2.87907 1.80612 3.01586 1.80612H13.9841ZM15.2673 9.78414H15.2666C15.2666 10.1581 15.1319 10.517 14.8914 10.7814C14.6508 11.0458 14.3243 11.1939 13.9841 11.1939H3.01591C2.30729 11.1939 1.73337 10.563 1.73337 9.78412V3.21584C1.73268 2.90608 1.82616 2.60464 1.99867 2.35986L7.2924 7.4186C7.9859 8.07663 9.01413 8.07663 9.70771 7.4186L15.0014 2.35986C15.1739 2.60464 15.2674 2.90608 15.2667 3.21584L15.2673 9.78414Z" fill="#5F5F5F" stroke="#5F5F5F" stroke-width="0.3"/>
</svg>
