<svg width="54" height="55" viewBox="0 0 54 55" fill="none" xmlns="http://www.w3.org/2000/svg">
<mask id="path-1-outside-1_4478_4922" maskUnits="userSpaceOnUse" x="-0.40625" y="0.203125" width="54" height="55" fill="black">
<rect fill="white" x="-0.40625" y="0.203125" width="54" height="55"/>
<path fill-rule="evenodd" clip-rule="evenodd" d="M16.344 3.95181L16.3333 2.2787C16.3333 2.14639 16.3525 2.02048 16.3911 1.90097C16.4317 1.77719 16.4959 1.66195 16.5794 1.55952C16.6693 1.44855 16.7742 1.36318 16.8941 1.30129C17.0225 1.23514 17.1616 1.20312 17.3071 1.20312H23.4117C23.5551 1.20312 23.6942 1.23514 23.8226 1.30129C23.9425 1.36318 24.0495 1.44854 24.1394 1.55952C24.2229 1.66195 24.2871 1.77506 24.3278 1.90097C24.3663 2.01834 24.3877 2.14639 24.3855 2.2787L24.3748 3.95181H29.2763C29.5652 3.95181 29.8221 4.08625 30.0019 4.30606C30.1581 4.496 30.2544 4.74781 30.2544 5.02098V6.17126H37.3798C38.1374 6.17126 38.8223 6.47856 39.3211 6.97369C39.8176 7.4688 40.1259 8.15386 40.1259 8.90931V28.024H45.9263C46.2281 28.024 46.47 28.2673 46.47 28.566V40.6769H52.2704C52.5722 40.6769 52.8141 40.9202 52.8141 41.2189V53.8739C52.8141 54.1748 52.5701 54.416 52.2704 54.416L39.5868 54.4181H3.33989C2.5822 54.4181 1.89729 54.1108 1.39856 53.6157C0.90199 53.1206 0.59375 52.4355 0.59375 51.6801V8.90695C0.59375 8.15149 0.901963 7.46859 1.39856 6.97133C1.89512 6.47623 2.5822 6.1689 3.33989 6.1689H10.4652V5.01862C10.4652 4.74759 10.5615 4.49364 10.7178 4.3037C10.8976 4.08603 11.1523 3.94945 11.4434 3.94945L16.344 3.95181ZM30.9924 40.6771H32.6941V28.5663C32.6941 28.2654 32.9381 28.0242 33.2377 28.0242H39.0381L39.0403 8.90738C39.0403 8.45283 38.8541 8.04097 38.5544 7.74006C38.2548 7.44129 37.8395 7.25562 37.3836 7.25562H30.2583V8.28424L30.2476 8.34826L30.2455 8.3568L30.2219 8.49764L30.2134 8.52325L30.2091 8.53392C30.2069 8.54246 30.2048 8.54886 30.2027 8.5574L30.1941 8.57874C30.192 8.58514 30.1898 8.59368 30.1855 8.60221L30.1599 8.66624C30.1556 8.67691 30.1492 8.68758 30.1449 8.69825C30.1385 8.71319 30.1299 8.72599 30.1235 8.74093C30.1149 8.758 30.1042 8.77507 30.0935 8.79215L30.0871 8.80282L30.0742 8.82202L30.0486 8.8647L30.0357 8.88391L30.01 8.91806L29.9587 8.98208L29.9244 9.01622L29.8602 9.06744L29.8474 9.06531L29.826 9.08238L29.6654 9.17841L29.6547 9.18268L29.5006 9.2339L29.3465 9.25951H29.2823L11.4421 9.26378H11.3779L11.2238 9.23817L11.0697 9.18695L11.059 9.18268L11.0461 9.17628L10.9177 9.09946L10.907 9.08879L10.8963 9.08238L10.7893 8.99702L10.7636 8.97141L10.7294 8.92873L10.7251 8.92019L10.7165 8.90952L10.6844 8.86684L10.6587 8.82843L10.6523 8.81776L10.6395 8.79855C10.6309 8.78575 10.6245 8.77081 10.6159 8.758L10.6052 8.73666L10.5924 8.71532L10.5838 8.69398C10.5795 8.68758 10.5774 8.67904 10.5731 8.67264L10.5646 8.6513L10.5539 8.6385L10.5068 8.52112L10.5025 8.50832C10.5003 8.49978 10.4982 8.49338 10.4961 8.48485L10.4982 8.46564L10.464 8.26077V7.25565H3.33863C2.88273 7.25565 2.46966 7.44131 2.16786 7.74008C1.8682 8.03885 1.68199 8.45287 1.68199 8.90741V51.6805C1.68199 52.1351 1.8682 52.5469 2.16786 52.8478C2.46751 53.1466 2.88274 53.3323 3.33863 53.3323H26.3475V41.2192C26.3475 40.9183 26.5915 40.6772 26.8911 40.6772L30.9924 40.6771ZM36.0309 41.7634V45.2441C36.0309 45.6538 35.8639 46.0273 35.5921 46.2962C35.3224 46.5651 34.9478 46.7336 34.5369 46.7336H31.9406C31.5297 46.7336 31.1551 46.5672 30.8854 46.2962C30.6157 46.0273 30.4466 45.6538 30.4466 45.2441V41.7634H27.4373V53.3323H39.0403V41.7634H36.0309ZM31.5361 41.7634V45.2441C31.5361 45.355 31.5811 45.4553 31.656 45.5279C31.7287 45.6004 31.8315 45.6474 31.9406 45.6474H34.5369C34.6482 45.6474 34.7488 45.6026 34.8216 45.5279C34.8944 45.4553 34.9414 45.3529 34.9414 45.2441V41.7634H31.5361ZM48.7232 41.7634V45.2441C48.7232 45.6538 48.5562 46.0273 48.2844 46.2962C48.0147 46.5651 47.6401 46.7336 47.2292 46.7336H44.6329C44.2219 46.7336 43.8474 46.5672 43.5777 46.2962C43.308 46.0273 43.1389 45.6538 43.1389 45.2441V41.7634H40.1295V53.3323H51.7326V41.7634H48.7232ZM44.2284 41.7634V45.2441C44.2284 45.355 44.2733 45.4553 44.3483 45.5279C44.421 45.6004 44.5238 45.6474 44.6329 45.6474H47.2292C47.3405 45.6474 47.4411 45.6026 47.5139 45.5279C47.5866 45.4553 47.6337 45.3529 47.6337 45.2441V41.7634H44.2284ZM42.377 29.1084V32.5891C42.377 32.9988 42.21 33.3723 41.9382 33.6412C41.6685 33.9101 41.2939 34.0787 40.883 34.0787H38.2867C37.8758 34.0787 37.5012 33.9122 37.2315 33.6412C36.9618 33.3723 36.7927 32.9988 36.7927 32.5891V29.1084H33.7834V40.6773H45.3842L45.3864 29.1084H42.377ZM37.8822 29.1084V32.5891C37.8822 32.7 37.9272 32.8004 38.0021 32.8729C38.0749 32.9455 38.1776 32.9924 38.2868 32.9924H40.883C40.9943 32.9924 41.0949 32.9476 41.1677 32.8729C41.2405 32.8004 41.2876 32.6979 41.2876 32.5891V29.1084H37.8822ZM8.18913 35.4212L6.66521 37.5189L5.80907 36.6695C5.59717 36.4583 5.25258 36.4604 5.0407 36.6717C4.82881 36.883 4.83094 37.2265 5.04284 37.4378L6.32922 38.7139C6.35491 38.7417 6.38273 38.7673 6.41484 38.7908C6.65884 38.9658 6.99915 38.9124 7.17466 38.6691L9.071 36.0592C9.24651 35.8159 9.19301 35.4766 8.949 35.3016C8.705 35.1245 8.36463 35.18 8.18913 35.4212ZM8.06284 25.3503L6.53893 27.448L5.68278 26.5987C5.47089 26.3874 5.1263 26.3895 4.91441 26.6008C4.70252 26.8121 4.70466 27.1556 4.91656 27.3669L6.20294 28.6431C6.22862 28.6708 6.25645 28.6964 6.28856 28.7199C6.53256 28.8949 6.87287 28.8415 7.04838 28.5982L8.94472 25.9883C9.12023 25.745 9.06672 25.4057 8.82272 25.2307C8.57872 25.0536 8.23835 25.107 8.06284 25.3503ZM22.8231 38.4685H13.2644C12.9626 38.4685 12.7207 38.7118 12.7207 39.0106C12.7207 39.3115 12.9647 39.5526 13.2644 39.5526H22.8231C23.1249 39.5526 23.3667 39.3094 23.3667 39.0106C23.3689 38.7118 23.1249 38.4685 22.8231 38.4685ZM27.7823 34.5355H13.2643C12.9625 34.5355 12.7206 34.7787 12.7206 35.0775C12.7206 35.3784 12.9646 35.6196 13.2643 35.6196H27.7823C28.0841 35.6196 28.326 35.3763 28.326 35.0775C28.326 34.7787 28.082 34.5355 27.7823 34.5355ZM22.8231 28.3981H13.2644C12.9626 28.3981 12.7207 28.6414 12.7207 28.9401C12.7207 29.241 12.9647 29.4822 13.2644 29.4822H22.8231C23.1249 29.4822 23.3667 29.2389 23.3667 28.9401C23.3689 28.6414 23.1249 28.3981 22.8231 28.3981ZM27.7823 24.4629H13.2643C12.9625 24.4629 12.7206 24.7062 12.7206 25.0049C12.7206 25.3058 12.9646 25.547 13.2643 25.547H27.7823C28.0841 25.547 28.326 25.3037 28.326 25.0049C28.326 24.7062 28.082 24.4629 27.7823 24.4629ZM22.8231 18.3255H13.2644C12.9626 18.3255 12.7207 18.5688 12.7207 18.8676C12.7207 19.1685 12.9647 19.4096 13.2644 19.4096H22.8231C23.1249 19.4096 23.3667 19.1663 23.3667 18.8676C23.3689 18.5688 23.1249 18.3255 22.8231 18.3255ZM27.7823 14.3924H13.2643C12.9625 14.3924 12.7206 14.6357 12.7206 14.9345C12.7206 15.2354 12.9646 15.4765 13.2643 15.4765H27.7823C28.0841 15.4765 28.326 15.2333 28.326 14.9345C28.326 14.6357 28.082 14.3924 27.7823 14.3924ZM8.57231 15.2781L7.0484 17.3758L6.19225 16.5265C5.98035 16.3152 5.63577 16.3173 5.42388 16.5286C5.21199 16.7399 5.21413 17.0835 5.42602 17.2947L6.71241 18.5709C6.73809 18.5986 6.76592 18.6242 6.79802 18.6477C7.04202 18.8227 7.38234 18.7693 7.55784 18.526L9.45419 15.9161C9.6297 15.6728 9.57619 15.3335 9.33219 15.1585C9.09032 14.9835 8.74995 15.0369 8.57231 15.2781ZM17.4187 2.29039L17.4294 3.9635C17.4294 4.09581 17.4101 4.22172 17.3716 4.34123C17.331 4.46501 17.2667 4.58025 17.1833 4.68268C17.0934 4.79366 16.9864 4.88115 16.8665 4.94091C16.7359 5.00706 16.5989 5.03907 16.4555 5.03907H11.5541V8.17829H29.1674V5.03907H24.266C24.1226 5.03907 23.9835 5.00706 23.8551 4.94091C23.7352 4.87902 23.6303 4.79366 23.5383 4.68268C23.4548 4.58025 23.3906 4.46714 23.3499 4.34123C23.3114 4.22386 23.29 4.09581 23.2921 3.9635L23.3029 2.29039H17.4187Z"/>
</mask>
<path fill-rule="evenodd" clip-rule="evenodd" d="M16.344 3.95181L16.3333 2.2787C16.3333 2.14639 16.3525 2.02048 16.3911 1.90097C16.4317 1.77719 16.4959 1.66195 16.5794 1.55952C16.6693 1.44855 16.7742 1.36318 16.8941 1.30129C17.0225 1.23514 17.1616 1.20312 17.3071 1.20312H23.4117C23.5551 1.20312 23.6942 1.23514 23.8226 1.30129C23.9425 1.36318 24.0495 1.44854 24.1394 1.55952C24.2229 1.66195 24.2871 1.77506 24.3278 1.90097C24.3663 2.01834 24.3877 2.14639 24.3855 2.2787L24.3748 3.95181H29.2763C29.5652 3.95181 29.8221 4.08625 30.0019 4.30606C30.1581 4.496 30.2544 4.74781 30.2544 5.02098V6.17126H37.3798C38.1374 6.17126 38.8223 6.47856 39.3211 6.97369C39.8176 7.4688 40.1259 8.15386 40.1259 8.90931V28.024H45.9263C46.2281 28.024 46.47 28.2673 46.47 28.566V40.6769H52.2704C52.5722 40.6769 52.8141 40.9202 52.8141 41.2189V53.8739C52.8141 54.1748 52.5701 54.416 52.2704 54.416L39.5868 54.4181H3.33989C2.5822 54.4181 1.89729 54.1108 1.39856 53.6157C0.90199 53.1206 0.59375 52.4355 0.59375 51.6801V8.90695C0.59375 8.15149 0.901963 7.46859 1.39856 6.97133C1.89512 6.47623 2.5822 6.1689 3.33989 6.1689H10.4652V5.01862C10.4652 4.74759 10.5615 4.49364 10.7178 4.3037C10.8976 4.08603 11.1523 3.94945 11.4434 3.94945L16.344 3.95181ZM30.9924 40.6771H32.6941V28.5663C32.6941 28.2654 32.9381 28.0242 33.2377 28.0242H39.0381L39.0403 8.90738C39.0403 8.45283 38.8541 8.04097 38.5544 7.74006C38.2548 7.44129 37.8395 7.25562 37.3836 7.25562H30.2583V8.28424L30.2476 8.34826L30.2455 8.3568L30.2219 8.49764L30.2134 8.52325L30.2091 8.53392C30.2069 8.54246 30.2048 8.54886 30.2027 8.5574L30.1941 8.57874C30.192 8.58514 30.1898 8.59368 30.1855 8.60221L30.1599 8.66624C30.1556 8.67691 30.1492 8.68758 30.1449 8.69825C30.1385 8.71319 30.1299 8.72599 30.1235 8.74093C30.1149 8.758 30.1042 8.77507 30.0935 8.79215L30.0871 8.80282L30.0742 8.82202L30.0486 8.8647L30.0357 8.88391L30.01 8.91806L29.9587 8.98208L29.9244 9.01622L29.8602 9.06744L29.8474 9.06531L29.826 9.08238L29.6654 9.17841L29.6547 9.18268L29.5006 9.2339L29.3465 9.25951H29.2823L11.4421 9.26378H11.3779L11.2238 9.23817L11.0697 9.18695L11.059 9.18268L11.0461 9.17628L10.9177 9.09946L10.907 9.08879L10.8963 9.08238L10.7893 8.99702L10.7636 8.97141L10.7294 8.92873L10.7251 8.92019L10.7165 8.90952L10.6844 8.86684L10.6587 8.82843L10.6523 8.81776L10.6395 8.79855C10.6309 8.78575 10.6245 8.77081 10.6159 8.758L10.6052 8.73666L10.5924 8.71532L10.5838 8.69398C10.5795 8.68758 10.5774 8.67904 10.5731 8.67264L10.5646 8.6513L10.5539 8.6385L10.5068 8.52112L10.5025 8.50832C10.5003 8.49978 10.4982 8.49338 10.4961 8.48485L10.4982 8.46564L10.464 8.26077V7.25565H3.33863C2.88273 7.25565 2.46966 7.44131 2.16786 7.74008C1.8682 8.03885 1.68199 8.45287 1.68199 8.90741V51.6805C1.68199 52.1351 1.8682 52.5469 2.16786 52.8478C2.46751 53.1466 2.88274 53.3323 3.33863 53.3323H26.3475V41.2192C26.3475 40.9183 26.5915 40.6772 26.8911 40.6772L30.9924 40.6771ZM36.0309 41.7634V45.2441C36.0309 45.6538 35.8639 46.0273 35.5921 46.2962C35.3224 46.5651 34.9478 46.7336 34.5369 46.7336H31.9406C31.5297 46.7336 31.1551 46.5672 30.8854 46.2962C30.6157 46.0273 30.4466 45.6538 30.4466 45.2441V41.7634H27.4373V53.3323H39.0403V41.7634H36.0309ZM31.5361 41.7634V45.2441C31.5361 45.355 31.5811 45.4553 31.656 45.5279C31.7287 45.6004 31.8315 45.6474 31.9406 45.6474H34.5369C34.6482 45.6474 34.7488 45.6026 34.8216 45.5279C34.8944 45.4553 34.9414 45.3529 34.9414 45.2441V41.7634H31.5361ZM48.7232 41.7634V45.2441C48.7232 45.6538 48.5562 46.0273 48.2844 46.2962C48.0147 46.5651 47.6401 46.7336 47.2292 46.7336H44.6329C44.2219 46.7336 43.8474 46.5672 43.5777 46.2962C43.308 46.0273 43.1389 45.6538 43.1389 45.2441V41.7634H40.1295V53.3323H51.7326V41.7634H48.7232ZM44.2284 41.7634V45.2441C44.2284 45.355 44.2733 45.4553 44.3483 45.5279C44.421 45.6004 44.5238 45.6474 44.6329 45.6474H47.2292C47.3405 45.6474 47.4411 45.6026 47.5139 45.5279C47.5866 45.4553 47.6337 45.3529 47.6337 45.2441V41.7634H44.2284ZM42.377 29.1084V32.5891C42.377 32.9988 42.21 33.3723 41.9382 33.6412C41.6685 33.9101 41.2939 34.0787 40.883 34.0787H38.2867C37.8758 34.0787 37.5012 33.9122 37.2315 33.6412C36.9618 33.3723 36.7927 32.9988 36.7927 32.5891V29.1084H33.7834V40.6773H45.3842L45.3864 29.1084H42.377ZM37.8822 29.1084V32.5891C37.8822 32.7 37.9272 32.8004 38.0021 32.8729C38.0749 32.9455 38.1776 32.9924 38.2868 32.9924H40.883C40.9943 32.9924 41.0949 32.9476 41.1677 32.8729C41.2405 32.8004 41.2876 32.6979 41.2876 32.5891V29.1084H37.8822ZM8.18913 35.4212L6.66521 37.5189L5.80907 36.6695C5.59717 36.4583 5.25258 36.4604 5.0407 36.6717C4.82881 36.883 4.83094 37.2265 5.04284 37.4378L6.32922 38.7139C6.35491 38.7417 6.38273 38.7673 6.41484 38.7908C6.65884 38.9658 6.99915 38.9124 7.17466 38.6691L9.071 36.0592C9.24651 35.8159 9.19301 35.4766 8.949 35.3016C8.705 35.1245 8.36463 35.18 8.18913 35.4212ZM8.06284 25.3503L6.53893 27.448L5.68278 26.5987C5.47089 26.3874 5.1263 26.3895 4.91441 26.6008C4.70252 26.8121 4.70466 27.1556 4.91656 27.3669L6.20294 28.6431C6.22862 28.6708 6.25645 28.6964 6.28856 28.7199C6.53256 28.8949 6.87287 28.8415 7.04838 28.5982L8.94472 25.9883C9.12023 25.745 9.06672 25.4057 8.82272 25.2307C8.57872 25.0536 8.23835 25.107 8.06284 25.3503ZM22.8231 38.4685H13.2644C12.9626 38.4685 12.7207 38.7118 12.7207 39.0106C12.7207 39.3115 12.9647 39.5526 13.2644 39.5526H22.8231C23.1249 39.5526 23.3667 39.3094 23.3667 39.0106C23.3689 38.7118 23.1249 38.4685 22.8231 38.4685ZM27.7823 34.5355H13.2643C12.9625 34.5355 12.7206 34.7787 12.7206 35.0775C12.7206 35.3784 12.9646 35.6196 13.2643 35.6196H27.7823C28.0841 35.6196 28.326 35.3763 28.326 35.0775C28.326 34.7787 28.082 34.5355 27.7823 34.5355ZM22.8231 28.3981H13.2644C12.9626 28.3981 12.7207 28.6414 12.7207 28.9401C12.7207 29.241 12.9647 29.4822 13.2644 29.4822H22.8231C23.1249 29.4822 23.3667 29.2389 23.3667 28.9401C23.3689 28.6414 23.1249 28.3981 22.8231 28.3981ZM27.7823 24.4629H13.2643C12.9625 24.4629 12.7206 24.7062 12.7206 25.0049C12.7206 25.3058 12.9646 25.547 13.2643 25.547H27.7823C28.0841 25.547 28.326 25.3037 28.326 25.0049C28.326 24.7062 28.082 24.4629 27.7823 24.4629ZM22.8231 18.3255H13.2644C12.9626 18.3255 12.7207 18.5688 12.7207 18.8676C12.7207 19.1685 12.9647 19.4096 13.2644 19.4096H22.8231C23.1249 19.4096 23.3667 19.1663 23.3667 18.8676C23.3689 18.5688 23.1249 18.3255 22.8231 18.3255ZM27.7823 14.3924H13.2643C12.9625 14.3924 12.7206 14.6357 12.7206 14.9345C12.7206 15.2354 12.9646 15.4765 13.2643 15.4765H27.7823C28.0841 15.4765 28.326 15.2333 28.326 14.9345C28.326 14.6357 28.082 14.3924 27.7823 14.3924ZM8.57231 15.2781L7.0484 17.3758L6.19225 16.5265C5.98035 16.3152 5.63577 16.3173 5.42388 16.5286C5.21199 16.7399 5.21413 17.0835 5.42602 17.2947L6.71241 18.5709C6.73809 18.5986 6.76592 18.6242 6.79802 18.6477C7.04202 18.8227 7.38234 18.7693 7.55784 18.526L9.45419 15.9161C9.6297 15.6728 9.57619 15.3335 9.33219 15.1585C9.09032 14.9835 8.74995 15.0369 8.57231 15.2781ZM17.4187 2.29039L17.4294 3.9635C17.4294 4.09581 17.4101 4.22172 17.3716 4.34123C17.331 4.46501 17.2667 4.58025 17.1833 4.68268C17.0934 4.79366 16.9864 4.88115 16.8665 4.94091C16.7359 5.00706 16.5989 5.03907 16.4555 5.03907H11.5541V8.17829H29.1674V5.03907H24.266C24.1226 5.03907 23.9835 5.00706 23.8551 4.94091C23.7352 4.87902 23.6303 4.79366 23.5383 4.68268C23.4548 4.58025 23.3906 4.46714 23.3499 4.34123C23.3114 4.22386 23.29 4.09581 23.2921 3.9635L23.3029 2.29039H17.4187Z" fill="#5801B7"/>
<path fill-rule="evenodd" clip-rule="evenodd" d="M16.344 3.95181L16.3333 2.2787C16.3333 2.14639 16.3525 2.02048 16.3911 1.90097C16.4317 1.77719 16.4959 1.66195 16.5794 1.55952C16.6693 1.44855 16.7742 1.36318 16.8941 1.30129C17.0225 1.23514 17.1616 1.20312 17.3071 1.20312H23.4117C23.5551 1.20312 23.6942 1.23514 23.8226 1.30129C23.9425 1.36318 24.0495 1.44854 24.1394 1.55952C24.2229 1.66195 24.2871 1.77506 24.3278 1.90097C24.3663 2.01834 24.3877 2.14639 24.3855 2.2787L24.3748 3.95181H29.2763C29.5652 3.95181 29.8221 4.08625 30.0019 4.30606C30.1581 4.496 30.2544 4.74781 30.2544 5.02098V6.17126H37.3798C38.1374 6.17126 38.8223 6.47856 39.3211 6.97369C39.8176 7.4688 40.1259 8.15386 40.1259 8.90931V28.024H45.9263C46.2281 28.024 46.47 28.2673 46.47 28.566V40.6769H52.2704C52.5722 40.6769 52.8141 40.9202 52.8141 41.2189V53.8739C52.8141 54.1748 52.5701 54.416 52.2704 54.416L39.5868 54.4181H3.33989C2.5822 54.4181 1.89729 54.1108 1.39856 53.6157C0.90199 53.1206 0.59375 52.4355 0.59375 51.6801V8.90695C0.59375 8.15149 0.901963 7.46859 1.39856 6.97133C1.89512 6.47623 2.5822 6.1689 3.33989 6.1689H10.4652V5.01862C10.4652 4.74759 10.5615 4.49364 10.7178 4.3037C10.8976 4.08603 11.1523 3.94945 11.4434 3.94945L16.344 3.95181ZM30.9924 40.6771H32.6941V28.5663C32.6941 28.2654 32.9381 28.0242 33.2377 28.0242H39.0381L39.0403 8.90738C39.0403 8.45283 38.8541 8.04097 38.5544 7.74006C38.2548 7.44129 37.8395 7.25562 37.3836 7.25562H30.2583V8.28424L30.2476 8.34826L30.2455 8.3568L30.2219 8.49764L30.2134 8.52325L30.2091 8.53392C30.2069 8.54246 30.2048 8.54886 30.2027 8.5574L30.1941 8.57874C30.192 8.58514 30.1898 8.59368 30.1855 8.60221L30.1599 8.66624C30.1556 8.67691 30.1492 8.68758 30.1449 8.69825C30.1385 8.71319 30.1299 8.72599 30.1235 8.74093C30.1149 8.758 30.1042 8.77507 30.0935 8.79215L30.0871 8.80282L30.0742 8.82202L30.0486 8.8647L30.0357 8.88391L30.01 8.91806L29.9587 8.98208L29.9244 9.01622L29.8602 9.06744L29.8474 9.06531L29.826 9.08238L29.6654 9.17841L29.6547 9.18268L29.5006 9.2339L29.3465 9.25951H29.2823L11.4421 9.26378H11.3779L11.2238 9.23817L11.0697 9.18695L11.059 9.18268L11.0461 9.17628L10.9177 9.09946L10.907 9.08879L10.8963 9.08238L10.7893 8.99702L10.7636 8.97141L10.7294 8.92873L10.7251 8.92019L10.7165 8.90952L10.6844 8.86684L10.6587 8.82843L10.6523 8.81776L10.6395 8.79855C10.6309 8.78575 10.6245 8.77081 10.6159 8.758L10.6052 8.73666L10.5924 8.71532L10.5838 8.69398C10.5795 8.68758 10.5774 8.67904 10.5731 8.67264L10.5646 8.6513L10.5539 8.6385L10.5068 8.52112L10.5025 8.50832C10.5003 8.49978 10.4982 8.49338 10.4961 8.48485L10.4982 8.46564L10.464 8.26077V7.25565H3.33863C2.88273 7.25565 2.46966 7.44131 2.16786 7.74008C1.8682 8.03885 1.68199 8.45287 1.68199 8.90741V51.6805C1.68199 52.1351 1.8682 52.5469 2.16786 52.8478C2.46751 53.1466 2.88274 53.3323 3.33863 53.3323H26.3475V41.2192C26.3475 40.9183 26.5915 40.6772 26.8911 40.6772L30.9924 40.6771ZM36.0309 41.7634V45.2441C36.0309 45.6538 35.8639 46.0273 35.5921 46.2962C35.3224 46.5651 34.9478 46.7336 34.5369 46.7336H31.9406C31.5297 46.7336 31.1551 46.5672 30.8854 46.2962C30.6157 46.0273 30.4466 45.6538 30.4466 45.2441V41.7634H27.4373V53.3323H39.0403V41.7634H36.0309ZM31.5361 41.7634V45.2441C31.5361 45.355 31.5811 45.4553 31.656 45.5279C31.7287 45.6004 31.8315 45.6474 31.9406 45.6474H34.5369C34.6482 45.6474 34.7488 45.6026 34.8216 45.5279C34.8944 45.4553 34.9414 45.3529 34.9414 45.2441V41.7634H31.5361ZM48.7232 41.7634V45.2441C48.7232 45.6538 48.5562 46.0273 48.2844 46.2962C48.0147 46.5651 47.6401 46.7336 47.2292 46.7336H44.6329C44.2219 46.7336 43.8474 46.5672 43.5777 46.2962C43.308 46.0273 43.1389 45.6538 43.1389 45.2441V41.7634H40.1295V53.3323H51.7326V41.7634H48.7232ZM44.2284 41.7634V45.2441C44.2284 45.355 44.2733 45.4553 44.3483 45.5279C44.421 45.6004 44.5238 45.6474 44.6329 45.6474H47.2292C47.3405 45.6474 47.4411 45.6026 47.5139 45.5279C47.5866 45.4553 47.6337 45.3529 47.6337 45.2441V41.7634H44.2284ZM42.377 29.1084V32.5891C42.377 32.9988 42.21 33.3723 41.9382 33.6412C41.6685 33.9101 41.2939 34.0787 40.883 34.0787H38.2867C37.8758 34.0787 37.5012 33.9122 37.2315 33.6412C36.9618 33.3723 36.7927 32.9988 36.7927 32.5891V29.1084H33.7834V40.6773H45.3842L45.3864 29.1084H42.377ZM37.8822 29.1084V32.5891C37.8822 32.7 37.9272 32.8004 38.0021 32.8729C38.0749 32.9455 38.1776 32.9924 38.2868 32.9924H40.883C40.9943 32.9924 41.0949 32.9476 41.1677 32.8729C41.2405 32.8004 41.2876 32.6979 41.2876 32.5891V29.1084H37.8822ZM8.18913 35.4212L6.66521 37.5189L5.80907 36.6695C5.59717 36.4583 5.25258 36.4604 5.0407 36.6717C4.82881 36.883 4.83094 37.2265 5.04284 37.4378L6.32922 38.7139C6.35491 38.7417 6.38273 38.7673 6.41484 38.7908C6.65884 38.9658 6.99915 38.9124 7.17466 38.6691L9.071 36.0592C9.24651 35.8159 9.19301 35.4766 8.949 35.3016C8.705 35.1245 8.36463 35.18 8.18913 35.4212ZM8.06284 25.3503L6.53893 27.448L5.68278 26.5987C5.47089 26.3874 5.1263 26.3895 4.91441 26.6008C4.70252 26.8121 4.70466 27.1556 4.91656 27.3669L6.20294 28.6431C6.22862 28.6708 6.25645 28.6964 6.28856 28.7199C6.53256 28.8949 6.87287 28.8415 7.04838 28.5982L8.94472 25.9883C9.12023 25.745 9.06672 25.4057 8.82272 25.2307C8.57872 25.0536 8.23835 25.107 8.06284 25.3503ZM22.8231 38.4685H13.2644C12.9626 38.4685 12.7207 38.7118 12.7207 39.0106C12.7207 39.3115 12.9647 39.5526 13.2644 39.5526H22.8231C23.1249 39.5526 23.3667 39.3094 23.3667 39.0106C23.3689 38.7118 23.1249 38.4685 22.8231 38.4685ZM27.7823 34.5355H13.2643C12.9625 34.5355 12.7206 34.7787 12.7206 35.0775C12.7206 35.3784 12.9646 35.6196 13.2643 35.6196H27.7823C28.0841 35.6196 28.326 35.3763 28.326 35.0775C28.326 34.7787 28.082 34.5355 27.7823 34.5355ZM22.8231 28.3981H13.2644C12.9626 28.3981 12.7207 28.6414 12.7207 28.9401C12.7207 29.241 12.9647 29.4822 13.2644 29.4822H22.8231C23.1249 29.4822 23.3667 29.2389 23.3667 28.9401C23.3689 28.6414 23.1249 28.3981 22.8231 28.3981ZM27.7823 24.4629H13.2643C12.9625 24.4629 12.7206 24.7062 12.7206 25.0049C12.7206 25.3058 12.9646 25.547 13.2643 25.547H27.7823C28.0841 25.547 28.326 25.3037 28.326 25.0049C28.326 24.7062 28.082 24.4629 27.7823 24.4629ZM22.8231 18.3255H13.2644C12.9626 18.3255 12.7207 18.5688 12.7207 18.8676C12.7207 19.1685 12.9647 19.4096 13.2644 19.4096H22.8231C23.1249 19.4096 23.3667 19.1663 23.3667 18.8676C23.3689 18.5688 23.1249 18.3255 22.8231 18.3255ZM27.7823 14.3924H13.2643C12.9625 14.3924 12.7206 14.6357 12.7206 14.9345C12.7206 15.2354 12.9646 15.4765 13.2643 15.4765H27.7823C28.0841 15.4765 28.326 15.2333 28.326 14.9345C28.326 14.6357 28.082 14.3924 27.7823 14.3924ZM8.57231 15.2781L7.0484 17.3758L6.19225 16.5265C5.98035 16.3152 5.63577 16.3173 5.42388 16.5286C5.21199 16.7399 5.21413 17.0835 5.42602 17.2947L6.71241 18.5709C6.73809 18.5986 6.76592 18.6242 6.79802 18.6477C7.04202 18.8227 7.38234 18.7693 7.55784 18.526L9.45419 15.9161C9.6297 15.6728 9.57619 15.3335 9.33219 15.1585C9.09032 14.9835 8.74995 15.0369 8.57231 15.2781ZM17.4187 2.29039L17.4294 3.9635C17.4294 4.09581 17.4101 4.22172 17.3716 4.34123C17.331 4.46501 17.2667 4.58025 17.1833 4.68268C17.0934 4.79366 16.9864 4.88115 16.8665 4.94091C16.7359 5.00706 16.5989 5.03907 16.4555 5.03907H11.5541V8.17829H29.1674V5.03907H24.266C24.1226 5.03907 23.9835 5.00706 23.8551 4.94091C23.7352 4.87902 23.6303 4.79366 23.5383 4.68268C23.4548 4.58025 23.3906 4.46714 23.3499 4.34123C23.3114 4.22386 23.29 4.09581 23.2921 3.9635L23.3029 2.29039H17.4187Z" stroke="#5801B7" mask="url(#path-1-outside-1_4478_4922)"/>
</svg>
