<svg width="33" height="51" viewBox="0 0 33 51" fill="none" xmlns="http://www.w3.org/2000/svg">
<path d="M27.64 6.45228H25.917V1.00128C25.917 0.985285 25.901 0.975285 25.898 0.960285C25.891 0.776285 25.851 0.591285 25.738 0.429285C25.423 -0.0237152 24.8 -0.135715 24.346 0.180285L22.047 1.78229L19.748 0.180285C19.406 -0.0587148 18.948 -0.0597148 18.604 0.180285L16.311 1.78028L14.019 0.180285C13.675 -0.0597148 13.218 -0.0597148 12.874 0.180285L10.582 1.78028L8.294 0.180285C7.839 -0.135715 7.217 -0.0257151 6.901 0.427285C6.787 0.590285 6.747 0.775285 6.74 0.959285C6.737 0.974285 6.721 0.984285 6.721 0.999285V6.45028H5C2.243 6.45028 0 8.69328 0 11.4503V26.1803C0 28.6613 0.879 31.0713 2.476 32.9653C3.769 34.4983 4.481 36.4533 4.481 38.4703V45.9703C4.481 48.7273 6.724 50.9703 9.481 50.9703H23.161C25.918 50.9703 28.161 48.7273 28.161 45.9703V38.4703C28.161 36.4533 28.873 34.4983 30.166 32.9653C31.763 31.0713 32.642 28.6623 32.642 26.1803V11.4503C32.64 8.69528 30.397 6.45228 27.64 6.45228ZM11.156 3.82028L13.448 2.22029L15.74 3.82028C15.912 3.94028 16.112 4.00029 16.312 4.00029C16.512 4.00029 16.712 3.94028 16.884 3.82028L19.177 2.21928L21.476 3.82028C21.818 4.05928 22.277 4.05928 22.619 3.82028L23.918 2.91528V10.7003H8.722V2.92028L10.01 3.82028C10.356 4.06128 10.812 4.06128 11.156 3.82028ZM30.64 26.1823C30.64 28.1923 29.928 30.1443 28.635 31.6783C27.038 33.5713 26.159 35.9843 26.159 38.4723V45.9723C26.159 47.6263 24.813 48.9723 23.159 48.9723H9.48C7.826 48.9723 6.48 47.6263 6.48 45.9723V38.4723C6.48 35.9843 5.601 33.5713 4.004 31.6783C2.711 30.1443 1.999 28.1933 1.999 26.1823V11.4523C1.999 9.79829 3.345 8.45228 4.999 8.45228H6.722V10.7023H6.439C5.886 10.7023 5.439 11.1503 5.439 11.7023C5.439 12.2543 5.886 12.7023 6.439 12.7023H26.201C26.754 12.7023 27.201 12.2543 27.201 11.7023C27.201 11.1503 26.754 10.7023 26.201 10.7023H25.918V8.45228H27.641C29.295 8.45228 30.641 9.79829 30.641 11.4523L30.64 26.1823Z" fill="#5801B7"/>
<path d="M24.0938 14.5469H8.55175C6.50675 14.5469 4.84375 16.2099 4.84375 18.2549V26.1459C4.84375 28.1899 6.50675 29.8539 8.55175 29.8539H24.0928C26.1378 29.8539 27.8008 28.1909 27.8008 26.1459V18.2549C27.8018 16.2109 26.1378 14.5469 24.0938 14.5469ZM25.8018 26.1459C25.8018 27.0869 25.0347 27.8539 24.0938 27.8539H8.55175C7.61075 27.8539 6.84375 27.0879 6.84375 26.1459V18.2549C6.84375 17.3139 7.61075 16.5469 8.55175 16.5469H24.0928C25.0338 16.5469 25.8008 17.3129 25.8008 18.2549L25.8018 26.1459Z" fill="#5801B7"/>
<path d="M11.2692 33.1562H9.36719C8.81419 33.1562 8.36719 33.6043 8.36719 34.1562C8.36719 34.7083 8.81419 35.1562 9.36719 35.1562H11.2692C11.8222 35.1562 12.2692 34.7083 12.2692 34.1562C12.2692 33.6043 11.8222 33.1562 11.2692 33.1562Z" fill="#5801B7"/>
<path d="M23.2692 33.1562H21.3672C20.8142 33.1562 20.3672 33.6043 20.3672 34.1562C20.3672 34.7083 20.8142 35.1562 21.3672 35.1562H23.2692C23.8222 35.1562 24.2692 34.7083 24.2692 34.1562C24.2692 33.6043 23.8222 33.1562 23.2692 33.1562Z" fill="#5801B7"/>
<path d="M17.2692 33.1562H15.3672C14.8142 33.1562 14.3672 33.6043 14.3672 34.1562C14.3672 34.7083 14.8142 35.1562 15.3672 35.1562H17.2692C17.8222 35.1562 18.2692 34.7083 18.2692 34.1562C18.2692 33.6043 17.8222 33.1562 17.2692 33.1562Z" fill="#5801B7"/>
<path d="M11.2692 38.0703H9.36719C8.81419 38.0703 8.36719 38.5183 8.36719 39.0703C8.36719 39.6223 8.81419 40.0703 9.36719 40.0703H11.2692C11.8222 40.0703 12.2692 39.6223 12.2692 39.0703C12.2692 38.5183 11.8222 38.0703 11.2692 38.0703Z" fill="#5801B7"/>
<path d="M23.2692 38.0703H21.3672C20.8142 38.0703 20.3672 38.5183 20.3672 39.0703C20.3672 39.6223 20.8142 40.0703 21.3672 40.0703H23.2692C23.8222 40.0703 24.2692 39.6223 24.2692 39.0703C24.2692 38.5183 23.8222 38.0703 23.2692 38.0703Z" fill="#5801B7"/>
<path d="M17.2692 38.0703H15.3672C14.8142 38.0703 14.3672 38.5183 14.3672 39.0703C14.3672 39.6223 14.8142 40.0703 15.3672 40.0703H17.2692C17.8222 40.0703 18.2692 39.6223 18.2692 39.0703C18.2692 38.5183 17.8222 38.0703 17.2692 38.0703Z" fill="#5801B7"/>
<path d="M11.2692 42.9844H9.36719C8.81419 42.9844 8.36719 43.4324 8.36719 43.9844C8.36719 44.5364 8.81419 44.9844 9.36719 44.9844H11.2692C11.8222 44.9844 12.2692 44.5364 12.2692 43.9844C12.2692 43.4324 11.8222 42.9844 11.2692 42.9844Z" fill="#5801B7"/>
<path d="M23.2692 42.9844H21.3672C20.8142 42.9844 20.3672 43.4324 20.3672 43.9844C20.3672 44.5364 20.8142 44.9844 21.3672 44.9844H23.2692C23.8222 44.9844 24.2692 44.5364 24.2692 43.9844C24.2692 43.4324 23.8222 42.9844 23.2692 42.9844Z" fill="#5801B7"/>
<path d="M17.2692 42.9844H15.3672C14.8142 42.9844 14.3672 43.4324 14.3672 43.9844C14.3672 44.5364 14.8142 44.9844 15.3672 44.9844H17.2692C17.8222 44.9844 18.2692 44.5364 18.2692 43.9844C18.2692 43.4324 17.8222 42.9844 17.2692 42.9844Z" fill="#5801B7"/>
</svg>
