<svg width="37" height="63" viewBox="0 0 37 63" fill="none" xmlns="http://www.w3.org/2000/svg">
<path d="M8.06527 19.755H29.0332C29.2233 19.755 29.486 19.9726 29.486 20.3874C29.486 20.7644 29.1946 21.0199 28.9726 21.0199H8.06527C7.8433 21.0199 7.55186 20.7644 7.55186 20.3874C7.55186 20.0105 7.8433 19.755 8.06527 19.755Z" fill="#5801B7" stroke="#5801B7" stroke-width="0.791217"/>
<path d="M29.4884 31.3127L29.486 31.3344V31.3562C29.486 31.7331 29.1946 31.9886 28.9726 31.9886H8.06527C7.8433 31.9886 7.55186 31.7331 7.55186 31.3562C7.55186 30.9792 7.8433 30.7237 8.06527 30.7237H29.0332C29.2594 30.7237 29.5257 30.9753 29.4884 31.3127Z" fill="#5801B7" stroke="#5801B7" stroke-width="0.791217"/>
<path d="M8.06527 41.005H29.0332C29.2233 41.005 29.486 41.2226 29.486 41.6374C29.486 42.0144 29.1946 42.2699 28.9726 42.2699H8.06527C7.8433 42.2699 7.55186 42.0144 7.55186 41.6374C7.55186 41.2605 7.8433 41.005 8.06527 41.005Z" fill="#5801B7" stroke="#5801B7" stroke-width="0.791217"/>
<path d="M19.2889 61.3107L19.2832 61.3166L19.2778 61.3228C18.8743 61.7791 18.3191 62.0117 17.6955 62.0117C17.0983 62.0117 16.4817 61.7316 16.0052 61.1329L14.9186 59.7674C14.4489 59.1383 13.5638 59.178 13.0609 59.6521L13.0535 59.659L13.0465 59.6663L11.4736 61.3084C11.0012 61.7821 10.4357 62.0117 9.81737 62.0117C9.1836 62.0117 8.57196 61.7723 8.1745 61.3228L8.16928 61.3169L8.16382 61.3112L6.59314 59.6715C6.32347 59.3707 5.94015 59.2386 5.57981 59.2275C5.21726 59.2165 4.83365 59.3256 4.53888 59.5637L4.52664 59.5736L4.51523 59.5844L2.63658 61.3663L2.63349 61.3693C2.26599 61.7256 1.87545 61.8746 1.57563 61.8746C1.30049 61.8746 1.01669 61.7564 0.795142 61.493C0.572401 61.2281 0.395608 60.7939 0.395608 60.1456V3.1914C0.395608 2.50442 0.574568 2.0742 0.792016 1.82197C1.00689 1.57273 1.28827 1.46237 1.57563 1.46237C1.87546 1.46237 2.26599 1.61139 2.63349 1.96764L2.63339 1.96775L2.64117 1.97489L4.57685 3.75359C4.87546 4.04063 5.28194 4.16958 5.6662 4.16958C6.04943 4.16958 6.45478 4.04131 6.75317 3.75586L8.74733 1.97896L8.75506 1.97207L8.76241 1.96479C9.17066 1.5608 9.7362 1.3253 10.3628 1.3253C11.0304 1.3253 11.6578 1.61456 12.1377 2.09458L13.5843 3.66248C14.104 4.24613 15.0406 4.24722 15.5619 3.66576L17.0717 2.0948L17.0774 2.08888L17.0829 2.08272C17.4863 1.6264 18.0415 1.39383 18.6651 1.39383C19.2623 1.39383 19.8789 1.6739 20.3554 2.27262L21.4421 3.63814C21.9118 4.2672 22.7968 4.22745 23.2997 3.75345L23.3071 3.74651L23.3141 3.73921L24.887 2.09712C25.3594 1.62344 25.9249 1.39383 26.5433 1.39383C27.177 1.39383 27.7887 1.63321 28.1861 2.08272L28.1913 2.08863L28.1968 2.09433L29.7675 3.73404C30.0371 4.0348 30.4205 4.16694 30.7808 4.17796C31.1434 4.18904 31.527 4.07995 31.8217 3.84183L31.834 3.83194L31.8454 3.82111L33.724 2.03917L33.7271 2.03618C34.0946 1.67993 34.4852 1.53091 34.785 1.53091C35.0601 1.53091 35.3439 1.64912 35.5655 1.91254C35.7882 2.17736 35.965 2.61159 35.965 3.25994V60.2826C35.965 60.9696 35.7861 61.3998 35.5686 61.6521C35.3537 61.9013 35.0723 62.0117 34.785 62.0117C34.4852 62.0117 34.0946 61.8627 33.7271 61.5064L33.7272 61.5063L33.7194 61.4991L31.7837 59.7204C31.4851 59.4334 31.0787 59.3045 30.6944 59.3045C30.3125 59.3045 29.9086 59.4319 29.6105 59.7153L27.6191 61.4215L27.6191 61.4215L27.6152 61.4249C27.1319 61.85 26.5556 62.0802 25.9978 62.0802C25.3303 62.0802 24.7029 61.791 24.223 61.311L22.7763 59.743C22.2566 59.1594 21.32 59.1583 20.7988 59.7397L19.2889 61.3107ZM23.4592 58.7627L23.4592 58.7628L23.4648 58.7689L24.9166 60.3424C25.1865 60.6454 25.5712 60.7784 25.9327 60.7894C26.2953 60.8005 26.6789 60.6914 26.9737 60.4533L26.9864 60.443L26.9982 60.4318L28.9314 58.587C29.4066 58.1712 29.9794 57.9368 30.6641 57.9368C31.2931 57.9368 31.9252 58.1743 32.3977 58.5878L34.2107 60.2964L34.8776 60.9249V60.0085V3.32848V2.39026L34.2058 3.04522L32.4559 4.75135C31.9741 5.17232 31.4009 5.4002 30.8459 5.4002C30.1859 5.4002 29.6163 5.11713 29.1291 4.62837L27.5611 2.9915C27.0281 2.3963 26.1034 2.4304 25.5407 2.97589L25.5352 2.9812L25.5299 2.98672L23.8937 4.70015L23.8885 4.70563L23.8834 4.71131C23.4767 5.17135 22.9196 5.4002 22.3618 5.4002C21.6953 5.4002 21.0916 5.11417 20.6849 4.53929L20.6785 4.53016L20.6715 4.52141L19.5848 3.15587C19.1294 2.54631 18.235 2.54116 17.7688 3.05961L16.2612 4.62821C15.7701 5.121 15.1999 5.4002 14.6048 5.4002C13.9967 5.4002 13.3756 5.1105 12.962 4.64277L12.9621 4.64272L12.9564 4.63656L11.5045 3.06299C11.2347 2.76012 10.85 2.62712 10.4885 2.61607C10.1259 2.60499 9.74233 2.71408 9.44757 2.9522L9.43486 2.96246L9.42305 2.97373L7.4898 4.81852C7.01128 5.23723 6.43789 5.46874 5.8177 5.46874C5.18873 5.46874 4.55665 5.2312 4.08407 4.81771L2.27117 3.10912L1.60423 2.48055V3.39702V60.077V61.0152L2.276 60.3603L4.02595 58.6542C4.50771 58.2332 5.08096 58.0053 5.6359 58.0053C6.29588 58.0053 6.86552 58.2884 7.3527 58.7771L8.92067 60.414C9.45373 61.0092 10.3784 60.9751 10.9411 60.4296L10.9464 60.4245L10.9515 60.4192L12.5271 58.7743L12.5326 58.7686L12.5378 58.7627C12.9445 58.3027 13.5017 58.0738 14.0594 58.0738C14.7259 58.0738 15.3296 58.3599 15.7363 58.9347L15.7428 58.9439L15.7497 58.9526L16.8364 60.3181C17.2917 60.9277 18.1861 60.9329 18.6524 60.4145L20.1624 58.8433L20.176 58.8292L20.1882 58.8137C20.5987 58.2914 21.2117 58.0053 21.8164 58.0053C22.4245 58.0053 23.0457 58.295 23.4592 58.7627Z" fill="#5801B7" stroke="#5801B7" stroke-width="0.791217"/>
</svg>
