<svg width="37" height="37" viewBox="0 0 37 37" fill="none" xmlns="http://www.w3.org/2000/svg">
<path d="M28.1783 20.7599L24.9586 18.405C24.4691 18.046 23.8708 17.9046 23.2726 17.9971C22.6743 18.0896 22.1522 18.4104 21.7933 18.8999L20.798 20.265C20.7871 20.2813 20.7763 20.2976 20.7654 20.314C20.6131 20.3357 19.8082 20.352 17.8829 18.8183L17.6762 18.6715C15.6639 17.3336 15.4355 16.5667 15.4083 16.409C15.4192 16.3927 15.4355 16.3764 15.4464 16.3601L16.4417 14.995C17.1759 13.9888 16.9583 12.5693 15.9467 11.8297L12.6672 9.43666C11.6611 8.69701 10.2416 8.91999 9.50193 9.93158L8.49578 11.313C7.52227 12.6509 7.26665 14.4076 7.81595 16.012C8.61543 18.3343 10.6223 20.7871 13.7985 23.3107C13.8529 23.3759 13.9181 23.4303 13.9888 23.4847C14.065 23.5391 14.1465 23.5935 14.2227 23.6479C14.2988 23.7077 14.375 23.7621 14.4511 23.8219C14.5218 23.8763 14.5979 23.9198 14.6741 23.9524C18.0461 26.204 20.9938 27.3733 23.4521 27.4223C23.4847 27.4223 23.5228 27.4223 23.5554 27.4223C25.1598 27.4223 26.6935 26.6337 27.6616 25.3012L28.6677 23.9198C29.0267 23.4303 29.1681 22.8321 29.0756 22.2338C28.9886 21.641 28.6677 21.1134 28.1783 20.7599ZM26.9165 22.6417L25.9103 24.0231C25.3338 24.8117 24.4093 25.2631 23.501 25.2468C22.0326 25.2142 19.4655 24.6051 15.5171 21.8912C11.7263 18.9543 10.3612 16.6973 9.88264 15.3104C9.5672 14.3913 9.7086 13.3525 10.2579 12.602L11.2641 11.2205C11.2913 11.1825 11.3456 11.1716 11.3891 11.1988L14.6687 13.5918C14.7067 13.619 14.7176 13.6788 14.6904 13.7169L13.7386 15.0167C13.4504 15.3322 13.1948 15.8651 13.2383 16.545C13.3253 17.8013 14.3804 19.0903 16.4362 20.4554L16.5613 20.5478C18.5247 22.1142 20.0747 22.7287 21.2984 22.4296C21.9564 22.2664 22.3861 21.8585 22.5982 21.4887L23.55 20.1889C23.5772 20.1562 23.6424 20.1454 23.6751 20.1671L26.9002 22.5221C26.9328 22.5384 26.9382 22.6036 26.9165 22.6417Z" fill="#5801B7"/>
<path d="M18.4815 0.179688C8.6212 0.179688 0.59375 8.2017 0.59375 18.0674C0.59375 22.2225 2.03499 26.2254 4.66186 29.4233L1.64341 35.3025C1.44218 35.6886 1.49657 36.1564 1.77394 36.4935C1.98604 36.7437 2.29061 36.8851 2.61149 36.8851C2.71482 36.8851 2.81816 36.8688 2.92149 36.8416L11.161 34.3942C13.467 35.433 15.9253 35.9551 18.476 35.9551C28.3363 35.9551 36.3637 27.9331 36.3637 18.0674C36.3637 8.2017 28.3417 0.179688 18.4815 0.179688ZM18.4815 33.7742C16.1157 33.7742 13.8369 33.263 11.7212 32.246C11.4765 32.1318 11.1991 32.11 10.9435 32.1861L4.74888 34.0298L6.93522 29.7659C7.14188 29.3635 7.07662 28.8794 6.77749 28.5422C4.19414 25.6598 2.76921 21.9343 2.76921 18.0674C2.76921 9.40364 9.8177 2.35515 18.4815 2.35515C27.1452 2.35515 34.1883 9.40364 34.1883 18.0674C34.1883 26.7312 27.1452 33.7742 18.4815 33.7742Z" fill="#5801B7"/>
</svg>
