<svg width="36" height="51" viewBox="0 0 36 51" fill="none" xmlns="http://www.w3.org/2000/svg">
<path d="M25.8195 15.4208L26.4625 15.9361V15.1121V2.26376C26.4625 2.03192 26.3457 1.854 26.2208 1.74447C26.1033 1.64152 25.9376 1.56223 25.7615 1.56223H22.3412C22.1595 1.56223 21.9774 1.62466 21.8398 1.76248C21.7023 1.90023 21.6402 2.08229 21.6402 2.26376V15.1733V15.8403L22.2255 15.5204L22.8974 15.1534L22.9099 15.1465L22.9219 15.1388C23.2676 14.9162 23.734 14.8056 24.2236 14.8193C24.7051 14.8327 25.1749 14.9654 25.5308 15.1895L25.8195 15.4208ZM2.79071 46.451L2.21793 46.1641V46.8047V47.0494C2.21793 48.1238 3.06625 48.9746 4.14045 48.9746H32.2356C33.3199 48.9746 34.1581 48.0523 34.1581 47.0494V46.8047V46.1641L33.5853 46.451C33.1487 46.6696 32.7205 46.7762 32.2356 46.7762H4.14045C3.65552 46.7762 3.2273 46.6696 2.79071 46.451ZM20.5992 1.89666V1.50105H20.2035H4.14045C3.06625 1.50105 2.21793 2.35183 2.21793 3.42623V4.2216V43.7456C2.21793 44.82 3.06625 45.6707 4.14045 45.6707H32.2356C33.3098 45.6707 34.1581 44.82 34.1581 43.7456V4.2216V3.42623C34.1581 2.35183 33.3098 1.50105 32.2356 1.50105H27.777H27.1374L27.423 2.07333C27.4367 2.10073 27.4425 2.13144 27.4425 2.26376V15.4792C27.4425 15.9379 27.2922 16.2461 27.1 16.4387C26.9042 16.6348 26.6406 16.7355 26.3723 16.7355C26.1131 16.7355 25.8498 16.6827 25.6424 16.5165L25.629 16.5058L25.6147 16.4962L24.8818 16.0068L24.8613 15.9931L24.8393 15.982C24.6322 15.8783 24.3419 15.8484 24.1124 15.8484C23.883 15.8484 23.5927 15.8783 23.3856 15.982L23.3688 15.9905L23.3528 16.0004L22.3787 16.6103C22.1012 16.7767 21.8702 16.8579 21.6694 16.8579C21.2761 16.8579 20.9908 16.7129 20.8383 16.4837L20.8166 16.4511L20.7889 16.4234C20.6487 16.2829 20.5381 15.9772 20.5381 15.6016V2.26405C20.5381 2.26372 20.5384 2.25819 20.5409 2.24477C20.5441 2.22772 20.5487 2.20861 20.5568 2.176C20.5576 2.17293 20.5584 2.16966 20.5593 2.16621C20.5732 2.11115 20.5992 2.00796 20.5992 1.89666ZM4.14045 0.395608H32.2356C33.8441 0.395608 35.1992 1.74275 35.1992 3.42623V4.2216V43.7456V46.9882C35.1992 48.6059 33.8487 49.9577 32.2356 49.9577H4.14045C2.5273 49.9577 1.17686 48.6059 1.17686 46.9882V43.7456V4.16042V3.36504C1.17686 1.74741 2.5273 0.395608 4.14045 0.395608Z" fill="#5801B7" stroke="#5801B7" stroke-width="0.791217"/>
</svg>
