<svg width="35" height="61" viewBox="0 0 35 61" fill="none" xmlns="http://www.w3.org/2000/svg">
<path d="M28.3656 0.28125H6.40364C3.21745 0.28125 0.625 2.8737 0.625 6.05989V54.5026C0.625 57.6888 3.21745 60.2812 6.40364 60.2812H28.3656C31.5518 60.2812 34.1442 57.6888 34.1442 54.5026V6.05989C34.1442 2.8737 31.5518 0.28125 28.3656 0.28125ZM32.2081 54.5026C32.2081 56.6214 30.4843 58.3451 28.3656 58.3451H6.40364C4.28489 58.3451 2.56111 56.6214 2.56111 54.5026V6.05989C2.56111 3.94114 4.28489 2.21736 6.40364 2.21736H28.3656C30.4843 2.21736 32.2081 3.94114 32.2081 6.05989V54.5026ZM26.978 32.9318L29.2691 26.9015C29.5814 26.078 29.4704 25.1538 28.9703 24.429C28.4701 23.7036 27.646 23.2712 26.765 23.2712H10.7444L10.2584 21.2519C9.97769 20.0863 8.94446 19.2719 7.74536 19.2719H6.29199C5.75698 19.2719 5.32394 19.7049 5.32394 20.2399C5.32394 20.775 5.75698 21.208 6.29199 21.208H7.74536C8.0461 21.208 8.30554 21.4126 8.37589 21.7049L9.74665 27.4042L11.313 33.9173L11.3136 33.9186L11.8364 36.0909C12.11 37.2293 13.1187 38.0244 14.2894 38.0244H28.4262C28.9612 38.0244 29.3943 37.5914 29.3943 37.0563C29.3943 36.5213 28.9612 36.0883 28.4262 36.0883H14.2901C14.0177 36.0883 13.7828 35.9031 13.7195 35.6385L13.484 34.6588H24.4746C25.5795 34.6594 26.5856 33.965 26.978 32.9318ZM11.2097 25.208H26.7644C27.0122 25.208 27.2349 25.3248 27.3756 25.5288C27.5163 25.7327 27.5466 25.9831 27.4582 26.2141L25.1671 32.2445C25.0587 32.5304 24.7792 32.7233 24.4733 32.7233H13.018L11.2097 25.208ZM15.7705 39.2842C14.2591 39.2842 13.0296 40.5136 13.0296 42.025C13.0296 43.5365 14.2591 44.7659 15.7705 44.7659C17.282 44.7659 18.5114 43.5365 18.5114 42.025C18.5114 40.5136 17.2813 39.2842 15.7705 39.2842ZM15.7705 42.8292C15.3265 42.8292 14.9658 42.4684 14.9658 42.0244C14.9658 41.5804 15.3265 41.2196 15.7705 41.2196C16.2145 41.2196 16.5753 41.5804 16.5753 42.0244C16.5753 42.4684 16.2139 42.8292 15.7705 42.8292ZM26.2713 39.2842C24.7599 39.2842 23.5305 40.5136 23.5305 42.025C23.5305 43.5365 24.7599 44.7659 26.2713 44.7659C27.7828 44.7659 29.0122 43.5365 29.0122 42.025C29.0122 40.5136 27.7828 39.2842 26.2713 39.2842ZM26.2713 42.8292C25.8273 42.8292 25.4666 42.4684 25.4666 42.0244C25.4666 41.5804 25.8273 41.2196 26.2713 41.2196C26.7153 41.2196 27.0761 41.5804 27.0761 42.0244C27.0761 42.4684 26.7153 42.8292 26.2713 42.8292ZM12.9903 6.27157C12.9903 5.73656 13.4233 5.30351 13.9583 5.30351H20.8102C21.3452 5.30351 21.7783 5.73656 21.7783 6.27157C21.7783 6.80658 21.3452 7.23962 20.8102 7.23962H13.9583C13.424 7.23962 12.9903 6.80658 12.9903 6.27157Z" fill="#5801B7"/>
</svg>
