<svg width="53" height="59" viewBox="0 0 53 59" fill="none" xmlns="http://www.w3.org/2000/svg">
<path d="M47.2916 27.8464C46.3497 27.8478 45.4321 28.1656 44.6681 28.7551C43.904 29.3445 43.3322 30.1758 43.0332 31.1317L37.3724 30.197C37.3867 29.9745 37.397 29.7514 37.397 29.5228C37.3984 27.3673 36.7239 25.2737 35.4814 23.5773L43.2743 15.8726C44.1063 16.6827 45.1922 17.129 46.317 17.1232C47.4418 17.1173 48.5236 16.6597 49.3482 15.8409C50.1728 15.0221 50.6802 13.9018 50.7699 12.7017C50.8597 11.5016 50.5252 10.3092 49.8328 9.36047C49.1403 8.41172 48.1403 7.77578 47.0307 7.57851C45.9211 7.38123 44.7827 7.63699 43.8409 8.29518C42.899 8.95337 42.2224 9.96601 41.9448 11.1327C41.6672 12.2994 41.809 13.5351 42.342 14.5952L34.4581 22.3925C32.7945 20.7546 30.6161 19.8463 28.3558 19.8481C28.082 19.8481 27.8123 19.8635 27.5449 19.8892L26.0073 10.499C27.0548 10.0744 27.9161 9.24582 28.422 8.17614C28.9278 7.10646 29.0417 5.87298 28.7412 4.71802C28.4407 3.56307 27.7475 2.57014 26.7979 1.93432C25.8482 1.29849 24.7108 1.06573 23.609 1.28177C22.5072 1.49781 21.5207 2.14703 20.8433 3.10187C20.166 4.05672 19.8467 5.24817 19.9482 6.44214C20.0497 7.63611 20.5647 8.74628 21.392 9.55455C22.2193 10.3628 23.2991 10.8108 24.4193 10.8103C24.4548 10.8103 24.4903 10.8103 24.5258 10.8103L26.0565 20.1663C24.8118 20.5197 23.6516 21.1525 22.6529 22.0227C21.6542 22.8928 20.8399 23.9804 20.264 25.2132L9.66965 20.7044C9.90479 19.5255 9.71776 18.2951 9.14558 17.2567C8.5734 16.2184 7.6578 15.4479 6.58008 15.0978C5.50236 14.7477 4.34109 14.8435 3.32624 15.3663C2.31138 15.8891 1.51693 16.8006 1.10019 17.9206C0.683452 19.0405 0.674816 20.2871 1.07599 21.4135C1.47717 22.5399 2.2589 23.464 3.26641 24.0028C4.27391 24.5416 5.43372 24.6558 6.51617 24.3229C7.59862 23.9899 8.5248 23.234 9.1113 22.2049L19.7056 26.7131C19.1384 28.7101 19.1902 30.8501 19.8534 32.813L15.3648 35.0196C14.7312 34.0283 13.773 33.3277 12.6798 33.0565C11.5866 32.7853 10.4381 32.9633 9.46166 33.5553C8.48523 34.1472 7.75201 35.1099 7.40715 36.2529C7.06229 37.3959 7.13091 38.6358 7.59944 39.7272C8.06797 40.8186 8.90225 41.6819 9.93715 42.1463C10.972 42.6107 12.1321 42.6424 13.1878 42.2349C14.2434 41.8275 15.1177 41.0107 15.6375 39.9463C16.1573 38.8818 16.2848 37.6473 15.9948 36.487L20.485 34.2804C21.2489 35.7272 22.3479 36.9392 23.676 37.8C25.0042 38.6607 26.517 39.1411 28.0689 39.195L28.5316 48.7102C27.4339 48.9741 26.4687 49.6695 25.8273 50.6587C25.1858 51.648 24.9148 52.8589 25.0678 54.0519C25.2209 55.2449 25.7868 56.3328 26.6537 57.1004C27.5205 57.868 28.6251 58.2592 29.7486 58.1966C30.8721 58.134 31.9327 57.6222 32.7204 56.7624C33.5081 55.9027 33.9655 54.7577 34.002 53.5542C34.0385 52.3506 33.6515 51.1763 32.9175 50.2637C32.1835 49.3511 31.1562 48.7667 30.0388 48.6263L29.5767 39.1116C31.3784 38.8455 33.0636 38.0053 34.4131 36.7001C35.7626 35.395 36.7139 33.6854 37.1433 31.7937L42.8036 32.7284C42.8178 33.6754 43.0931 34.5967 43.595 35.3766C44.0969 36.1566 44.803 36.7604 45.6245 37.1122C46.446 37.464 47.3463 37.5481 48.2123 37.354C49.0783 37.1599 49.8715 36.6962 50.492 36.0211C51.1126 35.3461 51.5329 34.4898 51.7003 33.5598C51.8676 32.6298 51.7744 31.6677 51.4324 30.7942C51.0905 29.9208 50.515 29.175 49.7782 28.6505C49.0415 28.126 48.1764 27.8463 47.2916 27.8464ZM21.4391 6.0049C21.4391 5.37452 21.6137 4.75829 21.941 4.23414C22.2682 3.71 22.7332 3.30148 23.2774 3.06024C23.8215 2.819 24.4203 2.75588 24.9979 2.87886C25.5756 3.00185 26.1062 3.3054 26.5226 3.75115C26.9391 4.1969 27.2227 4.76482 27.3376 5.3831C27.4525 6.00137 27.3935 6.64223 27.1681 7.22463C26.9428 7.80703 26.5611 8.30481 26.0714 8.65504C25.5817 9.00526 25.0059 9.19219 24.417 9.19219C23.6276 9.19073 22.871 8.85446 22.3128 8.25704C21.7546 7.65963 21.4405 6.84978 21.4391 6.0049ZM5.27959 22.8975C4.69074 22.8975 4.11512 22.7107 3.62547 22.3606C3.13583 22.0105 2.75414 21.5129 2.52867 20.9307C2.3032 20.3484 2.24406 19.7077 2.35873 19.0895C2.4734 18.4714 2.75673 17.9034 3.17291 17.4576C3.58908 17.0117 4.11942 16.7079 4.69688 16.5846C5.27434 16.4612 5.873 16.5239 6.41718 16.7647C6.96137 17.0055 7.42665 17.4135 7.7542 17.9372C8.08176 18.461 8.25689 19.0769 8.25745 19.7072C8.2567 20.5525 7.94281 21.3631 7.38459 21.9611C6.82638 22.5591 6.0694 22.8959 5.27959 22.8975ZM11.6585 40.9179C11.0697 40.9173 10.4942 40.7299 10.0049 40.3793C9.51556 40.0287 9.13432 39.5307 8.90937 38.9482C8.68442 38.3658 8.62586 37.725 8.74109 37.107C8.85631 36.4889 9.14015 35.9213 9.55673 35.4758C9.9733 35.0304 10.5039 34.7271 11.0815 34.6044C11.6591 34.4816 12.2577 34.5449 12.8016 34.7863C13.3456 35.0276 13.8105 35.4361 14.1376 35.9602C14.4647 36.4843 14.6392 37.1004 14.6392 37.7306C14.6377 38.576 14.3231 39.3862 13.7644 39.9837C13.2056 40.5812 12.4483 40.9171 11.6585 40.9179ZM46.2957 9.13335C46.8845 9.13335 47.4602 9.3202 47.9498 9.67029C48.4394 10.0204 48.8211 10.518 49.0466 11.1002C49.2721 11.6824 49.3312 12.3231 49.2165 12.9413C49.1019 13.5595 48.8185 14.1274 48.4024 14.5733C47.9862 15.0192 47.4559 15.323 46.8784 15.4463C46.3009 15.5696 45.7023 15.5069 45.1581 15.2662C44.6139 15.0254 44.1486 14.6174 43.8211 14.0936C43.4935 13.5699 43.3184 12.954 43.3178 12.3237C43.3186 11.4783 43.6325 10.6678 44.1907 10.0698C44.7489 9.47171 45.5059 9.13497 46.2957 9.13335ZM32.4956 53.3974C32.4956 54.0278 32.3209 54.644 31.9937 55.1681C31.6665 55.6923 31.2014 56.1008 30.6573 56.342C30.1131 56.5833 29.5144 56.6464 28.9367 56.5234C28.3591 56.4004 27.8285 56.0969 27.412 55.6511C26.9956 55.2054 26.712 54.6375 26.5971 54.0192C26.4822 53.4009 26.5411 52.76 26.7665 52.1776C26.9919 51.5952 27.3736 51.0975 27.8633 50.7472C28.353 50.397 28.9287 50.2101 29.5177 50.2101C30.3071 50.2115 31.0637 50.5478 31.6219 51.1452C32.18 51.7426 32.4942 52.5525 32.4956 53.3974ZM28.3558 37.5866C26.8661 37.5866 25.4099 37.1138 24.1714 36.228C22.9328 35.3422 21.9674 34.0832 21.3974 32.6102C20.8273 31.1372 20.6782 29.5163 20.9688 27.9525C21.2594 26.3888 21.9767 24.9524 23.03 23.825C24.0834 22.6976 25.4254 21.9298 26.8864 21.6187C28.3474 21.3077 29.8618 21.4673 31.238 22.0775C32.6143 22.6876 33.7906 23.7209 34.6181 25.0466C35.4457 26.3722 35.8875 27.9308 35.8875 29.5252C35.8852 31.6625 35.091 33.7115 33.679 35.2228C32.267 36.7341 30.3526 37.5842 28.3558 37.5866ZM47.2916 35.8416C46.7026 35.8416 46.1269 35.6546 45.6371 35.3044C45.1474 34.9542 44.7658 34.4564 44.5404 33.874C44.315 33.2916 44.256 32.6507 44.3709 32.0325C44.4858 31.4142 44.7694 30.8463 45.1859 30.4005C45.6023 29.9548 46.1329 29.6512 46.7106 29.5282C47.2882 29.4053 47.887 29.4684 48.4311 29.7096C48.9753 29.9509 49.4403 30.3594 49.7676 30.8835C50.0948 31.4077 50.2694 32.0239 50.2694 32.6543C50.2681 33.4992 49.9539 34.309 49.3957 34.9064C48.8376 35.5038 48.0809 35.8401 47.2916 35.8416Z" fill="#5801B7" stroke="#5801B7" stroke-width="0.791217"/>
</svg>
