<svg width="50" height="48" viewBox="0 0 50 48" fill="none" xmlns="http://www.w3.org/2000/svg">
<path d="M25.7756 7.66406C25.5399 7.66406 25.3138 7.75771 25.1471 7.92441C24.9804 8.09111 24.8867 8.3172 24.8867 8.55295V24.553L35.9089 31.273C36.0703 31.3657 36.2576 31.4032 36.4423 31.3796C36.6325 31.3754 36.8163 31.3103 36.9667 31.1938C37.1171 31.0774 37.2262 30.9157 37.2779 30.7327C37.3297 30.5496 37.3213 30.3548 37.2541 30.1769C37.1869 29.9989 37.0643 29.8472 36.9045 29.7441L26.6645 23.5574V8.55295C26.6645 8.3172 26.5708 8.09111 26.4041 7.92441C26.2374 7.75771 26.0114 7.66406 25.7756 7.66406Z" fill="#5801B7"/>
<path d="M15.4489 33.5647C15.4489 33.3289 15.3552 33.1028 15.1885 32.9361C15.0218 32.7694 14.7957 32.6758 14.56 32.6758H0.888889C0.653141 32.6758 0.427049 32.7694 0.26035 32.9361C0.0936505 33.1028 0 33.3289 0 33.5647C0 33.8004 0.0936505 34.0265 0.26035 34.1932C0.427049 34.3599 0.653141 34.4536 0.888889 34.4536H14.56C14.7943 34.449 15.0178 34.3539 15.1835 34.1882C15.3492 34.0225 15.4443 33.799 15.4489 33.5647Z" fill="black"/>
<path d="M17.2284 38.133C17.2284 37.8973 17.1348 37.6712 16.9681 37.5045C16.8014 37.3378 16.5753 37.2441 16.3395 37.2441H5.77951C5.54377 37.2441 5.31767 37.3378 5.15097 37.5045C4.98428 37.6712 4.89062 37.8973 4.89062 38.133C4.89518 38.3674 4.99029 38.5908 5.15601 38.7565C5.32173 38.9223 5.54519 39.0174 5.77951 39.0219H16.3395C16.5738 39.0174 16.7973 38.9223 16.963 38.7565C17.1287 38.5908 17.2239 38.3674 17.2284 38.133Z" fill="black"/>
<path d="M18.1161 41.8125H11.2717C11.036 41.8125 10.8099 41.9061 10.6432 42.0728C10.4765 42.2395 10.3828 42.4656 10.3828 42.7014C10.3828 42.9371 10.4765 43.1632 10.6432 43.3299C10.8099 43.4966 11.036 43.5903 11.2717 43.5903H18.1161C18.3519 43.5903 18.578 43.4966 18.7447 43.3299C18.9114 43.1632 19.005 42.9371 19.005 42.7014C19.005 42.4656 18.9114 42.2395 18.7447 42.0728C18.578 41.9061 18.3519 41.8125 18.1161 41.8125Z" fill="black"/>
<path d="M25.7779 0.0533337C22.2944 0.0558269 18.8531 0.816055 15.6928 2.28129C12.5324 3.74653 9.72857 5.8817 7.47577 8.53872C5.22297 11.1957 3.57511 14.311 2.64647 17.6685C1.71784 21.0259 1.53067 24.5452 2.09793 27.9822C2.13565 28.218 2.26548 28.4291 2.45885 28.5691C2.65222 28.7091 2.8933 28.7666 3.12904 28.7289C3.36479 28.6912 3.5759 28.5613 3.71593 28.368C3.85595 28.1746 3.91343 27.9335 3.87571 27.6978C3.68132 26.5224 3.58027 25.3335 3.57349 24.1422C3.55589 19.7426 4.84468 15.4367 7.27655 11.7702C9.70843 8.10375 13.1739 5.24166 17.234 3.54659C21.294 1.85153 25.7658 1.39979 30.0828 2.24861C34.3999 3.09744 38.3678 5.20863 41.4838 8.31467C44.5998 11.4207 46.7237 15.3818 47.5864 19.6961C48.4491 24.0104 48.0117 28.4836 46.3296 32.5491C44.6476 36.6145 41.7966 40.0892 38.138 42.5328C34.4793 44.9764 30.1776 46.279 25.7779 46.2756C23.9798 46.2602 22.1897 46.0335 20.4446 45.6C20.3325 45.5682 20.215 45.5597 20.0995 45.5751C19.9839 45.5904 19.8728 45.6293 19.7728 45.6893C19.6729 45.7492 19.5863 45.829 19.5184 45.9237C19.4504 46.0185 19.4026 46.1261 19.3779 46.24C19.3234 46.4685 19.3596 46.7092 19.479 46.9114C19.5983 47.1137 19.7916 47.2618 20.0179 47.3244C21.8874 47.7711 23.8026 47.9978 25.7246 48C32.0898 48 38.1943 45.4714 42.6952 40.9706C47.196 36.4697 49.7246 30.3652 49.7246 24C49.7246 17.6348 47.196 11.5303 42.6952 7.02944C38.1943 2.52856 32.0898 9.48488e-08 25.7246 0L25.7779 0.0533337Z" fill="black"/>
</svg>
