<svg width="17" height="18" viewBox="0 0 17 18" fill="none" xmlns="http://www.w3.org/2000/svg">
<path d="M14.125 5.90814H14.0891C13.9331 4.53505 13.2771 3.26742 12.2463 2.34705C11.2155 1.42667 9.88192 0.917969 8.5 0.917969C7.11808 0.917969 5.78452 1.42667 4.75369 2.34705C3.72286 3.26742 3.0669 4.53505 2.91094 5.90814H2.875C2.37772 5.90814 1.90081 6.10569 1.54917 6.45732C1.19754 6.80895 1 7.28586 1 7.78314V10.2831C1 10.7804 1.19754 11.2573 1.54917 11.609C1.90081 11.9606 2.37772 12.1581 2.875 12.1581H3.1875C3.27038 12.1581 3.34987 12.1252 3.40847 12.0666C3.46708 12.008 3.5 11.9285 3.5 11.8456V6.53314C3.5 5.20706 4.02678 3.93529 4.96447 2.99761C5.90215 2.05993 7.17392 1.53314 8.5 1.53314C9.82608 1.53314 11.0979 2.05993 12.0355 2.99761C12.9732 3.93529 13.5 5.20706 13.5 6.53314V11.8456C13.5 13.0081 12.3313 14.5175 10.3547 15.18C10.3021 14.8601 10.1378 14.5693 9.89082 14.3593C9.64389 14.1492 9.33042 14.0337 9.00625 14.0331H7.99375C7.63086 14.0336 7.28296 14.1779 7.02635 14.4345C6.76975 14.6911 6.62541 15.039 6.625 15.4019V15.7894C6.62541 16.1523 6.76975 16.5002 7.02635 16.7568C7.28296 17.0134 7.63086 17.1577 7.99375 17.1581H9.00625C9.36274 17.1579 9.7051 17.0187 9.96065 16.7701C10.2162 16.5216 10.3648 16.1832 10.375 15.8269C12.6328 15.1425 13.9266 13.5128 14.1031 12.1581H14.125C14.6223 12.1581 15.0992 11.9606 15.4508 11.609C15.8025 11.2573 16 10.7804 16 10.2831V7.78314C16 7.28586 15.8025 6.80895 15.4508 6.45732C15.0992 6.10569 14.6223 5.90814 14.125 5.90814ZM1.625 10.2831V7.78314C1.625 7.45162 1.7567 7.13368 1.99112 6.89926C2.22554 6.66484 2.54348 6.53314 2.875 6.53314V11.5331C2.54348 11.5331 2.22554 11.4014 1.99112 11.167C1.7567 10.9326 1.625 10.6147 1.625 10.2831ZM9.75 15.7894C9.74959 15.9865 9.6711 16.1755 9.5317 16.3148C9.39231 16.4542 9.20338 16.5327 9.00625 16.5331H7.99375C7.79662 16.5327 7.60769 16.4542 7.4683 16.3148C7.3289 16.1755 7.25041 15.9865 7.25 15.7894V15.4019C7.25041 15.2048 7.3289 15.0158 7.4683 14.8764C7.60769 14.737 7.79662 14.6586 7.99375 14.6581H9.00625C9.20338 14.6586 9.39231 14.737 9.5317 14.8764C9.6711 15.0158 9.74959 15.2048 9.75 15.4019V15.7894ZM15.375 10.2831C15.375 10.6147 15.2433 10.9326 15.0089 11.167C14.7745 11.4014 14.4565 11.5331 14.125 11.5331V6.53314C14.4565 6.53314 14.7745 6.66484 15.0089 6.89926C15.2433 7.13368 15.375 7.45162 15.375 7.78314V10.2831Z" fill="#5F5F5F" stroke="#5F5F5F" stroke-width="0.3"/>
<path d="M4.4375 6.0625C4.35462 6.0625 4.27513 6.09542 4.21653 6.15403C4.15792 6.21263 4.125 6.29212 4.125 6.375V11.8438C4.125 11.9266 4.15792 12.0061 4.21653 12.0647C4.27513 12.1233 4.35462 12.1562 4.4375 12.1562C4.52038 12.1562 4.59987 12.1233 4.65847 12.0647C4.71708 12.0061 4.75 11.9266 4.75 11.8438V6.375C4.75 6.29212 4.71708 6.21263 4.65847 6.15403C4.59987 6.09542 4.52038 6.0625 4.4375 6.0625Z" fill="#5F5F5F" stroke="#5F5F5F" stroke-width="0.3"/>
<path d="M12.875 11.8438V6.375C12.875 6.29212 12.8421 6.21263 12.7835 6.15403C12.7249 6.09542 12.6454 6.0625 12.5625 6.0625C12.4796 6.0625 12.4001 6.09542 12.3415 6.15403C12.2829 6.21263 12.25 6.29212 12.25 6.375V11.8438C12.25 11.9266 12.2829 12.0061 12.3415 12.0647C12.4001 12.1233 12.4796 12.1562 12.5625 12.1562C12.6454 12.1562 12.7249 12.1233 12.7835 12.0647C12.8421 12.0061 12.875 11.9266 12.875 11.8438Z" fill="#5F5F5F" stroke="#5F5F5F" stroke-width="0.3"/>
</svg>
