<svg width="30" height="29" viewBox="0 0 30 29" fill="none" xmlns="http://www.w3.org/2000/svg">
<path d="M9.68802 2.41602H19.838C23.7047 2.41602 26.8464 5.55768 26.8464 9.42435V19.5743C26.8464 21.4331 26.108 23.2157 24.7937 24.53C23.4793 25.8443 21.6967 26.5827 19.838 26.5827H9.68802C5.82135 26.5827 2.67969 23.441 2.67969 19.5743V9.42435C2.67969 7.56562 3.41806 5.78303 4.73238 4.46871C6.0467 3.15439 7.8293 2.41602 9.68802 2.41602M9.44635 4.83268C8.29266 4.83268 7.18622 5.29098 6.37044 6.10677C5.55466 6.92255 5.09635 8.02899 5.09635 9.18268V19.816C5.09635 22.2206 7.04177 24.166 9.44635 24.166H20.0797C21.2334 24.166 22.3398 23.7077 23.1556 22.8919C23.9714 22.0761 24.4297 20.9697 24.4297 19.816V9.18268C24.4297 6.7781 22.4843 4.83268 20.0797 4.83268H9.44635ZM21.1068 6.64518C21.5074 6.64518 21.8915 6.80431 22.1748 7.08757C22.4581 7.37083 22.6172 7.75501 22.6172 8.1556C22.6172 8.55619 22.4581 8.94037 22.1748 9.22362C21.8915 9.50688 21.5074 9.66602 21.1068 9.66602C20.7062 9.66602 20.322 9.50688 20.0387 9.22362C19.7555 8.94037 19.5964 8.55619 19.5964 8.1556C19.5964 7.75501 19.7555 7.37083 20.0387 7.08757C20.322 6.80431 20.7062 6.64518 21.1068 6.64518ZM14.763 8.45768C16.3654 8.45768 17.9021 9.09421 19.0351 10.2272C20.1682 11.3603 20.8047 12.897 20.8047 14.4993C20.8047 16.1017 20.1682 17.6384 19.0351 18.7715C17.9021 19.9045 16.3654 20.541 14.763 20.541C13.1607 20.541 11.6239 19.9045 10.4909 18.7715C9.35788 17.6384 8.72135 16.1017 8.72135 14.4993C8.72135 12.897 9.35788 11.3603 10.4909 10.2272C11.6239 9.09421 13.1607 8.45768 14.763 8.45768M14.763 10.8743C13.8016 10.8743 12.8796 11.2563 12.1998 11.9361C11.5199 12.6159 11.138 13.5379 11.138 14.4993C11.138 15.4608 11.5199 16.3828 12.1998 17.0626C12.8796 17.7424 13.8016 18.1243 14.763 18.1243C15.7244 18.1243 16.6465 17.7424 17.3263 17.0626C18.0061 16.3828 18.388 15.4608 18.388 14.4993C18.388 13.5379 18.0061 12.6159 17.3263 11.9361C16.6465 11.2563 15.7244 10.8743 14.763 10.8743Z" fill="#4D4D4D"/>
</svg>
