<svg width="27" height="27" viewBox="0 0 27 27" fill="none" xmlns="http://www.w3.org/2000/svg">
<path d="M1.72558 18.342H7.86066V20.6974L6.13835 20.6972C5.9089 20.6972 5.72339 20.8831 5.72339 21.1122C5.72339 21.3412 5.90909 21.5271 6.13835 21.5271H14.7976C14.7976 21.936 14.7966 25.4627 14.7968 25.2703C14.7968 25.9801 15.3744 26.5576 16.0839 26.5576H25.2709C25.9808 26.5576 26.5584 25.9801 26.5584 25.2703C26.5585 16.0589 26.5585 16.5343 26.5587 9.12124C26.5587 8.41187 25.9816 7.8347 25.272 7.8347H24.0936V1.72212C24.0936 0.772608 23.3191 0 22.3673 0H1.72593C0.774515 0 0 0.772608 0 1.72212V16.6201C0 17.5696 0.774515 18.3423 1.72593 18.3423L1.72558 18.342ZM0.829577 16.6198V15.4703H14.7974V17.512C14.839 17.512 14.3075 17.5101 1.72558 17.512C1.2317 17.512 0.829577 17.1118 0.829577 16.6198ZM25.7284 21.8985H15.6273V11.2419H25.7284V21.8985ZM8.69064 20.6973V18.3418H14.7974V20.6973H8.69064ZM25.7279 25.2704C25.7279 25.5226 25.5229 25.7278 25.2704 25.7278H16.0839C15.8319 25.7278 15.6267 25.5228 15.6267 25.2704V22.7293H25.7283L25.7279 25.2704ZM25.7285 9.12129V10.4078H15.6274V9.12129C15.6274 8.86969 15.8324 8.66469 16.0842 8.66469H25.2717C25.5233 8.66469 25.7285 8.86969 25.7285 9.12129H25.7285ZM1.72566 0.829836H22.367C22.8614 0.829836 23.2634 1.23008 23.2634 1.72202V7.83461H16.0841C15.3746 7.83461 14.7974 8.41178 14.7974 9.12115V14.6361H0.829612V1.72178C0.829612 1.22981 1.23177 0.829591 1.72562 0.829591L1.72566 0.829836Z" fill="#5801B7"/>
</svg>
