<svg width="119" height="119" viewBox="0 0 119 119" fill="none" xmlns="http://www.w3.org/2000/svg">
<path d="M118.755 59.2136C118.755 91.7524 92.3774 118.13 59.8386 118.13C27.2998 118.13 0.921875 91.7524 0.921875 59.2136C0.921875 26.6748 27.2998 0.296875 59.8386 0.296875C92.3774 0.296875 118.755 26.6748 118.755 59.2136Z" fill="#F6EDFF"/>
<path d="M90.362 64.1719C90.3621 64.1719 90.3621 64.1718 90.3621 64.1718C92.7214 63.2517 95.3728 64.4208 96.2964 66.7685L96.2993 66.768C96.7429 67.9061 96.7179 69.1542 96.2242 70.2757C95.7382 71.3983 94.8329 72.261 93.6948 72.7045L74.2744 80.2794C72.5689 80.9453 70.7583 81.278 68.9321 81.278C67.3333 81.278 65.7344 81.0265 64.1844 80.5153L64.1844 80.5152L48.9443 75.4866L48.9442 75.4866C47.2421 74.9245 45.416 74.9716 43.7861 75.6031L90.362 64.1719ZM90.362 64.1719L77.6342 69.1336C77.4758 67.5124 76.4893 66.0434 74.9757 65.3303L59.2551 57.9235L59.2549 57.9234C55.4269 56.1232 51.0213 55.9437 47.1806 57.4376L47.1804 57.4376L31.9908 63.3624L31.5429 62.2119C31.5429 62.2119 31.5429 62.2118 31.5429 62.2118C31.3906 61.8204 30.9462 61.6255 30.555 61.7776C30.555 61.7776 30.555 61.7776 30.555 61.7776L26.703 63.2749L26.7029 63.2749L26.6993 63.2764C26.5181 63.351 26.3679 63.4901 26.282 63.6726C26.1921 63.8637 26.1949 64.0733 26.2686 64.2628L26.2686 64.2629L32.9557 81.4148L32.9557 81.4148L32.9571 81.4183C33.0317 81.5995 33.1708 81.7496 33.3533 81.8355L33.3533 81.8356L33.3572 81.8373C33.4553 81.8809 33.5631 81.9026 33.6628 81.9026C33.7662 81.9026 33.8549 81.8792 33.9333 81.8498L33.9333 81.8498L33.9359 81.8488L37.7876 80.3436C37.7876 80.3436 37.7877 80.3435 37.7877 80.3435C38.1792 80.1913 38.3741 79.7469 38.222 79.3557L38.2219 79.3556L37.686 77.9807M90.362 64.1719L37.686 77.9807M37.686 77.9807L43.7857 75.6033L37.686 77.9807ZM76.2998 70.1637L76.1024 70.1306C76.3362 68.7355 75.5948 67.2949 74.3405 66.7015L76.2998 70.1637ZM76.2998 70.1637H76.2545L76.1027 70.1369C76.0574 70.3936 75.9821 70.6418 75.8771 70.8741C75.5696 71.5487 75.0394 72.055 74.3767 72.3156C73.6683 72.5912 72.8933 72.5619 72.1898 72.2252L72.1893 72.225L71.3805 71.8406L71.3797 71.8403L63.1412 67.9657C63.1408 67.9655 63.1404 67.9653 63.1399 67.9651C62.7785 67.7907 62.3452 67.934 62.1506 68.2799L62.1503 68.2804L61.3495 69.7138L61.3494 69.7137L61.3473 69.7177C61.251 69.8995 61.2297 70.1124 61.2833 70.3054L61.283 70.3055L61.2862 70.3151C61.3492 70.5039 61.4868 70.6784 61.6785 70.7689C61.6787 70.769 61.679 70.7692 61.6792 70.7693L66.3782 73.0184C66.3783 73.0185 66.3784 73.0185 66.3786 73.0186C67.1637 73.3986 67.9913 73.6056 68.8438 73.6388C69.5856 73.6706 70.3129 73.5718 71.0103 73.3418L71.5367 73.5874C71.537 73.5876 71.5373 73.5877 71.5376 73.5879C72.6279 74.1075 73.8302 74.1499 74.9309 73.7214L74.9311 73.7214C75.9655 73.3177 76.7972 72.5274 77.2669 71.4959L77.2849 71.4563V71.4494C77.375 71.2458 77.4538 71.029 77.5109 70.8088L90.9316 65.578L76.2998 70.1637ZM59.1697 58.1046C55.3897 56.3269 51.0411 56.1508 47.2531 57.6241L59.1697 58.1046ZM26.7755 63.4615C26.6394 63.5176 26.5272 63.6217 26.4632 63.7578C26.3991 63.8939 26.3991 64.0461 26.4552 64.1902L26.7755 63.4615ZM33.4385 81.6544C33.5106 81.6864 33.5907 81.7024 33.6628 81.7024C33.7349 81.7024 33.7989 81.6864 33.863 81.6624L37.7151 80.157L33.4385 81.6544ZM30.4016 63.4648L30.8494 64.6152L30.8495 64.6153L35.9989 77.8195L35.9989 77.8195L36.5349 79.1946L34.1048 80.1457L27.9716 64.4159L30.4016 63.4648ZM58.6199 59.2946L74.3403 66.7013L90.9319 65.5779C92.5038 64.969 94.2848 65.7443 94.893 67.3134C95.5022 68.8851 94.7268 70.6661 93.1574 71.2743L93.0853 71.3022L93.0772 71.3185L73.7285 78.8654C73.7285 78.8654 73.7285 78.8654 73.7284 78.8654C70.8736 79.9773 67.6541 80.0566 64.6703 79.0701L64.6702 79.07L49.4301 74.0414L49.4297 74.0412C48.4807 73.7304 47.4986 73.5749 46.5244 73.5749C45.4031 73.5749 44.2891 73.7794 43.248 74.1892C43.2479 74.1892 43.2478 74.1893 43.2477 74.1893L37.1482 76.5667L32.5525 64.7764L47.7423 58.8516C47.7423 58.8516 47.7423 58.8516 47.7423 58.8516C51.2454 57.4869 55.1123 57.6359 58.6197 59.2945L58.6199 59.2946ZM63.1212 69.6395L68.2542 72.0547C67.8393 71.9782 67.4302 71.8425 67.0336 71.6493L67.0324 71.6487L63.0607 69.7471L63.1212 69.6395Z" fill="#1D1D1D" stroke="#1D1D1D" stroke-width="0.400397"/>
<path d="M61.9318 69.6483L62.4218 69.1385C64.9411 70.0887 69.8819 72.0909 69.4899 72.4988C69.0979 72.9067 68.3268 72.6886 67.9902 72.5286L61.9318 69.6483Z" fill="#F6EDFF"/>
<path d="M79.5278 62.0649C86.6058 62.0649 92.3573 56.306 92.3573 49.2371C92.3573 42.168 86.5977 36.4092 79.5278 36.4092C72.4579 36.4092 66.6982 42.168 66.6982 49.2371C66.6982 56.3061 72.4579 62.0649 79.5278 62.0649ZM79.5278 37.9226C85.7679 37.9226 90.8358 42.9977 90.8358 49.229C90.8358 55.4603 85.7599 60.5355 79.5278 60.5355C73.2956 60.5355 68.2198 55.4603 68.2198 49.229C68.2198 42.9978 73.2956 37.9226 79.5278 37.9226Z" fill="#1D1D1D" stroke="#1D1D1D" stroke-width="0.400397"/>
<path d="M84.1872 44.6094V44.4893H84.0671H75.3364H75.2162V44.6094V45.21V45.3301H75.3364H78.6104C79.7891 45.3301 80.7483 46.0122 80.9819 46.8918H75.3364H75.2162V47.0119V47.6126V47.7327H75.3364H80.9819C80.7483 48.6124 79.789 49.2944 78.6104 49.2944H75.2578H74.9536L75.1757 49.5022L81.1658 55.1067L81.2383 55.1746L81.3186 55.1161L81.8641 54.7187L81.9816 54.6332L81.8755 54.5339L77.1743 50.1353H78.6104C80.2959 50.1353 81.7211 49.1078 81.9673 47.7327H84.0671H84.1872V47.6126V47.0119V46.8918H84.0671H81.9672C81.8583 46.2841 81.5177 45.7433 81.028 45.3301H84.0671H84.1872V45.21V44.6094Z" fill="#5801B7" stroke="#5801B7" stroke-width="0.240238"/>
</svg>
