<svg width="121" height="121" viewBox="0 0 121 121" fill="none" xmlns="http://www.w3.org/2000/svg">
<circle cx="60.4473" cy="60.4473" r="60.4473" fill="#F6EDFF"/>
<path fill-rule="evenodd" clip-rule="evenodd" d="M68.3307 69.1905C68.3307 68.533 67.7976 68 67.1402 68H52.8545C52.1971 68 51.6641 68.533 51.6641 69.1905C51.6641 69.8479 52.1971 70.3809 52.8545 70.3809H67.1402C67.7976 70.3809 68.3307 69.8479 68.3307 69.1905Z" fill="black"/>
<path fill-rule="evenodd" clip-rule="evenodd" d="M68.3307 76.1905C68.3307 75.533 67.7976 75 67.1402 75H52.8545C52.1971 75 51.6641 75.533 51.6641 76.1905C51.6641 76.8479 52.1971 77.3809 52.8545 77.3809H67.1402C67.7976 77.3809 68.3307 76.8479 68.3307 76.1905Z" fill="black"/>
<path fill-rule="evenodd" clip-rule="evenodd" d="M84.9999 43.3333C84.9999 38.7309 81.269 35 76.6666 35H43.3333C38.7309 35 35 38.7309 35 43.3333V55.2381C35 55.8954 35.533 56.4285 36.1905 56.4285C36.8479 56.4285 37.3809 55.8954 37.3809 55.2381V43.3333C37.3809 40.0459 40.0459 37.3809 43.3333 37.3809H76.6666C79.954 37.3809 82.619 40.0459 82.619 43.3333V76.6666C82.619 79.954 79.954 82.619 76.6666 82.619H63.5714C62.914 82.619 62.3809 83.1521 62.3809 83.8094C62.3809 84.4668 62.914 84.9999 63.5714 84.9999H76.6666C81.269 84.9999 84.9999 81.269 84.9999 76.6666V43.3333Z" fill="black"/>
<path fill-rule="evenodd" clip-rule="evenodd" d="M43.6561 61.1934C47.6489 61.1934 50.9312 64.5113 50.9312 68.6611C50.9312 71.2222 49.677 73.4744 47.773 74.8187C46.6011 75.646 45.1843 76.1284 43.6561 76.1284C39.6632 76.1284 36.3809 72.8106 36.3809 68.6611C36.3809 64.5113 39.6632 61.1934 43.6561 61.1934ZM53.3121 68.6611C53.3121 63.2473 49.014 58.8125 43.6561 58.8125C38.2981 58.8125 34 63.2473 34 68.6611C34 74.0749 38.2981 78.5094 43.6561 78.5094C45.2746 78.5094 46.801 78.1025 48.1406 77.3848L53.2721 84.5084C53.6564 85.0417 54.4005 85.1627 54.9339 84.7784C55.4674 84.3941 55.5884 83.6501 55.2041 83.1165L50.0845 76.0099C52.0673 74.2044 53.3121 71.5777 53.3121 68.6611Z" fill="#5801B7"/>
<path fill-rule="evenodd" clip-rule="evenodd" d="M68.3307 45.7139C68.3307 45.0564 67.7976 44.5234 67.1402 44.5234H52.8545C52.1971 44.5234 51.6641 45.0564 51.6641 45.7139C51.6641 46.3714 52.1971 46.9044 52.8545 46.9044H67.1402C67.7976 46.9044 68.3307 46.3714 68.3307 45.7139Z" fill="black"/>
<path fill-rule="evenodd" clip-rule="evenodd" d="M68.3307 54.1905C68.3307 53.533 67.7976 53 67.1402 53H52.8545C52.1971 53 51.6641 53.533 51.6641 54.1905C51.6641 54.8479 52.1971 55.3809 52.8545 55.3809H67.1402C67.7976 55.3809 68.3307 54.8479 68.3307 54.1905Z" fill="black"/>
<path fill-rule="evenodd" clip-rule="evenodd" d="M68.3307 61.1905C68.3307 60.533 67.7976 60 67.1402 60H52.8545C52.1971 60 51.6641 60.533 51.6641 61.1905C51.6641 61.8479 52.1971 62.3809 52.8545 62.3809H67.1402C67.7976 62.3809 68.3307 61.8479 68.3307 61.1905Z" fill="black"/>
</svg>
