<svg width="119" height="119" viewBox="0 0 119 119" fill="none" xmlns="http://www.w3.org/2000/svg">
<circle cx="59.6511" cy="59.2136" r="58.9167" fill="#F6EDFF"/>
<path fill-rule="evenodd" clip-rule="evenodd" d="M54.8812 37.5033L54.0722 51.8326C54.0722 53.4535 52.8201 54.7978 51.2052 54.9108C53.0938 55.0298 54.5481 56.6269 54.4886 58.5215C54.4292 60.413 52.8796 61.9179 50.9851 61.9179C49.0905 61.9179 47.541 60.413 47.4815 58.5215C47.422 56.6269 48.8763 55.0298 50.7649 54.9108C49.15 54.7948 47.8979 53.4535 47.8979 51.8326V51.8207L47.0889 37.4998C47.083 37.4403 47.077 37.3719 47.0711 37.2946C47.0651 37.1964 47.0621 37.1221 47.0621 37.0745C47.0324 36.0127 47.4339 34.9896 48.1715 34.2282C48.912 33.4698 49.9262 33.0415 50.985 33.0415C52.0438 33.0415 53.058 33.4698 53.7956 34.2282C54.5362 34.9896 54.9347 36.0127 54.9049 37.0745C54.9049 37.1221 54.9049 37.1964 54.896 37.2975C54.8901 37.3749 54.8871 37.4433 54.8782 37.5057L54.8812 37.5033ZM76.8182 60.3601C76.8182 59.8545 77.2257 59.444 77.7313 59.444C78.2339 59.444 78.6443 59.8545 78.6443 60.3601V68.9348C79.4027 69.2084 79.9975 69.8062 80.2682 70.5646C80.5389 71.323 80.4526 72.1647 80.0392 72.8547L83.4119 76.9888H83.4089C83.7182 77.3784 83.6558 77.9435 83.2691 78.2588C82.8855 78.571 82.3174 78.5175 81.9992 78.1338L78.6265 74.0057C77.2316 74.4845 75.7118 73.7529 75.218 72.364C74.7214 70.9751 75.4352 69.4464 76.8182 68.9348L76.8182 60.3601ZM77.7313 54.9382V54.9352C75.7267 54.9322 73.737 55.298 71.8633 56.0089L53.7538 24.6467C53.7448 24.6289 53.7359 24.614 53.727 24.5962C53.4623 24.1322 53.0846 23.7455 52.6295 23.466C52.6117 23.4541 52.5909 23.4422 52.573 23.4303H52.57C51.8444 23.005 50.9759 22.889 50.161 23.1091C49.346 23.3291 48.653 23.8675 48.2397 24.5991L37.2354 43.6634C37.2265 43.6783 37.2146 43.6931 37.2056 43.711L26.1686 62.8255C25.8891 63.3073 25.7403 63.8546 25.7374 64.4107H25.7344C25.7314 65.2554 26.0675 66.0644 26.6653 66.6592C27.2602 67.254 28.0721 67.5871 28.9138 67.5811H61.6594C60.5738 72.0632 61.4125 76.7954 63.9703 80.632C66.5252 84.4717 70.57 87.0681 75.1231 87.7937C79.6766 88.5194 84.3252 87.3119 87.9509 84.4597C91.5734 81.6075 93.8427 77.3723 94.2086 72.774C94.5714 68.1789 93.0011 63.6374 89.8723 60.25C86.7434 56.8626 82.3417 54.9351 77.7289 54.9351L77.7313 54.9382ZM62.212 65.7582C63.6514 61.862 66.4977 58.647 70.1943 56.7495L52.183 25.5533L52.1533 25.5057V25.5087C52.0462 25.3124 51.8886 25.1488 51.7012 25.0269L51.6625 25.0061C51.3532 24.8246 50.9815 24.7741 50.6335 24.8692C50.2885 24.9614 49.991 25.1905 49.8156 25.5057L38.8082 44.5731C38.7993 44.5909 38.7904 44.6087 38.7815 44.6236L27.7445 63.7382C27.6225 63.9404 27.5571 64.1754 27.5571 64.4103C27.5511 64.7732 27.6939 65.1182 27.9497 65.371C28.2055 65.6267 28.5505 65.7665 28.9133 65.7576L62.212 65.7582ZM88.1287 61.0679C84.8958 57.835 80.3421 56.2885 75.8095 56.8862C71.2769 57.4811 67.2797 60.1549 64.9925 64.1134C62.7054 68.072 62.3931 72.8694 64.1419 77.0928C65.8908 81.3191 69.5073 84.4865 73.9242 85.6705C78.3379 86.8542 83.0547 85.9174 86.6804 83.1336C90.3089 80.3498 92.4354 76.0373 92.4354 71.4661C92.4384 67.564 90.8887 63.8218 88.1287 61.0679ZM52.174 57.2223C51.6059 56.6543 50.7166 56.568 50.0504 57.0141C49.3842 57.4602 49.1255 58.3168 49.4318 59.0574C49.7381 59.7979 50.5262 60.2202 51.3144 60.0626C52.1026 59.908 52.6676 59.215 52.6676 58.4119C52.6706 57.9658 52.4922 57.5376 52.174 57.2223ZM52.2543 51.7826L53.0662 37.3962C53.0662 37.3695 53.0662 37.3427 53.0721 37.3189C53.0781 37.2713 53.0811 37.2297 53.084 37.197V37.075V37.078C53.084 35.9181 52.1442 34.9783 50.9843 34.9783C49.8274 34.9783 48.8875 35.9181 48.8875 37.078V37.2C48.8875 37.2327 48.8935 37.2713 48.8994 37.3189C48.8994 37.3368 48.8994 37.3516 48.9024 37.3695L49.7173 51.717C49.7232 51.7557 49.7232 51.7943 49.7262 51.833C49.7262 52.5319 50.2913 53.097 50.9872 53.097C51.6832 53.097 52.2482 52.5319 52.2482 51.833C52.2482 51.8181 52.2482 51.8003 52.2512 51.7824L52.2543 51.7826Z" fill="#1D1D1D"/>
<circle cx="51.2344" cy="58.5" r="2.55" stroke="#5801B7" stroke-width="1.9"/>
</svg>
