<svg width="119" height="119" viewBox="0 0 119 119" fill="none" xmlns="http://www.w3.org/2000/svg">
<circle cx="59.1042" cy="59.2136" r="58.9167" fill="#F6EDFF"/>
<path d="M58.6875 86.1C73.3623 86.1 85.2875 74.1579 85.2875 59.5C85.2875 44.842 73.3455 32.9 58.6875 32.9C44.0295 32.9 32.0875 44.842 32.0875 59.5C32.0875 74.158 44.0295 86.1 58.6875 86.1ZM58.6875 35.4358C71.9578 35.4358 82.7349 46.2296 82.7349 59.4832C82.7349 72.7368 71.9411 83.5306 58.6875 83.5306C45.4339 83.5306 34.6401 72.7368 34.6401 59.4832C34.6401 46.2296 45.4339 35.4358 58.6875 35.4358Z" fill="#1D1D1D" stroke="#1D1D1D" stroke-width="0.2"/>
<circle cx="76.6875" cy="77.5" r="6.5" fill="#F6EDFF" stroke="#1D1D1D" stroke-width="2"/>
<path d="M75.94 81.2475C76.0767 81.3842 76.2983 81.3842 76.435 81.2475L78.6624 79.0201C78.7991 78.8834 78.7991 78.6618 78.6624 78.5251C78.5257 78.3884 78.3041 78.3884 78.1674 78.5251L76.1875 80.505L74.2076 78.5251C74.0709 78.3884 73.8493 78.3884 73.7126 78.5251C73.5759 78.6618 73.5759 78.8834 73.7126 79.0201L75.94 81.2475ZM75.8375 74L75.8375 81L76.5375 81L76.5375 74L75.8375 74Z" fill="#5801B7"/>
<path d="M68.4375 50V49.75H68.1875H50.348H50.098V50V51.2694V51.5194H50.348H57.0378C59.4412 51.5194 61.4049 52.9598 61.8804 54.8277H50.348H50.098V55.0777V56.3471V56.5971H50.348H61.8804C61.4049 58.4649 59.4412 59.9053 57.0378 59.9053H50.1875H49.5697L50.0136 60.335L62.2531 72.1797L62.4067 72.3283L62.5774 72.1997L63.6921 71.3598L63.9256 71.1839L63.7155 70.9805L54.0996 61.6747H57.0378C60.4911 61.6747 63.4007 59.4973 63.9019 56.5971H68.1875H68.4375V56.3471V55.0777V54.8277H68.1875H63.9019C63.6793 53.541 62.9802 52.3946 61.9728 51.5194H68.1875H68.4375V51.2694V50Z" fill="#5801B7" stroke="#5801B7" stroke-width="0.5"/>
</svg>
