<svg width="119" height="118" viewBox="0 0 119 118" fill="none" xmlns="http://www.w3.org/2000/svg">
<path d="M118.302 58.9167C118.302 91.4556 91.9243 117.833 59.3855 117.833C26.8467 117.833 0.46875 91.4556 0.46875 58.9167C0.46875 26.3779 26.8467 0 59.3855 0C91.9243 0 118.302 26.3779 118.302 58.9167Z" fill="#F6EDFF"/>
<path d="M59.9525 76.6797L79.4899 76.6626H79.49C80.0184 76.6626 80.4466 77.0833 80.4468 77.6133L59.9525 76.6797ZM59.9525 76.6797V68.8602H79.3929H79.465L79.4708 68.8428C85.0452 68.8038 89.5687 64.2444 89.5687 58.6444C89.5687 54.3391 86.8272 50.4855 82.8213 49.0494C82.2402 43.8293 78.3061 39.6548 73.1441 38.793C71.4373 32.442 65.5827 27.9 58.9671 27.9C53.1005 27.9 47.7597 31.4608 45.4672 36.8317C39.2128 36.6844 33.5513 41.4601 32.7863 47.922C24.1492 54.8098 29.0238 68.8488 40.0893 68.8488H57.9818V76.6684L38.4157 76.6855L59.9525 76.6797ZM80.4637 82.709L80.4468 77.6137L38.4156 76.6855C37.8863 76.6855 37.4589 77.1129 37.4589 77.6422V82.7093C35.637 83.1535 34.2773 84.8022 34.2773 86.7642C34.2773 89.0641 36.1498 90.9368 38.4442 90.9368C40.7386 90.9368 42.6111 89.0641 42.6111 86.7642C42.6111 84.8019 41.2512 83.159 39.4296 82.7096V78.6333H57.9875V82.7093C56.1656 83.1535 54.806 84.8022 54.806 86.7642C54.806 89.0641 56.6785 90.9368 58.9728 90.9368C61.2672 90.9368 63.1397 89.0641 63.1397 86.7642C63.1397 84.8019 61.7798 83.159 59.9582 82.7096V78.6333H69.2314H78.5047V82.7093C76.6828 83.1535 75.3232 84.8022 75.3232 86.7642C75.3232 89.0641 77.1956 90.9368 79.49 90.9368C81.7844 90.9368 83.6569 89.0641 83.6569 86.7642C83.6569 84.7964 82.2915 83.1475 80.4637 82.709ZM34.654 48.5093L34.6541 48.5084C35.1294 42.81 40.172 38.3396 46.0337 38.7753L46.035 38.7754C46.4547 38.8008 46.8495 38.553 47.0026 38.1576L47.003 38.1563C48.8563 33.1689 53.6627 29.8193 58.9728 29.8193C64.9176 29.8193 70.1662 34.0419 71.4414 39.8622L71.4414 39.8625C71.5306 40.2637 71.8621 40.5638 72.2707 40.6085L72.2708 40.6085C77.0425 41.1286 80.7009 45.0069 80.9724 49.8251L80.9724 49.8257C80.9979 50.2333 81.2722 50.5778 81.667 50.6924L81.6673 50.6925C85.1943 51.7026 87.6609 54.9762 87.6609 58.6501C87.6609 63.2162 83.9583 66.9352 79.4044 66.9352H40.0893C30.6592 66.9352 26.6939 54.8181 34.2713 49.1973L34.2713 49.1972C34.4951 49.031 34.6286 48.7819 34.654 48.5093ZM81.7526 86.6585H81.7491V86.7585C81.7491 88.0057 80.737 89.0175 79.4958 89.0175C78.2545 89.0175 77.2424 88.0057 77.2424 86.7585C77.2424 85.5116 78.2824 84.483 79.523 84.4994L79.5234 84.4994C80.7099 84.5101 81.7002 85.4583 81.7526 86.6585ZM58.9728 89.0175C56.5179 89.0175 55.8335 85.6041 58.1255 84.6633C58.6723 84.4391 59.2791 84.4391 59.8259 84.6633C62.1179 85.6041 61.4336 89.0175 58.9786 89.0175H58.9728ZM38.4499 89.0175C35.9949 89.0175 35.3106 85.6041 37.6026 84.6633C38.1492 84.4392 38.7502 84.439 39.303 84.6633C41.595 85.6041 40.9107 89.0175 38.4557 89.0175H38.4499Z" fill="#1D1D1D" stroke="#393939" stroke-width="0.2"/>
<circle cx="58.9688" cy="86.5" r="3.25" stroke="#5801B7" stroke-width="2.5"/>
<circle cx="78.9688" cy="86.5" r="3.25" stroke="#5801B7" stroke-width="2.5"/>
<circle cx="38.9688" cy="86.5" r="3.25" stroke="#5801B7" stroke-width="2.5"/>
</svg>
