<svg width="20" height="21" viewBox="0 0 20 21" fill="none" xmlns="http://www.w3.org/2000/svg">
<mask id="path-1-outside-1_146_2827" maskUnits="userSpaceOnUse" x="0" y="0" width="20" height="21" fill="black">
<rect fill="white" width="20" height="21"/>
<path fill-rule="evenodd" clip-rule="evenodd" d="M6.67008 1.98953L6.66623 1.38721C6.66623 1.33957 6.67316 1.29425 6.68703 1.25122C6.70167 1.20666 6.72479 1.16518 6.75484 1.1283C6.7872 1.08835 6.82496 1.05762 6.86811 1.03534C6.91434 1.01153 6.96442 1 7.01682 1H9.21445C9.26608 1 9.31616 1.01152 9.3624 1.03534C9.40555 1.05762 9.44407 1.08835 9.47643 1.1283C9.50648 1.16518 9.5296 1.2059 9.54424 1.25122C9.55811 1.29348 9.56582 1.33957 9.56504 1.38721L9.56119 1.98953H11.3257C11.4297 1.98953 11.5222 2.03793 11.5869 2.11706C11.6432 2.18543 11.6778 2.27609 11.6778 2.37443V2.78853H14.243C14.5157 2.78853 14.7623 2.89916 14.9418 3.07741C15.1206 3.25564 15.2316 3.50226 15.2316 3.77423V10.6555H17.3197C17.4284 10.6555 17.5154 10.7431 17.5154 10.8506V15.2106H19.6036C19.7122 15.2106 19.7993 15.2981 19.7993 15.4057V19.9615C19.7993 20.0698 19.7115 20.1566 19.6036 20.1566L15.0375 20.1574H1.98861C1.71584 20.1574 1.46927 20.0468 1.28973 19.8685C1.11097 19.6903 1 19.4437 1 19.1717V3.77338C1 3.50141 1.11096 3.25557 1.28973 3.07655C1.46849 2.89832 1.71584 2.78768 1.98861 2.78768H4.55373V2.37358C4.55373 2.27601 4.5884 2.18458 4.64465 2.11621C4.70938 2.03784 4.80107 1.98868 4.90586 1.98868L6.67008 1.98953ZM11.9435 15.2106H12.5561V10.8507C12.5561 10.7424 12.6439 10.6556 12.7518 10.6556H14.84L14.8408 3.77353C14.8408 3.60989 14.7737 3.46162 14.6658 3.3533C14.558 3.24574 14.4085 3.1789 14.2444 3.1789H11.6792V3.5492L11.6754 3.57225L11.6746 3.57532L11.6661 3.62603L11.6631 3.63525L11.6615 3.63909C11.6607 3.64216 11.66 3.64447 11.6592 3.64754L11.6561 3.65522C11.6554 3.65753 11.6546 3.6606 11.653 3.66367L11.6438 3.68672C11.6423 3.69056 11.6399 3.6944 11.6384 3.69824C11.6361 3.70362 11.633 3.70823 11.6307 3.71361C11.6276 3.71976 11.6238 3.7259 11.6199 3.73205L11.6176 3.73589L11.613 3.7428L11.6037 3.75817L11.5991 3.76508L11.5899 3.77738L11.5714 3.80042L11.559 3.81272L11.5359 3.83115L11.5313 3.83039L11.5236 3.83653L11.4658 3.8711L11.462 3.87264L11.4065 3.89108L11.351 3.9003H11.3279L4.90541 3.90183H4.88229L4.82682 3.89262L4.77134 3.87418L4.76748 3.87264L4.76286 3.87034L4.71663 3.84268L4.71278 3.83884L4.70892 3.83653L4.6704 3.8058L4.66115 3.79658L4.64882 3.78122L4.64728 3.77815L4.6442 3.7743L4.63264 3.75894L4.62339 3.74511L4.62108 3.74127L4.61646 3.73435C4.61338 3.72974 4.61107 3.72437 4.60798 3.71976L4.60413 3.71207L4.59951 3.70439L4.59643 3.69671C4.59488 3.6944 4.59411 3.69133 4.59257 3.68903L4.58949 3.68134L4.58564 3.67673L4.56869 3.63448L4.56715 3.62987C4.56638 3.6268 4.5656 3.62449 4.56483 3.62142L4.5656 3.61451L4.55328 3.54075V3.17891H1.98816C1.82403 3.17891 1.67533 3.24575 1.56668 3.3533C1.4588 3.46086 1.39177 3.60991 1.39177 3.77354V19.1719C1.39177 19.3355 1.4588 19.4838 1.56668 19.5921C1.67455 19.6997 1.82404 19.7665 1.98816 19.7665H10.2713V15.4058C10.2713 15.2975 10.3592 15.2107 10.4671 15.2107L11.9435 15.2106ZM13.7574 15.6017V16.8547C13.7574 17.0022 13.6973 17.1367 13.5994 17.2335C13.5023 17.3303 13.3675 17.391 13.2195 17.391H12.2849C12.1369 17.391 12.0021 17.3311 11.905 17.2335C11.8079 17.1367 11.747 17.0022 11.747 16.8547V15.6017H10.6637V19.7665H14.8408V15.6017H13.7574ZM12.1392 15.6017V16.8547C12.1392 16.8947 12.1554 16.9308 12.1824 16.9569C12.2086 16.983 12.2456 16.9999 12.2849 16.9999H13.2195C13.2596 16.9999 13.2958 16.9838 13.322 16.9569C13.3482 16.9308 13.3652 16.8939 13.3652 16.8547V15.6017H12.1392ZM18.3266 15.6017V16.8547C18.3266 17.0022 18.2665 17.1367 18.1686 17.2335C18.0715 17.3303 17.9367 17.391 17.7888 17.391H16.8541C16.7061 17.391 16.5713 17.3311 16.4742 17.2335C16.3771 17.1367 16.3163 17.0022 16.3163 16.8547V15.6017H15.2329V19.7665H19.41V15.6017H18.3266ZM16.7085 15.6017V16.8547C16.7085 16.8947 16.7247 16.9308 16.7516 16.9569C16.7778 16.983 16.8148 16.9999 16.8541 16.9999H17.7888C17.8288 16.9999 17.865 16.9838 17.8912 16.9569C17.9174 16.9308 17.9344 16.8939 17.9344 16.8547V15.6017H16.7085ZM16.042 11.0459V12.2989C16.042 12.4465 15.9819 12.5809 15.884 12.6777C15.7869 12.7745 15.6521 12.8352 15.5041 12.8352H14.5695C14.4215 12.8352 14.2867 12.7753 14.1896 12.6777C14.0925 12.5809 14.0316 12.4465 14.0316 12.2989V11.0459H12.9483V15.2107H17.1246L17.1253 11.0459H16.042ZM14.4238 11.0459V12.2989C14.4238 12.3389 14.44 12.375 14.467 12.4011C14.4932 12.4272 14.5302 12.4441 14.5695 12.4441H15.5041C15.5442 12.4441 15.5804 12.428 15.6066 12.4011C15.6328 12.375 15.6498 12.3381 15.6498 12.2989V11.0459H14.4238ZM3.73434 13.3185L3.18573 14.0737L2.87751 13.7679C2.80123 13.6919 2.67718 13.6926 2.6009 13.7687C2.52462 13.8447 2.52539 13.9684 2.60167 14.0445L3.06477 14.5039C3.07402 14.5139 3.08403 14.5231 3.09559 14.5316C3.18343 14.5945 3.30595 14.5753 3.36913 14.4878L4.05181 13.5482C4.11499 13.4606 4.09573 13.3384 4.00789 13.2755C3.92005 13.2117 3.79752 13.2317 3.73434 13.3185ZM3.68887 9.69297L3.14026 10.4482L2.83205 10.1424C2.75577 10.0663 2.63172 10.0671 2.55544 10.1432C2.47916 10.2192 2.47993 10.3429 2.55621 10.419L3.01931 10.8784C3.02855 10.8884 3.03857 10.8976 3.05013 10.906C3.13797 10.969 3.26048 10.9498 3.32367 10.8622L4.00635 9.92266C4.06953 9.83508 4.05027 9.71293 3.96243 9.64993C3.87459 9.58617 3.75205 9.60539 3.68887 9.69297ZM9.00256 14.4155H5.56143C5.45278 14.4155 5.36571 14.5031 5.36571 14.6107C5.36571 14.719 5.45355 14.8058 5.56143 14.8058H9.00256C9.11121 14.8058 9.19828 14.7182 9.19828 14.6107C9.19905 14.5031 9.11121 14.4155 9.00256 14.4155ZM10.7879 12.9996H5.56139C5.45274 12.9996 5.36567 13.0872 5.36567 13.1948C5.36567 13.3031 5.45351 13.3899 5.56139 13.3899H10.7879C10.8965 13.3899 10.9836 13.3023 10.9836 13.1948C10.9836 13.0872 10.8958 12.9996 10.7879 12.9996ZM9.00256 10.7902H5.56143C5.45278 10.7902 5.36571 10.8778 5.36571 10.9853C5.36571 11.0937 5.45355 11.1805 5.56143 11.1805H9.00256C9.11121 11.1805 9.19828 11.0929 9.19828 10.9853C9.19905 10.8778 9.11121 10.7902 9.00256 10.7902ZM10.7879 9.37351H5.56139C5.45274 9.37351 5.36567 9.46109 5.36567 9.56865C5.36567 9.67698 5.45351 9.76379 5.56139 9.76379H10.7879C10.8965 9.76379 10.9836 9.67621 10.9836 9.56865C10.9836 9.46109 10.8958 9.37351 10.7879 9.37351ZM9.00256 7.16406H5.56143C5.45278 7.16406 5.36571 7.25164 5.36571 7.3592C5.36571 7.46752 5.45355 7.55434 5.56143 7.55434H9.00256C9.11121 7.55434 9.19828 7.46676 9.19828 7.3592C9.19905 7.25164 9.11121 7.16406 9.00256 7.16406ZM10.7879 5.74815H5.56139C5.45274 5.74815 5.36567 5.83573 5.36567 5.94329C5.36567 6.05162 5.45351 6.13843 5.56139 6.13843H10.7879C10.8965 6.13843 10.9836 6.05085 10.9836 5.94329C10.9836 5.83573 10.8958 5.74815 10.7879 5.74815ZM3.87228 6.06698L3.32367 6.82218L3.01546 6.51641C2.93918 6.44035 2.81513 6.44112 2.73885 6.51718C2.66257 6.59323 2.66334 6.71692 2.73962 6.79297L3.20272 7.25239C3.21196 7.26238 3.22198 7.27159 3.23354 7.28004C3.32138 7.34304 3.44389 7.32384 3.50707 7.23625L4.18976 6.29667C4.25294 6.20909 4.23368 6.08694 4.14584 6.02394C4.05877 5.96095 3.93623 5.98017 3.87228 6.06698ZM7.05698 1.39142L7.06084 1.99373C7.06084 2.04137 7.0539 2.0867 7.04003 2.12972C7.02539 2.17428 7.00228 2.21576 6.97223 2.25264C6.93986 2.29259 6.90134 2.32409 6.85819 2.3456C6.81118 2.36942 6.76187 2.38094 6.71024 2.38094H4.94573V3.51106H11.2865V2.38094H9.52201C9.47039 2.38094 9.4203 2.36942 9.37407 2.3456C9.33092 2.32332 9.29317 2.29259 9.26003 2.25264C9.22998 2.21576 9.20687 2.17505 9.19223 2.12972C9.17836 2.08746 9.17065 2.04137 9.17142 1.99373L9.17528 1.39142H7.05698Z"/>
</mask>
<path fill-rule="evenodd" clip-rule="evenodd" d="M6.67008 1.98953L6.66623 1.38721C6.66623 1.33957 6.67316 1.29425 6.68703 1.25122C6.70167 1.20666 6.72479 1.16518 6.75484 1.1283C6.7872 1.08835 6.82496 1.05762 6.86811 1.03534C6.91434 1.01153 6.96442 1 7.01682 1H9.21445C9.26608 1 9.31616 1.01152 9.3624 1.03534C9.40555 1.05762 9.44407 1.08835 9.47643 1.1283C9.50648 1.16518 9.5296 1.2059 9.54424 1.25122C9.55811 1.29348 9.56582 1.33957 9.56504 1.38721L9.56119 1.98953H11.3257C11.4297 1.98953 11.5222 2.03793 11.5869 2.11706C11.6432 2.18543 11.6778 2.27609 11.6778 2.37443V2.78853H14.243C14.5157 2.78853 14.7623 2.89916 14.9418 3.07741C15.1206 3.25564 15.2316 3.50226 15.2316 3.77423V10.6555H17.3197C17.4284 10.6555 17.5154 10.7431 17.5154 10.8506V15.2106H19.6036C19.7122 15.2106 19.7993 15.2981 19.7993 15.4057V19.9615C19.7993 20.0698 19.7115 20.1566 19.6036 20.1566L15.0375 20.1574H1.98861C1.71584 20.1574 1.46927 20.0468 1.28973 19.8685C1.11097 19.6903 1 19.4437 1 19.1717V3.77338C1 3.50141 1.11096 3.25557 1.28973 3.07655C1.46849 2.89832 1.71584 2.78768 1.98861 2.78768H4.55373V2.37358C4.55373 2.27601 4.5884 2.18458 4.64465 2.11621C4.70938 2.03784 4.80107 1.98868 4.90586 1.98868L6.67008 1.98953ZM11.9435 15.2106H12.5561V10.8507C12.5561 10.7424 12.6439 10.6556 12.7518 10.6556H14.84L14.8408 3.77353C14.8408 3.60989 14.7737 3.46162 14.6658 3.3533C14.558 3.24574 14.4085 3.1789 14.2444 3.1789H11.6792V3.5492L11.6754 3.57225L11.6746 3.57532L11.6661 3.62603L11.6631 3.63525L11.6615 3.63909C11.6607 3.64216 11.66 3.64447 11.6592 3.64754L11.6561 3.65522C11.6554 3.65753 11.6546 3.6606 11.653 3.66367L11.6438 3.68672C11.6423 3.69056 11.6399 3.6944 11.6384 3.69824C11.6361 3.70362 11.633 3.70823 11.6307 3.71361C11.6276 3.71976 11.6238 3.7259 11.6199 3.73205L11.6176 3.73589L11.613 3.7428L11.6037 3.75817L11.5991 3.76508L11.5899 3.77738L11.5714 3.80042L11.559 3.81272L11.5359 3.83115L11.5313 3.83039L11.5236 3.83653L11.4658 3.8711L11.462 3.87264L11.4065 3.89108L11.351 3.9003H11.3279L4.90541 3.90183H4.88229L4.82682 3.89262L4.77134 3.87418L4.76748 3.87264L4.76286 3.87034L4.71663 3.84268L4.71278 3.83884L4.70892 3.83653L4.6704 3.8058L4.66115 3.79658L4.64882 3.78122L4.64728 3.77815L4.6442 3.7743L4.63264 3.75894L4.62339 3.74511L4.62108 3.74127L4.61646 3.73435C4.61338 3.72974 4.61107 3.72437 4.60798 3.71976L4.60413 3.71207L4.59951 3.70439L4.59643 3.69671C4.59488 3.6944 4.59411 3.69133 4.59257 3.68903L4.58949 3.68134L4.58564 3.67673L4.56869 3.63448L4.56715 3.62987C4.56638 3.6268 4.5656 3.62449 4.56483 3.62142L4.5656 3.61451L4.55328 3.54075V3.17891H1.98816C1.82403 3.17891 1.67533 3.24575 1.56668 3.3533C1.4588 3.46086 1.39177 3.60991 1.39177 3.77354V19.1719C1.39177 19.3355 1.4588 19.4838 1.56668 19.5921C1.67455 19.6997 1.82404 19.7665 1.98816 19.7665H10.2713V15.4058C10.2713 15.2975 10.3592 15.2107 10.4671 15.2107L11.9435 15.2106ZM13.7574 15.6017V16.8547C13.7574 17.0022 13.6973 17.1367 13.5994 17.2335C13.5023 17.3303 13.3675 17.391 13.2195 17.391H12.2849C12.1369 17.391 12.0021 17.3311 11.905 17.2335C11.8079 17.1367 11.747 17.0022 11.747 16.8547V15.6017H10.6637V19.7665H14.8408V15.6017H13.7574ZM12.1392 15.6017V16.8547C12.1392 16.8947 12.1554 16.9308 12.1824 16.9569C12.2086 16.983 12.2456 16.9999 12.2849 16.9999H13.2195C13.2596 16.9999 13.2958 16.9838 13.322 16.9569C13.3482 16.9308 13.3652 16.8939 13.3652 16.8547V15.6017H12.1392ZM18.3266 15.6017V16.8547C18.3266 17.0022 18.2665 17.1367 18.1686 17.2335C18.0715 17.3303 17.9367 17.391 17.7888 17.391H16.8541C16.7061 17.391 16.5713 17.3311 16.4742 17.2335C16.3771 17.1367 16.3163 17.0022 16.3163 16.8547V15.6017H15.2329V19.7665H19.41V15.6017H18.3266ZM16.7085 15.6017V16.8547C16.7085 16.8947 16.7247 16.9308 16.7516 16.9569C16.7778 16.983 16.8148 16.9999 16.8541 16.9999H17.7888C17.8288 16.9999 17.865 16.9838 17.8912 16.9569C17.9174 16.9308 17.9344 16.8939 17.9344 16.8547V15.6017H16.7085ZM16.042 11.0459V12.2989C16.042 12.4465 15.9819 12.5809 15.884 12.6777C15.7869 12.7745 15.6521 12.8352 15.5041 12.8352H14.5695C14.4215 12.8352 14.2867 12.7753 14.1896 12.6777C14.0925 12.5809 14.0316 12.4465 14.0316 12.2989V11.0459H12.9483V15.2107H17.1246L17.1253 11.0459H16.042ZM14.4238 11.0459V12.2989C14.4238 12.3389 14.44 12.375 14.467 12.4011C14.4932 12.4272 14.5302 12.4441 14.5695 12.4441H15.5041C15.5442 12.4441 15.5804 12.428 15.6066 12.4011C15.6328 12.375 15.6498 12.3381 15.6498 12.2989V11.0459H14.4238ZM3.73434 13.3185L3.18573 14.0737L2.87751 13.7679C2.80123 13.6919 2.67718 13.6926 2.6009 13.7687C2.52462 13.8447 2.52539 13.9684 2.60167 14.0445L3.06477 14.5039C3.07402 14.5139 3.08403 14.5231 3.09559 14.5316C3.18343 14.5945 3.30595 14.5753 3.36913 14.4878L4.05181 13.5482C4.11499 13.4606 4.09573 13.3384 4.00789 13.2755C3.92005 13.2117 3.79752 13.2317 3.73434 13.3185ZM3.68887 9.69297L3.14026 10.4482L2.83205 10.1424C2.75577 10.0663 2.63172 10.0671 2.55544 10.1432C2.47916 10.2192 2.47993 10.3429 2.55621 10.419L3.01931 10.8784C3.02855 10.8884 3.03857 10.8976 3.05013 10.906C3.13797 10.969 3.26048 10.9498 3.32367 10.8622L4.00635 9.92266C4.06953 9.83508 4.05027 9.71293 3.96243 9.64993C3.87459 9.58617 3.75205 9.60539 3.68887 9.69297ZM9.00256 14.4155H5.56143C5.45278 14.4155 5.36571 14.5031 5.36571 14.6107C5.36571 14.719 5.45355 14.8058 5.56143 14.8058H9.00256C9.11121 14.8058 9.19828 14.7182 9.19828 14.6107C9.19905 14.5031 9.11121 14.4155 9.00256 14.4155ZM10.7879 12.9996H5.56139C5.45274 12.9996 5.36567 13.0872 5.36567 13.1948C5.36567 13.3031 5.45351 13.3899 5.56139 13.3899H10.7879C10.8965 13.3899 10.9836 13.3023 10.9836 13.1948C10.9836 13.0872 10.8958 12.9996 10.7879 12.9996ZM9.00256 10.7902H5.56143C5.45278 10.7902 5.36571 10.8778 5.36571 10.9853C5.36571 11.0937 5.45355 11.1805 5.56143 11.1805H9.00256C9.11121 11.1805 9.19828 11.0929 9.19828 10.9853C9.19905 10.8778 9.11121 10.7902 9.00256 10.7902ZM10.7879 9.37351H5.56139C5.45274 9.37351 5.36567 9.46109 5.36567 9.56865C5.36567 9.67698 5.45351 9.76379 5.56139 9.76379H10.7879C10.8965 9.76379 10.9836 9.67621 10.9836 9.56865C10.9836 9.46109 10.8958 9.37351 10.7879 9.37351ZM9.00256 7.16406H5.56143C5.45278 7.16406 5.36571 7.25164 5.36571 7.3592C5.36571 7.46752 5.45355 7.55434 5.56143 7.55434H9.00256C9.11121 7.55434 9.19828 7.46676 9.19828 7.3592C9.19905 7.25164 9.11121 7.16406 9.00256 7.16406ZM10.7879 5.74815H5.56139C5.45274 5.74815 5.36567 5.83573 5.36567 5.94329C5.36567 6.05162 5.45351 6.13843 5.56139 6.13843H10.7879C10.8965 6.13843 10.9836 6.05085 10.9836 5.94329C10.9836 5.83573 10.8958 5.74815 10.7879 5.74815ZM3.87228 6.06698L3.32367 6.82218L3.01546 6.51641C2.93918 6.44035 2.81513 6.44112 2.73885 6.51718C2.66257 6.59323 2.66334 6.71692 2.73962 6.79297L3.20272 7.25239C3.21196 7.26238 3.22198 7.27159 3.23354 7.28004C3.32138 7.34304 3.44389 7.32384 3.50707 7.23625L4.18976 6.29667C4.25294 6.20909 4.23368 6.08694 4.14584 6.02394C4.05877 5.96095 3.93623 5.98017 3.87228 6.06698ZM7.05698 1.39142L7.06084 1.99373C7.06084 2.04137 7.0539 2.0867 7.04003 2.12972C7.02539 2.17428 7.00228 2.21576 6.97223 2.25264C6.93986 2.29259 6.90134 2.32409 6.85819 2.3456C6.81118 2.36942 6.76187 2.38094 6.71024 2.38094H4.94573V3.51106H11.2865V2.38094H9.52201C9.47039 2.38094 9.4203 2.36942 9.37407 2.3456C9.33092 2.32332 9.29317 2.29259 9.26003 2.25264C9.22998 2.21576 9.20687 2.17505 9.19223 2.12972C9.17836 2.08746 9.17065 2.04137 9.17142 1.99373L9.17528 1.39142H7.05698Z" fill="#5F5F5F"/>
<path fill-rule="evenodd" clip-rule="evenodd" d="M6.67008 1.98953L6.66623 1.38721C6.66623 1.33957 6.67316 1.29425 6.68703 1.25122C6.70167 1.20666 6.72479 1.16518 6.75484 1.1283C6.7872 1.08835 6.82496 1.05762 6.86811 1.03534C6.91434 1.01153 6.96442 1 7.01682 1H9.21445C9.26608 1 9.31616 1.01152 9.3624 1.03534C9.40555 1.05762 9.44407 1.08835 9.47643 1.1283C9.50648 1.16518 9.5296 1.2059 9.54424 1.25122C9.55811 1.29348 9.56582 1.33957 9.56504 1.38721L9.56119 1.98953H11.3257C11.4297 1.98953 11.5222 2.03793 11.5869 2.11706C11.6432 2.18543 11.6778 2.27609 11.6778 2.37443V2.78853H14.243C14.5157 2.78853 14.7623 2.89916 14.9418 3.07741C15.1206 3.25564 15.2316 3.50226 15.2316 3.77423V10.6555H17.3197C17.4284 10.6555 17.5154 10.7431 17.5154 10.8506V15.2106H19.6036C19.7122 15.2106 19.7993 15.2981 19.7993 15.4057V19.9615C19.7993 20.0698 19.7115 20.1566 19.6036 20.1566L15.0375 20.1574H1.98861C1.71584 20.1574 1.46927 20.0468 1.28973 19.8685C1.11097 19.6903 1 19.4437 1 19.1717V3.77338C1 3.50141 1.11096 3.25557 1.28973 3.07655C1.46849 2.89832 1.71584 2.78768 1.98861 2.78768H4.55373V2.37358C4.55373 2.27601 4.5884 2.18458 4.64465 2.11621C4.70938 2.03784 4.80107 1.98868 4.90586 1.98868L6.67008 1.98953ZM11.9435 15.2106H12.5561V10.8507C12.5561 10.7424 12.6439 10.6556 12.7518 10.6556H14.84L14.8408 3.77353C14.8408 3.60989 14.7737 3.46162 14.6658 3.3533C14.558 3.24574 14.4085 3.1789 14.2444 3.1789H11.6792V3.5492L11.6754 3.57225L11.6746 3.57532L11.6661 3.62603L11.6631 3.63525L11.6615 3.63909C11.6607 3.64216 11.66 3.64447 11.6592 3.64754L11.6561 3.65522C11.6554 3.65753 11.6546 3.6606 11.653 3.66367L11.6438 3.68672C11.6423 3.69056 11.6399 3.6944 11.6384 3.69824C11.6361 3.70362 11.633 3.70823 11.6307 3.71361C11.6276 3.71976 11.6238 3.7259 11.6199 3.73205L11.6176 3.73589L11.613 3.7428L11.6037 3.75817L11.5991 3.76508L11.5899 3.77738L11.5714 3.80042L11.559 3.81272L11.5359 3.83115L11.5313 3.83039L11.5236 3.83653L11.4658 3.8711L11.462 3.87264L11.4065 3.89108L11.351 3.9003H11.3279L4.90541 3.90183H4.88229L4.82682 3.89262L4.77134 3.87418L4.76748 3.87264L4.76286 3.87034L4.71663 3.84268L4.71278 3.83884L4.70892 3.83653L4.6704 3.8058L4.66115 3.79658L4.64882 3.78122L4.64728 3.77815L4.6442 3.7743L4.63264 3.75894L4.62339 3.74511L4.62108 3.74127L4.61646 3.73435C4.61338 3.72974 4.61107 3.72437 4.60798 3.71976L4.60413 3.71207L4.59951 3.70439L4.59643 3.69671C4.59488 3.6944 4.59411 3.69133 4.59257 3.68903L4.58949 3.68134L4.58564 3.67673L4.56869 3.63448L4.56715 3.62987C4.56638 3.6268 4.5656 3.62449 4.56483 3.62142L4.5656 3.61451L4.55328 3.54075V3.17891H1.98816C1.82403 3.17891 1.67533 3.24575 1.56668 3.3533C1.4588 3.46086 1.39177 3.60991 1.39177 3.77354V19.1719C1.39177 19.3355 1.4588 19.4838 1.56668 19.5921C1.67455 19.6997 1.82404 19.7665 1.98816 19.7665H10.2713V15.4058C10.2713 15.2975 10.3592 15.2107 10.4671 15.2107L11.9435 15.2106ZM13.7574 15.6017V16.8547C13.7574 17.0022 13.6973 17.1367 13.5994 17.2335C13.5023 17.3303 13.3675 17.391 13.2195 17.391H12.2849C12.1369 17.391 12.0021 17.3311 11.905 17.2335C11.8079 17.1367 11.747 17.0022 11.747 16.8547V15.6017H10.6637V19.7665H14.8408V15.6017H13.7574ZM12.1392 15.6017V16.8547C12.1392 16.8947 12.1554 16.9308 12.1824 16.9569C12.2086 16.983 12.2456 16.9999 12.2849 16.9999H13.2195C13.2596 16.9999 13.2958 16.9838 13.322 16.9569C13.3482 16.9308 13.3652 16.8939 13.3652 16.8547V15.6017H12.1392ZM18.3266 15.6017V16.8547C18.3266 17.0022 18.2665 17.1367 18.1686 17.2335C18.0715 17.3303 17.9367 17.391 17.7888 17.391H16.8541C16.7061 17.391 16.5713 17.3311 16.4742 17.2335C16.3771 17.1367 16.3163 17.0022 16.3163 16.8547V15.6017H15.2329V19.7665H19.41V15.6017H18.3266ZM16.7085 15.6017V16.8547C16.7085 16.8947 16.7247 16.9308 16.7516 16.9569C16.7778 16.983 16.8148 16.9999 16.8541 16.9999H17.7888C17.8288 16.9999 17.865 16.9838 17.8912 16.9569C17.9174 16.9308 17.9344 16.8939 17.9344 16.8547V15.6017H16.7085ZM16.042 11.0459V12.2989C16.042 12.4465 15.9819 12.5809 15.884 12.6777C15.7869 12.7745 15.6521 12.8352 15.5041 12.8352H14.5695C14.4215 12.8352 14.2867 12.7753 14.1896 12.6777C14.0925 12.5809 14.0316 12.4465 14.0316 12.2989V11.0459H12.9483V15.2107H17.1246L17.1253 11.0459H16.042ZM14.4238 11.0459V12.2989C14.4238 12.3389 14.44 12.375 14.467 12.4011C14.4932 12.4272 14.5302 12.4441 14.5695 12.4441H15.5041C15.5442 12.4441 15.5804 12.428 15.6066 12.4011C15.6328 12.375 15.6498 12.3381 15.6498 12.2989V11.0459H14.4238ZM3.73434 13.3185L3.18573 14.0737L2.87751 13.7679C2.80123 13.6919 2.67718 13.6926 2.6009 13.7687C2.52462 13.8447 2.52539 13.9684 2.60167 14.0445L3.06477 14.5039C3.07402 14.5139 3.08403 14.5231 3.09559 14.5316C3.18343 14.5945 3.30595 14.5753 3.36913 14.4878L4.05181 13.5482C4.11499 13.4606 4.09573 13.3384 4.00789 13.2755C3.92005 13.2117 3.79752 13.2317 3.73434 13.3185ZM3.68887 9.69297L3.14026 10.4482L2.83205 10.1424C2.75577 10.0663 2.63172 10.0671 2.55544 10.1432C2.47916 10.2192 2.47993 10.3429 2.55621 10.419L3.01931 10.8784C3.02855 10.8884 3.03857 10.8976 3.05013 10.906C3.13797 10.969 3.26048 10.9498 3.32367 10.8622L4.00635 9.92266C4.06953 9.83508 4.05027 9.71293 3.96243 9.64993C3.87459 9.58617 3.75205 9.60539 3.68887 9.69297ZM9.00256 14.4155H5.56143C5.45278 14.4155 5.36571 14.5031 5.36571 14.6107C5.36571 14.719 5.45355 14.8058 5.56143 14.8058H9.00256C9.11121 14.8058 9.19828 14.7182 9.19828 14.6107C9.19905 14.5031 9.11121 14.4155 9.00256 14.4155ZM10.7879 12.9996H5.56139C5.45274 12.9996 5.36567 13.0872 5.36567 13.1948C5.36567 13.3031 5.45351 13.3899 5.56139 13.3899H10.7879C10.8965 13.3899 10.9836 13.3023 10.9836 13.1948C10.9836 13.0872 10.8958 12.9996 10.7879 12.9996ZM9.00256 10.7902H5.56143C5.45278 10.7902 5.36571 10.8778 5.36571 10.9853C5.36571 11.0937 5.45355 11.1805 5.56143 11.1805H9.00256C9.11121 11.1805 9.19828 11.0929 9.19828 10.9853C9.19905 10.8778 9.11121 10.7902 9.00256 10.7902ZM10.7879 9.37351H5.56139C5.45274 9.37351 5.36567 9.46109 5.36567 9.56865C5.36567 9.67698 5.45351 9.76379 5.56139 9.76379H10.7879C10.8965 9.76379 10.9836 9.67621 10.9836 9.56865C10.9836 9.46109 10.8958 9.37351 10.7879 9.37351ZM9.00256 7.16406H5.56143C5.45278 7.16406 5.36571 7.25164 5.36571 7.3592C5.36571 7.46752 5.45355 7.55434 5.56143 7.55434H9.00256C9.11121 7.55434 9.19828 7.46676 9.19828 7.3592C9.19905 7.25164 9.11121 7.16406 9.00256 7.16406ZM10.7879 5.74815H5.56139C5.45274 5.74815 5.36567 5.83573 5.36567 5.94329C5.36567 6.05162 5.45351 6.13843 5.56139 6.13843H10.7879C10.8965 6.13843 10.9836 6.05085 10.9836 5.94329C10.9836 5.83573 10.8958 5.74815 10.7879 5.74815ZM3.87228 6.06698L3.32367 6.82218L3.01546 6.51641C2.93918 6.44035 2.81513 6.44112 2.73885 6.51718C2.66257 6.59323 2.66334 6.71692 2.73962 6.79297L3.20272 7.25239C3.21196 7.26238 3.22198 7.27159 3.23354 7.28004C3.32138 7.34304 3.44389 7.32384 3.50707 7.23625L4.18976 6.29667C4.25294 6.20909 4.23368 6.08694 4.14584 6.02394C4.05877 5.96095 3.93623 5.98017 3.87228 6.06698ZM7.05698 1.39142L7.06084 1.99373C7.06084 2.04137 7.0539 2.0867 7.04003 2.12972C7.02539 2.17428 7.00228 2.21576 6.97223 2.25264C6.93986 2.29259 6.90134 2.32409 6.85819 2.3456C6.81118 2.36942 6.76187 2.38094 6.71024 2.38094H4.94573V3.51106H11.2865V2.38094H9.52201C9.47039 2.38094 9.4203 2.36942 9.37407 2.3456C9.33092 2.32332 9.29317 2.29259 9.26003 2.25264C9.22998 2.21576 9.20687 2.17505 9.19223 2.12972C9.17836 2.08746 9.17065 2.04137 9.17142 1.99373L9.17528 1.39142H7.05698Z" stroke="#5F5F5F" stroke-width="0.36" mask="url(#path-1-outside-1_146_2827)"/>
</svg>
