<svg width="127" height="127" viewBox="0 0 127 127" fill="none" xmlns="http://www.w3.org/2000/svg">
<g filter="url(#filter0_d_123_3477)">
<circle cx="63.1042" cy="59.5925" r="58.9167" fill="#F6EDFF"/>
<path d="M58.2073 44.3478C57.7777 44.3478 57.409 44.2391 57.1012 44.0218C56.7952 43.8026 56.5595 43.487 56.3943 43.0748C56.2308 42.661 56.1491 42.1627 56.1491 41.5801C56.1508 40.9976 56.2334 40.5019 56.3969 40.0932C56.5621 39.6828 56.7978 39.3698 57.1038 39.1542C57.4116 38.9385 57.7795 38.8307 58.2073 38.8307C58.6351 38.8307 59.0029 38.9385 59.3107 39.1542C59.6185 39.3698 59.8541 39.6828 60.0176 40.0932C60.1828 40.5037 60.2654 40.9993 60.2654 41.5801C60.2654 42.1645 60.1828 42.6636 60.0176 43.0775C59.8541 43.4896 59.6185 43.8044 59.3107 44.0218C59.0046 44.2391 58.6368 44.3478 58.2073 44.3478ZM58.2073 43.5313C58.5412 43.5313 58.8046 43.367 58.9977 43.0383C59.1924 42.7079 59.2898 42.2218 59.2898 41.5801C59.2898 41.1558 59.2455 40.7993 59.1568 40.5106C59.0681 40.2219 58.9429 40.0046 58.7811 39.8585C58.6194 39.7107 58.4281 39.6367 58.2073 39.6367C57.8751 39.6367 57.6125 39.802 57.4195 40.1324C57.2264 40.4611 57.1291 40.9436 57.1273 41.5801C57.1256 42.0062 57.1682 42.3644 57.2551 42.6549C57.3438 42.9453 57.469 43.1644 57.6308 43.3122C57.7925 43.4583 57.9847 43.5313 58.2073 43.5313ZM61.5162 44.3035C61.358 44.3035 61.2223 44.2478 61.1093 44.1365C60.9963 44.0252 60.9406 43.8896 60.9424 43.7296C60.9406 43.5731 60.9963 43.4392 61.1093 43.3279C61.2223 43.2166 61.358 43.1609 61.5162 43.1609C61.6693 43.1609 61.8023 43.2166 61.9153 43.3279C62.0301 43.4392 62.0884 43.5731 62.0901 43.7296C62.0884 43.8357 62.0606 43.9322 62.0066 44.0191C61.9545 44.1061 61.8849 44.1757 61.798 44.2278C61.7128 44.2783 61.6188 44.3035 61.5162 44.3035ZM64.8213 44.3478C64.3918 44.3478 64.0231 44.2391 63.7153 44.0218C63.4092 43.8026 63.1736 43.487 63.0083 43.0748C62.8449 42.661 62.7631 42.1627 62.7631 41.5801C62.7649 40.9976 62.8475 40.5019 63.011 40.0932C63.1762 39.6828 63.4118 39.3698 63.7179 39.1542C64.0257 38.9385 64.3935 38.8307 64.8213 38.8307C65.2491 38.8307 65.6169 38.9385 65.9247 39.1542C66.2325 39.3698 66.4682 39.6828 66.6317 40.0932C66.7969 40.5037 66.8795 40.9993 66.8795 41.5801C66.8795 42.1645 66.7969 42.6636 66.6317 43.0775C66.4682 43.4896 66.2325 43.8044 65.9247 44.0218C65.6187 44.2391 65.2508 44.3478 64.8213 44.3478ZM64.8213 43.5313C65.1552 43.5313 65.4187 43.367 65.6117 43.0383C65.8065 42.7079 65.9039 42.2218 65.9039 41.5801C65.9039 41.1558 65.8595 40.7993 65.7708 40.5106C65.6821 40.2219 65.5569 40.0046 65.3952 39.8585C65.2335 39.7107 65.0422 39.6367 64.8213 39.6367C64.4891 39.6367 64.2265 39.802 64.0335 40.1324C63.8405 40.4611 63.7431 40.9436 63.7414 41.5801C63.7396 42.0062 63.7822 42.3644 63.8692 42.6549C63.9579 42.9453 64.0831 43.1644 64.2448 43.3122C64.4065 43.4583 64.5987 43.5313 64.8213 43.5313ZM69.7209 44.3478C69.2913 44.3478 68.9226 44.2391 68.6148 44.0218C68.3087 43.8026 68.0731 43.487 67.9079 43.0748C67.7444 42.661 67.6627 42.1627 67.6627 41.5801C67.6644 40.9976 67.747 40.5019 67.9105 40.0932C68.0757 39.6828 68.3114 39.3698 68.6174 39.1542C68.9252 38.9385 69.293 38.8307 69.7209 38.8307C70.1487 38.8307 70.5165 38.9385 70.8243 39.1542C71.1321 39.3698 71.3677 39.6828 71.5312 40.0932C71.6964 40.5037 71.779 40.9993 71.779 41.5801C71.779 42.1645 71.6964 42.6636 71.5312 43.0775C71.3677 43.4896 71.1321 43.8044 70.8243 44.0218C70.5182 44.2391 70.1504 44.3478 69.7209 44.3478ZM69.7209 43.5313C70.0548 43.5313 70.3182 43.367 70.5113 43.0383C70.706 42.7079 70.8034 42.2218 70.8034 41.5801C70.8034 41.1558 70.7591 40.7993 70.6704 40.5106C70.5817 40.2219 70.4565 40.0046 70.2947 39.8585C70.133 39.7107 69.9417 39.6367 69.7209 39.6367C69.3887 39.6367 69.1261 39.802 68.9331 40.1324C68.74 40.4611 68.6426 40.9436 68.6409 41.5801C68.6392 42.0062 68.6818 42.3644 68.7687 42.6549C68.8574 42.9453 68.9826 43.1644 69.1444 43.3122C69.3061 43.4583 69.4983 43.5313 69.7209 43.5313Z" fill="#5801B7"/>
<path d="M79.4817 26.3789H47.6087C42.629 26.3789 38.5547 30.4532 38.5547 35.433V84.3249C38.5547 89.3046 42.629 93.3789 47.6087 93.3789H79.3903C84.37 93.3789 88.4443 89.3046 88.4443 84.3249V35.433C88.4443 30.4532 84.4615 26.3789 79.4817 26.3789ZM85.4553 84.3249C85.4553 87.6741 82.7391 90.3903 79.3898 90.3903H47.6083C44.259 90.3903 41.5428 87.6741 41.5428 84.3249V35.433C41.5428 32.0837 44.259 29.3675 47.6083 29.3675H79.3898C82.7391 29.3675 85.4553 32.0837 85.4553 35.433V84.3249Z" fill="#393939" stroke="#F6EDFF" stroke-width="0.905405"/>
<path d="M74.5048 34.4336H52.5913C50.1474 34.4336 48.1562 36.4248 48.1562 38.8686V44.7538C48.1562 47.1976 50.1474 49.1888 52.5913 49.1888H74.5935C77.0374 49.1888 79.0286 47.1976 79.0286 44.7538V38.8686C78.9402 36.4283 76.9487 34.4336 74.5048 34.4336ZM75.9514 44.757C75.9514 45.5705 75.3183 46.2071 74.5013 46.2071L52.5914 46.2036C51.7779 46.2036 51.1413 45.5705 51.1413 44.7535V38.8684C51.1413 38.0549 51.7744 37.4183 52.5914 37.4183H74.5936C75.4071 37.4183 76.0437 38.0513 76.0437 38.8684V44.757L75.9514 44.757Z" fill="#393939" stroke="#F6EDFF" stroke-width="0.905405"/>
<path d="M76.1253 59.332H67.7963C66.9828 59.332 66.2578 59.9651 66.2578 60.8705C66.2578 61.7759 66.8909 62.409 67.7963 62.409H76.1253C76.9387 62.409 77.6637 61.7759 77.6637 60.8705C77.6673 59.9686 76.9422 59.332 76.1253 59.332Z" fill="#393939" stroke="#F6EDFF" stroke-width="0.905405"/>
<path d="M59.2876 59.3289H56.5714V56.6127C56.5714 55.7992 55.9383 55.0742 55.0329 55.0742C54.1275 55.0742 53.5828 55.8912 53.5828 56.7047V59.4209H50.8666C50.0531 59.4209 49.3281 60.054 49.3281 60.9594C49.3281 61.8647 49.9612 62.4978 50.8666 62.4978H53.5828V65.214C53.5828 66.0275 54.2159 66.7525 55.1213 66.7525C56.0267 66.7525 56.6597 66.1194 56.6597 65.214V62.4978H59.376C60.1894 62.4978 60.9144 61.8647 60.9144 60.9594C60.918 60.0539 60.1011 59.3289 59.2876 59.3289Z" fill="#393939" stroke="#F6EDFF" stroke-width="0.905405"/>
<path d="M59.107 71.8343C58.5623 71.2896 57.5685 71.2896 57.0238 71.8343L55.121 73.7371L53.2182 71.8343C52.6736 71.2896 51.6797 71.2896 51.1351 71.8343C50.5904 72.3789 50.5904 73.3727 51.1351 73.9174L53.0379 75.8202L51.1351 77.723C50.5904 78.2677 50.5904 79.2615 51.1351 79.8062C51.4074 80.0785 51.7681 80.2589 52.2208 80.2589C52.6735 80.2589 52.9458 80.0785 53.3066 79.8062L55.2094 77.9034L57.1122 79.8062C57.3845 80.0785 57.7453 80.2589 58.1979 80.2589C58.5587 80.2589 58.923 80.0785 59.2837 79.8062C59.8284 79.2615 59.8284 78.2677 59.2837 77.723L57.2041 75.9087L59.1069 74.0059C59.74 73.3728 59.74 72.4673 59.107 71.8343Z" fill="#393939" stroke="#F6EDFF" stroke-width="0.905405"/>
<path d="M76.1253 73.5508H67.7963C66.9828 73.5508 66.2578 74.1839 66.2578 75.0892C66.2578 75.9946 66.8909 76.6277 67.7963 76.6277H76.1253C76.9387 76.6277 77.6637 75.9946 77.6637 75.0892C77.6673 74.1838 76.9422 73.5508 76.1253 73.5508Z" fill="#393939" stroke="#F6EDFF" stroke-width="0.905405"/>
<path d="M73.6835 70.7489C73.6835 73.0443 70.2422 73.0443 70.2422 70.7489C70.2422 68.4535 73.6835 68.4535 73.6835 70.7489Z" fill="#393939" stroke="#F6EDFF" stroke-width="0.905405"/>
<path d="M73.6835 79.4364C73.6835 81.7281 70.2422 81.7281 70.2422 79.4364C70.2422 77.141 73.6835 77.141 73.6835 79.4364Z" fill="#393939" stroke="#F6EDFF" stroke-width="0.905405"/>
</g>
<defs>
<filter id="filter0_d_123_3477" x="0.1875" y="0.675781" width="125.833" height="125.833" filterUnits="userSpaceOnUse" color-interpolation-filters="sRGB">
<feFlood flood-opacity="0" result="BackgroundImageFix"/>
<feColorMatrix in="SourceAlpha" type="matrix" values="0 0 0 0 0 0 0 0 0 0 0 0 0 0 0 0 0 0 127 0" result="hardAlpha"/>
<feOffset dy="4"/>
<feGaussianBlur stdDeviation="2"/>
<feComposite in2="hardAlpha" operator="out"/>
<feColorMatrix type="matrix" values="0 0 0 0 0 0 0 0 0 0 0 0 0 0 0 0 0 0 0.25 0"/>
<feBlend mode="normal" in2="BackgroundImageFix" result="effect1_dropShadow_123_3477"/>
<feBlend mode="normal" in="SourceGraphic" in2="effect1_dropShadow_123_3477" result="shape"/>
</filter>
</defs>
</svg>
