<svg width="13" height="19" viewBox="0 0 13 19" fill="none" xmlns="http://www.w3.org/2000/svg">
<path d="M9.01376 5.55149L9.24524 5.737V5.44036V0.814952C9.24524 0.73149 9.20321 0.667442 9.15822 0.628008C9.11594 0.590949 9.05629 0.562405 8.99289 0.562405H7.76159C7.69617 0.562405 7.63062 0.584877 7.58109 0.634491C7.53158 0.684083 7.50923 0.749623 7.50923 0.814952V5.46238V5.70249L7.71994 5.58736L7.9618 5.45521L7.96198 5.45553L7.97062 5.44997C8.09508 5.36982 8.26298 5.33003 8.43924 5.33493C8.61258 5.33975 8.78172 5.38754 8.90985 5.46822L9.01376 5.55149ZM0.723405 16.7223L0.517206 16.6191V16.8497V16.9378C0.517206 17.3246 0.822598 17.6309 1.20931 17.6309H11.3236C11.7139 17.6309 12.0157 17.2988 12.0157 16.9378V16.8497V16.6191L11.8095 16.7223C11.6523 16.8011 11.4981 16.8394 11.3236 16.8394H1.20931C1.03474 16.8394 0.880578 16.8011 0.723405 16.7223ZM7.13444 0.682798V0.540379H6.99202H1.20931C0.822598 0.540379 0.517206 0.846658 0.517206 1.23344V1.51978V15.7484C0.517206 16.1352 0.822598 16.4415 1.20931 16.4415H11.3236C11.7103 16.4415 12.0157 16.1352 12.0157 15.7484V1.51978V1.23344C12.0157 0.846658 11.7103 0.540379 11.3236 0.540379H9.71847H9.48821L9.59105 0.746401C9.59597 0.756263 9.59804 0.767318 9.59804 0.814952V5.57251C9.59804 5.73765 9.54395 5.84861 9.47476 5.91791C9.40426 5.98854 9.30938 6.02479 9.21276 6.02479C9.11946 6.02479 9.02467 6.00576 8.95003 5.94594L8.95036 5.94552L8.94006 5.93864L8.67621 5.76244L8.66883 5.75751L8.66089 5.75353C8.58633 5.71619 8.48183 5.70541 8.39923 5.70541C8.31662 5.70541 8.21212 5.71619 8.13756 5.75353L8.13727 5.75296L8.12576 5.76016L7.7751 5.97971C7.6752 6.0396 7.59201 6.06884 7.51973 6.06884C7.37815 6.06884 7.27545 6.01665 7.22053 5.93412L7.21272 5.92239L7.20276 5.91241C7.1523 5.86186 7.11246 5.75178 7.11246 5.61656V0.815059C7.11246 0.814939 7.11256 0.812945 7.11346 0.808115C7.11461 0.801979 7.11628 0.7951 7.11921 0.78336C7.11949 0.782255 7.11978 0.781079 7.1201 0.779834C7.12509 0.760013 7.13444 0.722865 7.13444 0.682798ZM1.20931 0.142419H11.3236C11.9026 0.142419 12.3905 0.627391 12.3905 1.23344V1.51978V15.7484V16.9158C12.3905 17.4981 11.9043 17.9848 11.3236 17.9848H1.20931C0.628577 17.9848 0.142419 17.4981 0.142419 16.9158V15.7484V1.49775V1.21142C0.142419 0.629066 0.628577 0.142419 1.20931 0.142419Z" fill="#5F5F5F" stroke="#5F5F5F" stroke-width="0.284838"/>
</svg>
