<svg width="22" height="23" viewBox="0 0 22 23" fill="none" xmlns="http://www.w3.org/2000/svg">
<g clip-path="url(#clip0_4518_5298)">
<path d="M0.152344 2.39041C0.152344 1.54905 0.851485 0.867188 1.71411 0.867188H19.8572C20.7199 0.867188 21.419 1.54905 21.419 2.39041V20.6106C21.419 21.452 20.7199 22.1339 19.8572 22.1339H1.71411C0.851485 22.1339 0.152344 21.452 0.152344 20.6106V2.39041ZM6.72241 18.67V9.06682H3.53109V18.67H6.72241ZM5.12741 7.75493C6.23993 7.75493 6.93242 7.01857 6.93242 6.09613C6.91248 5.15375 6.24126 4.43733 5.14868 4.43733C4.05611 4.43733 3.34234 5.15508 3.34234 6.09613C3.34234 7.01857 4.03484 7.75493 5.10615 7.75493H5.12741ZM11.651 18.67V13.3069C11.651 13.0198 11.6722 12.7327 11.7573 12.528C11.9872 11.9551 12.5123 11.361 13.3948 11.361C14.5499 11.361 15.0111 12.2409 15.0111 13.5328V18.67H18.2024V13.162C18.2024 10.2112 16.6287 8.83953 14.5286 8.83953C12.8353 8.83953 12.0763 9.76994 11.651 10.4252V10.4585H11.6297L11.651 10.4252V9.06682H8.46096C8.50084 9.96799 8.46096 18.67 8.46096 18.67H11.651Z" fill="#4D4D4D"/>
</g>
<defs>
<clipPath id="clip0_4518_5298">
<rect width="21.2667" height="21.2667" fill="white" transform="translate(0.152344 0.867188)"/>
</clipPath>
</defs>
</svg>
