<svg width="17" height="14" viewBox="0 0 17 14" fill="none" xmlns="http://www.w3.org/2000/svg">
<path d="M2.03909 1.0005C1.46457 1.0005 1 1.45139 1 2.01011V11.9894C1 12.5356 1.44444 12.9769 2.00089 12.997H2.00761L2.01432 12.998C2.02877 12.9995 2.03703 13 2.03909 13H14.4127C15.2902 13 16 12.3094 16 11.4567V5.61072C16 5.05249 15.5375 4.60261 14.9619 4.60211H14.9609C14.836 4.60261 14.74 4.6959 14.74 4.81677C14.74 4.93764 14.8365 5.03143 14.9619 5.03143C15.2887 5.03143 15.5576 5.29374 15.5576 5.61021V11.4562C15.5576 12.0676 15.0425 12.5702 14.4122 12.5702C13.7819 12.5702 13.2668 12.0681 13.2668 11.4562V2.00961C13.2668 1.45089 12.8027 1 12.2266 1L2.03909 1.0005ZM2.03909 1.43183H12.2282C12.5549 1.43183 12.8239 1.69414 12.8239 2.01062V11.4572C12.8239 11.7341 12.8987 11.9919 13.0309 12.2171L13.2389 12.5702H2.03909C1.71234 12.5702 1.44392 12.3069 1.44392 11.9904V2.01112C1.44392 1.69464 1.71286 1.43233 2.03909 1.43233V1.43183ZM5.59771 4.78668C5.47228 4.78668 5.37575 4.87996 5.37575 5.00134C5.37575 5.12271 5.4728 5.217 5.59771 5.217H10.4313C10.5562 5.217 10.6523 5.12321 10.6523 5.00134C10.6523 4.87946 10.5568 4.78668 10.4313 4.78668H5.59771ZM3.92835 7.0326C3.80292 7.0326 3.70639 7.12589 3.70639 7.24726C3.70639 7.36864 3.80343 7.46293 3.92835 7.46293H10.4308C10.5557 7.46293 10.6517 7.36914 10.6517 7.24726C10.6517 7.12539 10.5562 7.0326 10.4308 7.0326H3.92835ZM3.92835 9.27752C3.80343 9.27752 3.70639 9.37181 3.70639 9.49319C3.70639 9.61456 3.80292 9.70785 3.92835 9.70785H10.4308C10.5562 9.70785 10.6517 9.61506 10.6517 9.49319C10.6517 9.37131 10.5557 9.27752 10.4308 9.27752H3.92835Z" fill="#5F5F5F" stroke="#5F5F5F" stroke-width="0.3"/>
</svg>
