<svg width="21" height="21" viewBox="0 0 21 21" fill="none" xmlns="http://www.w3.org/2000/svg">
<path d="M18.3274 9.88109C17.9765 9.88155 17.6346 9.98749 17.35 10.184C17.0653 10.3805 16.8523 10.6576 16.7409 10.9762L14.632 10.6646C14.6373 10.5905 14.6412 10.5161 14.6412 10.4399C14.6417 9.72139 14.3904 9.02351 13.9275 8.45805L16.8307 5.88983C17.1407 6.15987 17.5453 6.30864 17.9643 6.30668C18.3834 6.30472 18.7864 6.15218 19.0936 5.87925C19.4008 5.60632 19.5898 5.23288 19.6232 4.83286C19.6567 4.43283 19.5321 4.03536 19.2741 3.71911C19.0161 3.40287 18.6436 3.19089 18.2302 3.12513C17.8168 3.05937 17.3927 3.14462 17.0418 3.36402C16.6909 3.58341 16.4389 3.92096 16.3354 4.30986C16.232 4.69875 16.2848 5.11065 16.4834 5.46404L13.5463 8.06311C12.9265 7.51715 12.115 7.21441 11.2729 7.215C11.1709 7.215 11.0704 7.22011 10.9708 7.22869L10.3979 4.09862C10.7882 3.95708 11.1091 3.6809 11.2975 3.32434C11.486 2.96778 11.5284 2.55662 11.4164 2.17163C11.3045 1.78665 11.0463 1.45567 10.6925 1.24373C10.3387 1.03179 9.91493 0.954202 9.50446 1.02622C9.09398 1.09823 8.72647 1.31463 8.47411 1.63292C8.22176 1.9512 8.10281 2.34835 8.14063 2.74634C8.17845 3.14433 8.37032 3.51439 8.67853 3.78381C8.98674 4.05323 9.38901 4.20254 9.80631 4.20241C9.81954 4.20241 9.83277 4.20241 9.84599 4.20241L10.4163 7.32104C9.95256 7.43887 9.52033 7.64981 9.14827 7.93985C8.77621 8.2299 8.47283 8.59243 8.25827 9.00336L4.31136 7.50043C4.39897 7.10746 4.32929 6.69732 4.11612 6.35121C3.90296 6.0051 3.56185 5.74827 3.16035 5.63157C2.75884 5.51486 2.32622 5.5468 1.94813 5.72105C1.57005 5.89531 1.27408 6.19917 1.11882 6.57248C0.963566 6.94578 0.960348 7.36131 1.10981 7.73678C1.25926 8.11225 1.5505 8.42028 1.92584 8.59988C2.30119 8.77949 2.73327 8.81757 3.13654 8.70658C3.53981 8.59559 3.88485 8.34363 4.10335 8.00059L8.05026 9.50331C7.83893 10.169 7.85824 10.8823 8.1053 11.5366L6.43309 12.2722C6.19705 11.9417 5.84005 11.7082 5.43278 11.6178C5.02551 11.5274 4.59765 11.5867 4.23388 11.784C3.87011 11.9814 3.59695 12.3023 3.46847 12.6833C3.33999 13.0643 3.36556 13.4776 3.54011 13.8414C3.71466 14.2051 4.02547 14.4929 4.41102 14.6477C4.79657 14.8025 5.22876 14.8131 5.62204 14.6773C6.01532 14.5415 6.34102 14.2692 6.53468 13.9144C6.72834 13.5596 6.77584 13.148 6.66778 12.7613L8.34062 12.0258C8.62522 12.508 9.03462 12.912 9.52943 13.1989C10.0242 13.4858 10.5878 13.646 11.166 13.6639L11.3384 16.8357C10.9294 16.9237 10.5699 17.1554 10.3309 17.4852C10.0919 17.8149 9.99092 18.2186 10.0479 18.6163C10.105 19.0139 10.3158 19.3766 10.6388 19.6324C10.9617 19.8883 11.3732 20.0187 11.7917 19.9978C12.2103 19.977 12.6054 19.8064 12.8989 19.5198C13.1924 19.2332 13.3628 18.8515 13.3764 18.4503C13.39 18.0492 13.2458 17.6577 12.9723 17.3535C12.6989 17.0493 12.3162 16.8545 11.8999 16.8077L11.7277 13.6362C12.3989 13.5475 13.0268 13.2674 13.5295 12.8323C14.0323 12.3973 14.3867 11.8274 14.5467 11.1969L16.6554 11.5084C16.6607 11.8241 16.7633 12.1312 16.9502 12.3912C17.1372 12.6511 17.4002 12.8524 17.7063 12.9697C18.0123 13.087 18.3478 13.115 18.6704 13.0503C18.993 12.9856 19.2885 12.831 19.5197 12.606C19.7509 12.381 19.9075 12.0955 19.9698 11.7856C20.0322 11.4756 19.9974 11.1549 19.87 10.8637C19.7427 10.5726 19.5282 10.3239 19.2538 10.1491C18.9793 9.9743 18.657 9.88105 18.3274 9.88109ZM8.69606 2.60059C8.69606 2.39046 8.76112 2.18506 8.88303 2.01034C9.00493 1.83562 9.17819 1.69945 9.38091 1.61904C9.58363 1.53863 9.80669 1.51759 10.0219 1.55858C10.2371 1.59957 10.4348 1.70076 10.5899 1.84934C10.7451 1.99793 10.8507 2.18723 10.8935 2.39332C10.9363 2.59941 10.9144 2.81303 10.8304 3.00717C10.7464 3.2013 10.6042 3.36723 10.4218 3.48397C10.2394 3.60071 10.0249 3.66302 9.80546 3.66302C9.51138 3.66254 9.2295 3.55045 9.02155 3.35131C8.81361 3.15217 8.69657 2.88222 8.69606 2.60059ZM2.67585 8.23146C2.45648 8.23146 2.24203 8.16918 2.05961 8.05248C1.8772 7.93579 1.735 7.76992 1.651 7.57584C1.567 7.38177 1.54497 7.1682 1.58769 6.96214C1.63041 6.75608 1.73596 6.56677 1.89101 6.41815C2.04606 6.26952 2.24363 6.16825 2.45876 6.12715C2.6739 6.08604 2.89693 6.10693 3.09966 6.18719C3.3024 6.26744 3.47574 6.40346 3.59777 6.57804C3.7198 6.75262 3.78504 6.95793 3.78525 7.16801C3.78497 7.4498 3.66803 7.71998 3.46007 7.91933C3.25211 8.11867 2.97009 8.23092 2.67585 8.23146ZM5.05232 14.2383C4.83294 14.2381 4.61856 14.1756 4.43626 14.0587C4.25396 13.9419 4.11193 13.7759 4.02812 13.5817C3.94432 13.3876 3.9225 13.174 3.96543 12.9679C4.00836 12.7619 4.1141 12.5727 4.26929 12.4242C4.42449 12.2757 4.62217 12.1747 4.83734 12.1338C5.05252 12.0928 5.27552 12.1139 5.47818 12.1944C5.68083 12.2748 5.85403 12.411 5.97589 12.5857C6.09775 12.7604 6.16278 12.9658 6.16278 13.1758C6.16222 13.4576 6.04501 13.7277 5.83685 13.9269C5.62869 14.126 5.34656 14.238 5.05232 14.2383ZM17.9564 3.64341C18.1757 3.64341 18.3902 3.70569 18.5726 3.82239C18.755 3.93908 18.8972 4.10495 18.9812 4.29903C19.0652 4.4931 19.0872 4.70667 19.0445 4.91273C19.0018 5.11879 18.8962 5.3081 18.7412 5.45672C18.5862 5.60535 18.3886 5.70662 18.1734 5.74772C17.9583 5.78883 17.7353 5.76794 17.5325 5.68768C17.3298 5.60743 17.1565 5.47141 17.0344 5.29683C16.9124 5.12225 16.8472 4.91694 16.847 4.70686C16.8472 4.42507 16.9642 4.15489 17.1721 3.95554C17.3801 3.7562 17.6621 3.64395 17.9564 3.64341ZM12.8151 18.3981C12.8151 18.6082 12.7501 18.8136 12.6282 18.9883C12.5063 19.163 12.333 19.2992 12.1303 19.3796C11.9276 19.46 11.7045 19.4811 11.4893 19.4401C11.2741 19.3991 11.0764 19.2979 10.9213 19.1493C10.7661 19.0007 10.6605 18.8114 10.6177 18.6054C10.5748 18.3993 10.5968 18.1856 10.6808 17.9915C10.7648 17.7974 10.9069 17.6314 11.0894 17.5147C11.2718 17.398 11.4863 17.3357 11.7057 17.3357C11.9998 17.3361 12.2817 17.4482 12.4896 17.6474C12.6976 17.8465 12.8146 18.1165 12.8151 18.3981ZM11.2729 13.1278C10.7179 13.1278 10.1754 12.9702 9.71396 12.675C9.25253 12.3797 8.89289 11.96 8.68051 11.469C8.46814 10.978 8.41257 10.4377 8.52084 9.91647C8.62911 9.39522 8.89635 8.91642 9.28876 8.54062C9.68118 8.16481 10.1811 7.90889 10.7254 7.80521C11.2697 7.70152 11.8339 7.75474 12.3466 7.95812C12.8594 8.1615 13.2976 8.50592 13.6059 8.94781C13.9142 9.38971 14.0788 9.90924 14.0788 10.4407C14.0779 11.1531 13.782 11.8361 13.256 12.3399C12.73 12.8436 12.0168 13.127 11.2729 13.1278ZM18.3274 12.5461C18.1079 12.5461 17.8935 12.4838 17.711 12.3671C17.5286 12.2504 17.3864 12.0844 17.3024 11.8903C17.2184 11.6962 17.1965 11.4825 17.2393 11.2764C17.2821 11.0704 17.3877 10.8811 17.5429 10.7325C17.6981 10.5839 17.8957 10.4827 18.1109 10.4417C18.3261 10.4007 18.5492 10.4218 18.7519 10.5022C18.9546 10.5826 19.1279 10.7188 19.2498 10.8935C19.3717 11.0682 19.4368 11.2736 19.4368 11.4837C19.4363 11.7653 19.3192 12.0353 19.1113 12.2344C18.9033 12.4336 18.6214 12.5457 18.3274 12.5461Z" fill="#5F5F5F" stroke="#5F5F5F" stroke-width="0.580243"/>
</svg>
