<svg width="119" height="119" viewBox="0 0 119 119" fill="none" xmlns="http://www.w3.org/2000/svg">
<circle cx="59.1042" cy="59.4734" r="58.9167" fill="#F6EDFF"/>
<path d="M37.3323 62.074L47.5136 56.1007L47.5151 56.0998C47.5506 56.0794 47.5888 56.0597 47.6303 56.0423L47.6312 56.0419C48.8823 55.5255 50.2044 55.2424 51.5596 55.2011M37.3323 62.074L51.5679 55.4011M37.3323 62.074L37.0099 61.294L37.0099 61.294C36.6437 60.4083 35.6051 60.007 34.7029 60.379L34.7028 60.3791L29.1034 62.6922C28.2003 63.0652 27.7482 64.083 28.1144 64.9694L28.1144 64.9694L35.4566 82.7429C35.6376 83.1821 35.9879 83.516 36.4369 83.6844L36.4369 83.6844C36.6391 83.7602 36.852 83.7981 37.0648 83.7981C37.3021 83.7981 37.5395 83.751 37.7645 83.6581L37.7645 83.6581L43.3639 81.345C43.7916 81.1684 44.1334 80.8426 44.3231 80.4262M37.3323 62.074L51.721 55.2097L65.7956 57.1513L65.8044 57.1525L65.813 57.1544C68.5618 57.7844 70.2918 59.5662 70.4382 61.9585L70.4382 61.9585C70.4771 62.5962 70.3923 63.2213 70.2025 63.8047L89.1361 56.8969C90.3543 56.3944 91.7232 56.3613 92.9619 56.8187L92.9639 56.8195C94.1525 57.2727 95.0874 58.1262 95.5979 59.2298C96.1196 60.338 96.1453 61.6177 95.6779 62.824C95.135 64.2259 94.0044 65.3657 92.5773 65.9554L92.5015 65.7718L92.5773 65.9554L66.2693 76.8232C66.2693 76.8232 66.2692 76.8232 66.2692 76.8232C66.046 76.9155 65.807 76.9625 65.568 76.9625C65.5187 76.9625 65.4682 76.9608 65.4168 76.9565L65.4166 76.9565L45.3109 75.2596L45.0737 75.3143L43.2502 76.3975L44.3529 79.0676C44.5346 79.5064 44.5229 79.9903 44.3231 80.4262M51.5596 55.2011C51.5603 55.2011 51.5611 55.2011 51.5618 55.201L51.5679 55.4011M51.5596 55.2011C51.5587 55.2011 51.5578 55.2012 51.557 55.2012L51.5679 55.4011M51.5596 55.2011C51.6162 55.1982 51.6707 55.2025 51.7205 55.2096L51.72 55.2095L51.6927 55.4079C51.6508 55.4019 51.609 55.3989 51.5679 55.4011M44.3231 80.4262C44.3231 80.4263 44.3231 80.4264 44.323 80.4264L44.1415 80.3432L44.3232 80.426C44.3232 80.4261 44.3232 80.4262 44.3231 80.4262ZM45.3238 73.3587L45.3238 73.3587L65.529 75.0639L91.8549 64.2042L45.3238 73.3587ZM45.3238 73.3587L45.3212 73.3585M45.3238 73.3587L45.3212 73.3585M45.3212 73.3585C45.2956 73.3567 45.2699 73.3558 45.2442 73.3558C45.1715 73.3558 45.1012 73.3644 45.0337 73.379L45.0337 73.379M45.3212 73.3585L45.0337 73.379M45.0337 73.379L45.0309 73.3796M45.0337 73.379L45.0309 73.3796M45.0309 73.3796L44.5054 73.5013L45.0309 73.3796ZM68.5483 62.0756L68.5483 62.0755C68.459 60.6073 67.3379 59.4512 65.4637 59.0168L51.5437 57.0996C50.4658 57.1407 49.4141 57.3669 48.4167 57.771L38.0652 63.8437L40.421 69.5468L40.421 69.5468L42.5202 74.6282L44.2337 73.6104C44.3174 73.5606 44.4084 73.5235 44.5047 73.5014L68.5483 62.0756ZM68.5483 62.0756C68.6266 63.3551 67.9059 64.5467 66.7854 65.0459M68.5483 62.0756L66.7854 65.0459M66.7854 65.0459L56.1901 64.0048C56.1898 64.0048 56.1895 64.0048 56.1892 64.0047C55.6717 63.9499 55.2037 64.3354 55.1527 64.8547C55.1015 65.375 55.4823 65.8392 56.0027 65.8904L56.0027 65.8904L66.8094 66.952C66.8102 66.9521 66.811 66.9522 66.8117 66.9523C66.9526 66.9688 67.1005 66.9538 67.2426 66.9028C67.2471 66.9013 67.2547 66.8987 67.2638 66.895L89.8199 58.6647L89.8199 58.6649L89.8278 58.6616C90.637 58.3268 91.5158 58.3059 92.2976 58.5939C93.0203 58.8705 93.5799 59.381 93.8813 60.0317L93.8818 60.0327C94.179 60.6643 94.1941 61.4112 93.9121 62.1398C93.5629 63.0414 92.7934 63.816 91.855 64.2042L66.7854 65.0459ZM29.9315 64.4021L35.3259 62.1736L35.9834 63.7653V63.7668L35.9986 63.8035L41.1869 76.3626L41.2022 76.3996L41.2039 76.4013L42.5396 79.6351L37.1458 81.8633L29.9315 64.4021Z" fill="#1D1D1D" stroke="#1D1D1D" stroke-width="0.400397"/>
<mask id="path-3-outside-1_124_3975" maskUnits="userSpaceOnUse" x="65.3047" y="35.2598" width="22" height="22" fill="black">
<rect fill="white" x="65.3047" y="35.2598" width="22" height="22"/>
<path d="M66.9472 47.8286L68.3605 48.328C68.4232 48.3502 68.47 48.4034 68.4888 48.4738C68.5831 48.8246 68.7002 49.1686 68.8364 49.497C68.9731 49.8251 69.1351 50.1506 69.3178 50.4645C69.3548 50.5276 69.3595 50.5979 69.3309 50.658L68.69 52.0133C68.5305 52.3508 68.5842 52.7466 68.8263 53.0221C69.1134 53.3483 69.4244 53.6586 69.7499 53.9435C70.0261 54.1849 70.4219 54.2368 70.759 54.0758L72.1158 53.4277C72.1745 53.3991 72.2441 53.4042 72.3061 53.4401C72.9321 53.8004 73.6034 54.0769 74.3019 54.2622C74.3715 54.2806 74.424 54.3263 74.4458 54.3876L74.9522 55.803C75.0779 56.155 75.3958 56.3971 75.7619 56.42C75.9682 56.433 76.1762 56.4392 76.3847 56.4392C76.6119 56.4392 76.8396 56.4316 77.0661 56.4163C77.4319 56.3917 77.749 56.1485 77.8734 55.7965L78.3728 54.3832C78.395 54.3205 78.4482 54.2734 78.5186 54.2545C78.8683 54.161 79.2127 54.0439 79.5418 53.9069C79.8702 53.7703 80.1957 53.6082 80.5093 53.4256C80.572 53.3889 80.6434 53.3839 80.7032 53.4125L82.0581 54.0534C82.3956 54.2129 82.7914 54.1592 83.0669 53.9171C83.3931 53.63 83.7031 53.3194 83.9883 52.9935C84.2297 52.7173 84.2819 52.3211 84.1206 51.9843L83.4725 50.6276C83.4446 50.5689 83.449 50.4996 83.4848 50.4373C83.8451 49.8113 84.1217 49.1396 84.3069 48.4419C84.3254 48.3723 84.3711 48.3197 84.4324 48.298L85.8482 47.7916C86.1998 47.6654 86.4419 47.3476 86.4648 46.9822C86.492 46.5519 86.4905 46.1133 86.4611 45.6776C86.4365 45.3115 86.1933 44.9944 85.8417 44.8704L84.428 44.3709C84.3653 44.3488 84.3185 44.2955 84.2997 44.2252C84.2055 43.8736 84.0884 43.5296 83.9521 43.2023C83.8151 42.8735 83.6534 42.548 83.4707 42.2345C83.4341 42.1717 83.4294 42.1011 83.4577 42.0409L84.0989 40.6856C84.2584 40.3481 84.2047 39.9523 83.9626 39.6768C83.6737 39.3488 83.3631 39.0389 83.0394 38.7558C82.7628 38.514 82.367 38.4622 82.0302 38.6231L80.6735 39.2712C80.6151 39.2991 80.5455 39.2948 80.4832 39.2589C79.8568 38.8986 79.1855 38.622 78.4874 38.4368C78.4182 38.4183 78.3656 38.3726 78.3438 38.3117L77.8375 36.8959C77.7117 36.5447 77.3938 36.3025 77.0277 36.2793C76.5963 36.2521 76.1574 36.2532 75.7231 36.283C75.357 36.308 75.0402 36.5512 74.9159 36.9028L74.4164 38.3157C74.3943 38.3784 74.341 38.4256 74.2703 38.4444C73.9195 38.5386 73.5751 38.6557 73.2474 38.792C72.919 38.9287 72.5935 39.0907 72.28 39.2734C72.2165 39.3104 72.1455 39.3143 72.086 39.2864L70.7308 38.6456C70.3933 38.4857 69.9978 38.5397 69.7223 38.7819C69.395 39.0697 69.0851 39.3807 68.8009 39.7051C68.5592 39.9813 68.507 40.3771 68.6683 40.7146L69.3164 42.071C69.3443 42.1297 69.3396 42.1993 69.3037 42.2616C68.9434 42.888 68.6668 43.5593 68.4816 44.2574C68.4631 44.327 68.4174 44.3792 68.3565 44.4013L66.9411 44.9077C66.5891 45.0335 66.347 45.3514 66.3241 45.7175C66.2969 46.147 66.2984 46.586 66.3277 47.022C66.3528 47.3881 66.596 47.705 66.9476 47.8293L66.9472 47.8286ZM67.0473 45.7621C67.052 45.6867 67.1071 45.6175 67.1846 45.5895L68.6001 45.0832C68.885 44.9813 69.1025 44.7417 69.1819 44.4423C69.3504 43.8058 69.6027 43.1936 69.9311 42.6227C70.0855 42.3544 70.1 42.0315 69.9695 41.7578L69.3214 40.4011C69.2859 40.3267 69.2953 40.2387 69.3454 40.1818C69.6089 39.8805 69.8967 39.5924 70.2001 39.3252C70.2574 39.2752 70.3451 39.2647 70.4194 39.2998L71.7743 39.9407C72.0494 40.0708 72.3739 40.0552 72.6432 39.899C72.9292 39.7323 73.2257 39.5848 73.5247 39.4604C73.823 39.3361 74.1366 39.2295 74.4566 39.1436C74.7568 39.0632 74.9967 38.8435 75.0982 38.5564L75.5977 37.1431C75.6253 37.0655 75.6945 37.0101 75.7703 37.005C76.1733 36.9782 76.5804 36.9764 76.9802 37.0017C77.0556 37.0065 77.1252 37.0619 77.1531 37.1391L77.6595 38.5546C77.7617 38.8399 78.0009 39.0574 78.3 39.1364C78.9365 39.3049 79.5487 39.5572 80.12 39.886C80.3886 40.0407 80.7119 40.0552 80.9848 39.924L82.3416 39.2759C82.4159 39.24 82.504 39.2502 82.5609 39.2998C82.861 39.5626 83.1496 39.8504 83.4174 40.1546C83.4678 40.2118 83.478 40.2999 83.4428 40.3742L82.8016 41.7295C82.6714 42.005 82.6874 42.3298 82.8436 42.598C83.01 42.884 83.1575 43.1805 83.2822 43.4799C83.4066 43.7779 83.5131 44.0914 83.599 44.4119C83.6795 44.7123 83.8988 44.9523 84.1859 45.0534L85.5995 45.5529C85.6771 45.5805 85.7326 45.6497 85.7376 45.7255C85.7648 46.1296 85.7663 46.5367 85.7409 46.9358C85.7362 47.0112 85.6807 47.0804 85.6035 47.1083L84.1881 47.6147C83.9031 47.7166 83.6857 47.9558 83.6063 48.2552C83.4377 48.8921 83.1854 49.5043 82.8567 50.0752C82.7023 50.3434 82.6881 50.6667 82.8186 50.9397L83.4667 52.2964C83.5022 52.3707 83.4925 52.4588 83.4428 52.5157C83.1782 52.8177 82.8907 53.1059 82.5877 53.3723C82.5308 53.4223 82.4427 53.4328 82.3684 53.3976L81.0131 52.7564C80.7384 52.6267 80.4139 52.6419 80.1446 52.7985C79.8586 52.9652 79.5621 53.1127 79.2634 53.2371C78.9637 53.3618 78.6501 53.4683 78.3312 53.5539C78.031 53.6347 77.7911 53.854 77.6896 54.1411L77.1901 55.5544C77.1625 55.6319 77.0933 55.6874 77.0175 55.6925C76.6148 55.7193 76.2074 55.7211 75.8072 55.6957C75.7318 55.691 75.6626 55.6359 75.6347 55.5584L75.1283 54.1429C75.0265 53.858 74.7869 53.6405 74.4875 53.5611C73.8506 53.3922 73.2384 53.1399 72.6678 52.8119C72.5214 52.7274 72.3583 52.6847 72.1962 52.6847C72.0614 52.6847 71.9273 52.714 71.8033 52.7735L70.4466 53.4216C70.3715 53.4571 70.2842 53.4469 70.2276 53.3976C69.9257 53.1334 69.6375 52.8456 69.3707 52.5429C69.3204 52.4857 69.3102 52.3976 69.3454 52.3233L69.9862 50.9683C70.1164 50.6932 70.1008 50.3684 69.9445 50.0998C69.7778 49.8135 69.6303 49.517 69.5059 49.2183C69.3816 48.9196 69.275 48.6061 69.1891 48.286C69.1087 47.9859 68.8894 47.7459 68.6023 47.6444L67.189 47.1449C67.1114 47.1174 67.056 47.0478 67.0505 46.9724C67.0233 46.5675 67.0223 46.1604 67.0473 45.7621Z"/>
</mask>
<path d="M66.9472 47.8286L68.3605 48.328C68.4232 48.3502 68.47 48.4034 68.4888 48.4738C68.5831 48.8246 68.7002 49.1686 68.8364 49.497C68.9731 49.8251 69.1351 50.1506 69.3178 50.4645C69.3548 50.5276 69.3595 50.5979 69.3309 50.658L68.69 52.0133C68.5305 52.3508 68.5842 52.7466 68.8263 53.0221C69.1134 53.3483 69.4244 53.6586 69.7499 53.9435C70.0261 54.1849 70.4219 54.2368 70.759 54.0758L72.1158 53.4277C72.1745 53.3991 72.2441 53.4042 72.3061 53.4401C72.9321 53.8004 73.6034 54.0769 74.3019 54.2622C74.3715 54.2806 74.424 54.3263 74.4458 54.3876L74.9522 55.803C75.0779 56.155 75.3958 56.3971 75.7619 56.42C75.9682 56.433 76.1762 56.4392 76.3847 56.4392C76.6119 56.4392 76.8396 56.4316 77.0661 56.4163C77.4319 56.3917 77.749 56.1485 77.8734 55.7965L78.3728 54.3832C78.395 54.3205 78.4482 54.2734 78.5186 54.2545C78.8683 54.161 79.2127 54.0439 79.5418 53.9069C79.8702 53.7703 80.1957 53.6082 80.5093 53.4256C80.572 53.3889 80.6434 53.3839 80.7032 53.4125L82.0581 54.0534C82.3956 54.2129 82.7914 54.1592 83.0669 53.9171C83.3931 53.63 83.7031 53.3194 83.9883 52.9935C84.2297 52.7173 84.2819 52.3211 84.1206 51.9843L83.4725 50.6276C83.4446 50.5689 83.449 50.4996 83.4848 50.4373C83.8451 49.8113 84.1217 49.1396 84.3069 48.4419C84.3254 48.3723 84.3711 48.3197 84.4324 48.298L85.8482 47.7916C86.1998 47.6654 86.4419 47.3476 86.4648 46.9822C86.492 46.5519 86.4905 46.1133 86.4611 45.6776C86.4365 45.3115 86.1933 44.9944 85.8417 44.8704L84.428 44.3709C84.3653 44.3488 84.3185 44.2955 84.2997 44.2252C84.2055 43.8736 84.0884 43.5296 83.9521 43.2023C83.8151 42.8735 83.6534 42.548 83.4707 42.2345C83.4341 42.1717 83.4294 42.1011 83.4577 42.0409L84.0989 40.6856C84.2584 40.3481 84.2047 39.9523 83.9626 39.6768C83.6737 39.3488 83.3631 39.0389 83.0394 38.7558C82.7628 38.514 82.367 38.4622 82.0302 38.6231L80.6735 39.2712C80.6151 39.2991 80.5455 39.2948 80.4832 39.2589C79.8568 38.8986 79.1855 38.622 78.4874 38.4368C78.4182 38.4183 78.3656 38.3726 78.3438 38.3117L77.8375 36.8959C77.7117 36.5447 77.3938 36.3025 77.0277 36.2793C76.5963 36.2521 76.1574 36.2532 75.7231 36.283C75.357 36.308 75.0402 36.5512 74.9159 36.9028L74.4164 38.3157C74.3943 38.3784 74.341 38.4256 74.2703 38.4444C73.9195 38.5386 73.5751 38.6557 73.2474 38.792C72.919 38.9287 72.5935 39.0907 72.28 39.2734C72.2165 39.3104 72.1455 39.3143 72.086 39.2864L70.7308 38.6456C70.3933 38.4857 69.9978 38.5397 69.7223 38.7819C69.395 39.0697 69.0851 39.3807 68.8009 39.7051C68.5592 39.9813 68.507 40.3771 68.6683 40.7146L69.3164 42.071C69.3443 42.1297 69.3396 42.1993 69.3037 42.2616C68.9434 42.888 68.6668 43.5593 68.4816 44.2574C68.4631 44.327 68.4174 44.3792 68.3565 44.4013L66.9411 44.9077C66.5891 45.0335 66.347 45.3514 66.3241 45.7175C66.2969 46.147 66.2984 46.586 66.3277 47.022C66.3528 47.3881 66.596 47.705 66.9476 47.8293L66.9472 47.8286ZM67.0473 45.7621C67.052 45.6867 67.1071 45.6175 67.1846 45.5895L68.6001 45.0832C68.885 44.9813 69.1025 44.7417 69.1819 44.4423C69.3504 43.8058 69.6027 43.1936 69.9311 42.6227C70.0855 42.3544 70.1 42.0315 69.9695 41.7578L69.3214 40.4011C69.2859 40.3267 69.2953 40.2387 69.3454 40.1818C69.6089 39.8805 69.8967 39.5924 70.2001 39.3252C70.2574 39.2752 70.3451 39.2647 70.4194 39.2998L71.7743 39.9407C72.0494 40.0708 72.3739 40.0552 72.6432 39.899C72.9292 39.7323 73.2257 39.5848 73.5247 39.4604C73.823 39.3361 74.1366 39.2295 74.4566 39.1436C74.7568 39.0632 74.9967 38.8435 75.0982 38.5564L75.5977 37.1431C75.6253 37.0655 75.6945 37.0101 75.7703 37.005C76.1733 36.9782 76.5804 36.9764 76.9802 37.0017C77.0556 37.0065 77.1252 37.0619 77.1531 37.1391L77.6595 38.5546C77.7617 38.8399 78.0009 39.0574 78.3 39.1364C78.9365 39.3049 79.5487 39.5572 80.12 39.886C80.3886 40.0407 80.7119 40.0552 80.9848 39.924L82.3416 39.2759C82.4159 39.24 82.504 39.2502 82.5609 39.2998C82.861 39.5626 83.1496 39.8504 83.4174 40.1546C83.4678 40.2118 83.478 40.2999 83.4428 40.3742L82.8016 41.7295C82.6714 42.005 82.6874 42.3298 82.8436 42.598C83.01 42.884 83.1575 43.1805 83.2822 43.4799C83.4066 43.7779 83.5131 44.0914 83.599 44.4119C83.6795 44.7123 83.8988 44.9523 84.1859 45.0534L85.5995 45.5529C85.6771 45.5805 85.7326 45.6497 85.7376 45.7255C85.7648 46.1296 85.7663 46.5367 85.7409 46.9358C85.7362 47.0112 85.6807 47.0804 85.6035 47.1083L84.1881 47.6147C83.9031 47.7166 83.6857 47.9558 83.6063 48.2552C83.4377 48.8921 83.1854 49.5043 82.8567 50.0752C82.7023 50.3434 82.6881 50.6667 82.8186 50.9397L83.4667 52.2964C83.5022 52.3707 83.4925 52.4588 83.4428 52.5157C83.1782 52.8177 82.8907 53.1059 82.5877 53.3723C82.5308 53.4223 82.4427 53.4328 82.3684 53.3976L81.0131 52.7564C80.7384 52.6267 80.4139 52.6419 80.1446 52.7985C79.8586 52.9652 79.5621 53.1127 79.2634 53.2371C78.9637 53.3618 78.6501 53.4683 78.3312 53.5539C78.031 53.6347 77.7911 53.854 77.6896 54.1411L77.1901 55.5544C77.1625 55.6319 77.0933 55.6874 77.0175 55.6925C76.6148 55.7193 76.2074 55.7211 75.8072 55.6957C75.7318 55.691 75.6626 55.6359 75.6347 55.5584L75.1283 54.1429C75.0265 53.858 74.7869 53.6405 74.4875 53.5611C73.8506 53.3922 73.2384 53.1399 72.6678 52.8119C72.5214 52.7274 72.3583 52.6847 72.1962 52.6847C72.0614 52.6847 71.9273 52.714 71.8033 52.7735L70.4466 53.4216C70.3715 53.4571 70.2842 53.4469 70.2276 53.3976C69.9257 53.1334 69.6375 52.8456 69.3707 52.5429C69.3204 52.4857 69.3102 52.3976 69.3454 52.3233L69.9862 50.9683C70.1164 50.6932 70.1008 50.3684 69.9445 50.0998C69.7778 49.8135 69.6303 49.517 69.5059 49.2183C69.3816 48.9196 69.275 48.6061 69.1891 48.286C69.1087 47.9859 68.8894 47.7459 68.6023 47.6444L67.189 47.1449C67.1114 47.1174 67.056 47.0478 67.0505 46.9724C67.0233 46.5675 67.0223 46.1604 67.0473 45.7621Z" fill="#5801B7"/>
<path d="M66.9472 47.8286L68.3605 48.328C68.4232 48.3502 68.47 48.4034 68.4888 48.4738C68.5831 48.8246 68.7002 49.1686 68.8364 49.497C68.9731 49.8251 69.1351 50.1506 69.3178 50.4645C69.3548 50.5276 69.3595 50.5979 69.3309 50.658L68.69 52.0133C68.5305 52.3508 68.5842 52.7466 68.8263 53.0221C69.1134 53.3483 69.4244 53.6586 69.7499 53.9435C70.0261 54.1849 70.4219 54.2368 70.759 54.0758L72.1158 53.4277C72.1745 53.3991 72.2441 53.4042 72.3061 53.4401C72.9321 53.8004 73.6034 54.0769 74.3019 54.2622C74.3715 54.2806 74.424 54.3263 74.4458 54.3876L74.9522 55.803C75.0779 56.155 75.3958 56.3971 75.7619 56.42C75.9682 56.433 76.1762 56.4392 76.3847 56.4392C76.6119 56.4392 76.8396 56.4316 77.0661 56.4163C77.4319 56.3917 77.749 56.1485 77.8734 55.7965L78.3728 54.3832C78.395 54.3205 78.4482 54.2734 78.5186 54.2545C78.8683 54.161 79.2127 54.0439 79.5418 53.9069C79.8702 53.7703 80.1957 53.6082 80.5093 53.4256C80.572 53.3889 80.6434 53.3839 80.7032 53.4125L82.0581 54.0534C82.3956 54.2129 82.7914 54.1592 83.0669 53.9171C83.3931 53.63 83.7031 53.3194 83.9883 52.9935C84.2297 52.7173 84.2819 52.3211 84.1206 51.9843L83.4725 50.6276C83.4446 50.5689 83.449 50.4996 83.4848 50.4373C83.8451 49.8113 84.1217 49.1396 84.3069 48.4419C84.3254 48.3723 84.3711 48.3197 84.4324 48.298L85.8482 47.7916C86.1998 47.6654 86.4419 47.3476 86.4648 46.9822C86.492 46.5519 86.4905 46.1133 86.4611 45.6776C86.4365 45.3115 86.1933 44.9944 85.8417 44.8704L84.428 44.3709C84.3653 44.3488 84.3185 44.2955 84.2997 44.2252C84.2055 43.8736 84.0884 43.5296 83.9521 43.2023C83.8151 42.8735 83.6534 42.548 83.4707 42.2345C83.4341 42.1717 83.4294 42.1011 83.4577 42.0409L84.0989 40.6856C84.2584 40.3481 84.2047 39.9523 83.9626 39.6768C83.6737 39.3488 83.3631 39.0389 83.0394 38.7558C82.7628 38.514 82.367 38.4622 82.0302 38.6231L80.6735 39.2712C80.6151 39.2991 80.5455 39.2948 80.4832 39.2589C79.8568 38.8986 79.1855 38.622 78.4874 38.4368C78.4182 38.4183 78.3656 38.3726 78.3438 38.3117L77.8375 36.8959C77.7117 36.5447 77.3938 36.3025 77.0277 36.2793C76.5963 36.2521 76.1574 36.2532 75.7231 36.283C75.357 36.308 75.0402 36.5512 74.9159 36.9028L74.4164 38.3157C74.3943 38.3784 74.341 38.4256 74.2703 38.4444C73.9195 38.5386 73.5751 38.6557 73.2474 38.792C72.919 38.9287 72.5935 39.0907 72.28 39.2734C72.2165 39.3104 72.1455 39.3143 72.086 39.2864L70.7308 38.6456C70.3933 38.4857 69.9978 38.5397 69.7223 38.7819C69.395 39.0697 69.0851 39.3807 68.8009 39.7051C68.5592 39.9813 68.507 40.3771 68.6683 40.7146L69.3164 42.071C69.3443 42.1297 69.3396 42.1993 69.3037 42.2616C68.9434 42.888 68.6668 43.5593 68.4816 44.2574C68.4631 44.327 68.4174 44.3792 68.3565 44.4013L66.9411 44.9077C66.5891 45.0335 66.347 45.3514 66.3241 45.7175C66.2969 46.147 66.2984 46.586 66.3277 47.022C66.3528 47.3881 66.596 47.705 66.9476 47.8293L66.9472 47.8286ZM67.0473 45.7621C67.052 45.6867 67.1071 45.6175 67.1846 45.5895L68.6001 45.0832C68.885 44.9813 69.1025 44.7417 69.1819 44.4423C69.3504 43.8058 69.6027 43.1936 69.9311 42.6227C70.0855 42.3544 70.1 42.0315 69.9695 41.7578L69.3214 40.4011C69.2859 40.3267 69.2953 40.2387 69.3454 40.1818C69.6089 39.8805 69.8967 39.5924 70.2001 39.3252C70.2574 39.2752 70.3451 39.2647 70.4194 39.2998L71.7743 39.9407C72.0494 40.0708 72.3739 40.0552 72.6432 39.899C72.9292 39.7323 73.2257 39.5848 73.5247 39.4604C73.823 39.3361 74.1366 39.2295 74.4566 39.1436C74.7568 39.0632 74.9967 38.8435 75.0982 38.5564L75.5977 37.1431C75.6253 37.0655 75.6945 37.0101 75.7703 37.005C76.1733 36.9782 76.5804 36.9764 76.9802 37.0017C77.0556 37.0065 77.1252 37.0619 77.1531 37.1391L77.6595 38.5546C77.7617 38.8399 78.0009 39.0574 78.3 39.1364C78.9365 39.3049 79.5487 39.5572 80.12 39.886C80.3886 40.0407 80.7119 40.0552 80.9848 39.924L82.3416 39.2759C82.4159 39.24 82.504 39.2502 82.5609 39.2998C82.861 39.5626 83.1496 39.8504 83.4174 40.1546C83.4678 40.2118 83.478 40.2999 83.4428 40.3742L82.8016 41.7295C82.6714 42.005 82.6874 42.3298 82.8436 42.598C83.01 42.884 83.1575 43.1805 83.2822 43.4799C83.4066 43.7779 83.5131 44.0914 83.599 44.4119C83.6795 44.7123 83.8988 44.9523 84.1859 45.0534L85.5995 45.5529C85.6771 45.5805 85.7326 45.6497 85.7376 45.7255C85.7648 46.1296 85.7663 46.5367 85.7409 46.9358C85.7362 47.0112 85.6807 47.0804 85.6035 47.1083L84.1881 47.6147C83.9031 47.7166 83.6857 47.9558 83.6063 48.2552C83.4377 48.8921 83.1854 49.5043 82.8567 50.0752C82.7023 50.3434 82.6881 50.6667 82.8186 50.9397L83.4667 52.2964C83.5022 52.3707 83.4925 52.4588 83.4428 52.5157C83.1782 52.8177 82.8907 53.1059 82.5877 53.3723C82.5308 53.4223 82.4427 53.4328 82.3684 53.3976L81.0131 52.7564C80.7384 52.6267 80.4139 52.6419 80.1446 52.7985C79.8586 52.9652 79.5621 53.1127 79.2634 53.2371C78.9637 53.3618 78.6501 53.4683 78.3312 53.5539C78.031 53.6347 77.7911 53.854 77.6896 54.1411L77.1901 55.5544C77.1625 55.6319 77.0933 55.6874 77.0175 55.6925C76.6148 55.7193 76.2074 55.7211 75.8072 55.6957C75.7318 55.691 75.6626 55.6359 75.6347 55.5584L75.1283 54.1429C75.0265 53.858 74.7869 53.6405 74.4875 53.5611C73.8506 53.3922 73.2384 53.1399 72.6678 52.8119C72.5214 52.7274 72.3583 52.6847 72.1962 52.6847C72.0614 52.6847 71.9273 52.714 71.8033 52.7735L70.4466 53.4216C70.3715 53.4571 70.2842 53.4469 70.2276 53.3976C69.9257 53.1334 69.6375 52.8456 69.3707 52.5429C69.3204 52.4857 69.3102 52.3976 69.3454 52.3233L69.9862 50.9683C70.1164 50.6932 70.1008 50.3684 69.9445 50.0998C69.7778 49.8135 69.6303 49.517 69.5059 49.2183C69.3816 48.9196 69.275 48.6061 69.1891 48.286C69.1087 47.9859 68.8894 47.7459 68.6023 47.6444L67.189 47.1449C67.1114 47.1174 67.056 47.0478 67.0505 46.9724C67.0233 46.5675 67.0223 46.1604 67.0473 45.7621Z" stroke="#5801B7" mask="url(#path-3-outside-1_124_3975)"/>
<path d="M71.3584 48.5928C72.1554 50.5064 73.9184 51.729 75.8466 51.9327L75.816 51.9633H76.4195C77.1203 51.9633 77.8323 51.828 78.518 51.5425L78.518 51.5425C81.3049 50.3813 82.6277 47.1699 81.4673 44.3826L81.4673 44.3825C80.9049 43.0331 79.85 41.9819 78.4982 41.4252C77.1461 40.8682 75.6571 40.8717 74.3078 41.4332L74.3077 41.4332C71.5204 42.5941 70.1976 45.8055 71.3584 48.5928L71.3584 48.5928ZM74.7786 42.5647L74.7788 42.5646C75.8267 42.1277 76.9812 42.1252 78.0315 42.5581L78.0316 42.5582C79.0817 42.9907 79.8999 43.8056 80.3362 44.8538L80.3362 44.8539C81.2372 47.0169 80.21 49.5108 78.047 50.4118C75.8832 51.3128 73.3901 50.2856 72.4891 48.1226C71.5885 45.9591 72.6153 43.4653 74.7786 42.5647Z" fill="#5801B7" stroke="#5801B7" stroke-width="0.5"/>
</svg>
