<svg width="119" height="119" viewBox="0 0 119 119" fill="none" xmlns="http://www.w3.org/2000/svg">
<path d="M118.287 59.4734C118.287 92.0122 91.9087 118.39 59.3699 118.39C26.831 118.39 0.453125 92.0122 0.453125 59.4734C0.453125 26.9346 26.831 0.556641 59.3699 0.556641C91.9087 0.556641 118.287 26.9346 118.287 59.4734Z" fill="#F6EDFF"/>
<path d="M38.9706 69.6091L38.9701 69.6088L37.0973 68.1714C39.9192 77.8577 48.7738 84.5447 58.9555 84.5447C69.4666 84.5447 78.5587 77.4308 81.0699 67.2408C81.1867 66.7438 81.6895 66.4441 82.1794 66.5666C82.6684 66.6888 82.9757 67.1844 82.8471 67.6816C80.1338 78.6927 70.3063 86.3823 58.95 86.3823C48.2223 86.3823 38.8638 79.5186 35.5726 69.4797L35.3582 71.1091C35.2969 71.5745 34.899 71.9112 34.4457 71.9112H34.4434C34.4066 71.9112 34.3679 71.9112 34.3228 71.9048M38.9706 69.6091L35.5009 69.2576L35.259 71.0961C35.2044 71.511 34.8496 71.8112 34.4457 71.8112C34.4075 71.8112 34.3747 71.8112 34.3365 71.8057C33.8889 71.7457 33.5723 71.3363 33.6323 70.8887L33.5332 70.8757L33.5332 70.8755C33.4658 71.3784 33.8214 71.8373 34.3228 71.9048M38.9706 69.6091C39.374 69.9147 39.9501 69.8422 40.2571 69.437C40.5626 69.0337 40.4902 68.4577 40.0851 68.1507C40.085 68.1506 40.085 68.1506 40.0849 68.1505L35.7188 64.8104C35.46 64.6074 35.1104 64.5655 34.8054 64.6936C34.4996 64.822 34.2911 65.0979 34.2483 65.4223L34.2483 65.4224L33.5332 70.8754L38.9706 69.6091ZM34.3228 71.9048C34.3226 71.9048 34.3225 71.9047 34.3223 71.9047L34.3365 71.8057L34.3232 71.9048C34.3231 71.9048 34.3229 71.9048 34.3228 71.9048Z" fill="#1D1D1D" stroke="#1D1D1D" stroke-width="0.2"/>
<path d="M58.9551 78.459C68.7099 78.459 76.6524 70.522 76.6524 60.7617C76.6524 51.0015 68.7099 43.0645 58.9551 43.0645C49.2003 43.0645 41.2578 51.0015 41.2578 60.7617C41.2578 70.522 49.1948 78.459 58.9551 78.459ZM42.9173 61.5805H49.0529C49.2058 67.7708 51.0563 73.0385 53.8184 75.9698C47.721 73.9064 43.2557 68.2839 42.9173 61.5805ZM59.7739 76.7395V61.5805H67.2196C67.0068 69.392 63.7533 75.9371 59.7739 76.7395ZM59.7739 59.9429V44.784C63.7533 45.5809 67.0068 52.126 67.2196 59.9429H59.7739ZM58.1363 44.784V59.9429H50.6905C50.9034 52.1314 54.1568 45.5864 58.1363 44.784ZM58.1363 61.5805V76.7395C54.1568 75.9371 50.9034 69.392 50.6905 61.5805H58.1363ZM64.0918 75.9698C66.8539 73.0385 68.7099 67.7708 68.8573 61.5805H74.9929C74.6545 68.2839 70.1892 73.9064 64.0918 75.9698ZM74.9929 59.9429H68.8573C68.7044 53.7527 66.8539 48.485 64.0918 45.5536C70.1892 47.6171 74.6545 53.2396 74.9929 59.9429ZM53.8184 45.5536C51.0563 48.485 49.2003 53.7582 49.0529 59.9429H42.9173C43.2557 53.2396 47.721 47.6171 53.8184 45.5536Z" fill="#5801B7"/>
<path d="M58.9496 36.9974C68.7186 36.9974 77.2599 43.144 80.4301 52.1963L79.0604 51.1472L79.0599 51.1469C78.6566 50.8413 78.0805 50.9138 77.7735 51.3191C77.468 51.7224 77.5404 52.2983 77.9454 52.6053C77.9455 52.6054 77.9456 52.6055 77.9457 52.6055L82.3123 55.946L82.3135 55.9469C82.477 56.068 82.6723 56.1358 82.8698 56.1358C82.9871 56.1358 83.108 56.1112 83.221 56.0696L83.221 56.0697L83.2252 56.0679C83.531 55.9395 83.7395 55.6636 83.7823 55.3392L83.7823 55.3391L84.4974 49.8859L84.4977 49.8836C84.5525 49.3783 84.205 48.9187 83.6965 48.8512C83.1991 48.7837 82.7343 49.1393 82.667 49.6412L82.6669 49.6416L82.3434 52.1186C79.0719 42.0489 69.6979 35.1598 58.9496 35.1598C47.5932 35.1598 37.7655 42.8496 35.0523 53.8609C34.9298 54.3513 35.2301 54.8532 35.7259 54.9756C36.2212 55.0979 36.7183 54.7982 36.8351 54.3015C39.3462 44.1114 48.4384 36.9974 58.9496 36.9974Z" fill="#1D1D1D" stroke="#1D1D1D" stroke-width="0.2"/>
</svg>
