<svg width="127" height="127" viewBox="0 0 127 127" fill="none" xmlns="http://www.w3.org/2000/svg">
<g filter="url(#filter0_d_124_4591)">
<circle cx="63.6511" cy="59.1765" r="58.9167" fill="#F6EDFF"/>
<path d="M78.0119 44.6199L78.0119 44.6199C77.8712 44.5018 77.6997 44.4264 77.5176 44.4024C77.3355 44.3784 77.1503 44.4069 76.9838 44.4845C76.8173 44.5622 76.6764 44.6857 76.5777 44.8406C76.479 44.9955 76.4265 45.1754 76.4265 45.3591V51.2159H54.8684C54.6125 51.2159 54.367 51.3176 54.1861 51.4986C54.0051 51.6795 53.9034 51.925 53.9034 52.1809C53.9034 52.4368 54.0051 52.6823 54.1861 52.8633C54.367 53.0442 54.6125 53.1459 54.8684 53.1459H77.3915C77.5182 53.1459 77.6437 53.121 77.7608 53.0725C77.8779 53.024 77.9843 52.9529 78.0739 52.8633C78.1635 52.7737 78.2346 52.6673 78.2831 52.5502C78.3316 52.4331 78.3565 52.3076 78.3565 52.1809V47.4293L87.4226 55.042L78.3565 63.6807V59.1112C78.3565 58.9845 78.3316 58.859 78.2831 58.7419C78.2346 58.6248 78.1635 58.5184 78.0739 58.4288C77.9843 58.3392 77.8779 58.2681 77.7608 58.2196C77.6437 58.1712 77.5182 58.1462 77.3915 58.1462H71.2616C71.2585 58.1453 71.254 58.1441 71.249 58.143C71.2415 58.1414 71.2315 58.1398 71.2198 58.1398H51.0422V52.283C51.0422 52.0992 50.9898 51.9194 50.8911 51.7645C50.7923 51.6095 50.6515 51.486 50.485 51.4084C50.3185 51.3308 50.1333 51.3023 49.9512 51.3262C49.7691 51.3502 49.5976 51.4257 49.4569 51.5437L49.4568 51.5438L37.979 61.1811C37.875 61.2684 37.7906 61.3766 37.7313 61.4988C37.672 61.6209 37.6391 61.7542 37.6349 61.8899C37.6306 62.0256 37.655 62.1606 37.7065 62.2862C37.758 62.4119 37.8354 62.5252 37.9337 62.6188C37.9338 62.6188 37.9338 62.6188 37.9338 62.6188L49.4116 73.5553C49.5483 73.6856 49.7203 73.7729 49.9061 73.8064C50.092 73.8399 50.2836 73.8181 50.4572 73.7437C50.6308 73.6694 50.7788 73.5457 50.8828 73.3881C50.9868 73.2304 51.0422 73.0457 51.0422 72.8569V67H72.6004C72.8563 67 73.1017 66.8983 73.2827 66.7174C73.4637 66.5364 73.5653 66.291 73.5653 66.035C73.5653 65.7791 73.4637 65.5337 73.2827 65.3527C73.1017 65.1717 72.8563 65.0701 72.6004 65.0701H50.0773C49.9505 65.07 49.8251 65.095 49.708 65.1435C49.5909 65.192 49.4845 65.2631 49.3949 65.3527C49.3053 65.4423 49.2342 65.5487 49.1857 65.6657C49.1372 65.7828 49.1123 65.9083 49.1123 66.035V70.6046L40.0461 61.9659L49.1123 54.3531V59.1048C49.1123 59.2315 49.1372 59.357 49.1857 59.4741C49.2342 59.5912 49.3053 59.6975 49.3949 59.7872C49.4845 59.8768 49.5909 59.9478 49.708 59.9963C49.8251 60.0448 49.9505 60.0698 50.0773 60.0698H70.4197C70.4228 60.0707 70.4273 60.0719 70.4323 60.073C70.4399 60.0746 70.4498 60.0762 70.4616 60.0762H76.4265V65.933C76.4265 66.1219 76.4819 66.3066 76.5859 66.4643C76.6899 66.622 76.8379 66.7457 77.0115 66.8201C77.1851 66.8944 77.3768 66.9162 77.5626 66.8827C77.7485 66.8492 77.9205 66.7618 78.0572 66.6315L89.535 55.695C89.6333 55.6013 89.7107 55.488 89.7622 55.3624C89.8138 55.2368 89.8382 55.1017 89.8339 54.966C89.8296 54.8303 89.7968 54.6971 89.7375 54.5749C89.6782 54.4528 89.5938 54.3446 89.4898 54.2573C89.4898 54.2573 89.4898 54.2573 89.4898 54.2573L78.0119 44.6199Z" fill="#5801B7" stroke="#5801B7" stroke-width="0.2"/>
<path d="M39.8486 56.5312L39.8486 56.5312C40.1165 56.5583 40.3841 56.4779 40.5926 56.3077C40.8011 56.1376 40.9335 55.8916 40.9607 55.6238C41.3715 51.6174 42.8357 47.7912 45.2044 44.5341C47.5732 41.2769 50.7621 38.705 54.447 37.0797C58.1319 35.4544 62.1814 34.8337 66.1839 35.2806C70.1864 35.7276 73.9993 37.2262 77.2349 39.6243L77.2349 39.6243C77.451 39.7844 77.7219 39.8522 77.9879 39.8127C78.254 39.7733 78.4935 39.6298 78.6538 39.4139C78.8142 39.198 78.8822 38.9272 78.8431 38.6611C78.8039 38.395 78.6607 38.1554 78.445 37.9948L78.4447 37.9946C74.9211 35.3826 70.7688 33.7502 66.4098 33.2633C62.0507 32.7764 57.6405 33.4523 53.6274 35.2224C49.6143 36.9925 46.1415 39.7937 43.5619 43.3411C40.9824 46.8884 39.3881 51.0556 38.9411 55.4189L38.9411 55.4191C38.914 55.6869 38.9944 55.9545 39.1646 56.1631C39.3348 56.3716 39.5808 56.504 39.8486 56.5312Z" fill="#1D1D1D" stroke="#1D1D1D" stroke-width="0.3"/>
<path d="M87.4889 60.2369L87.4893 60.2369C87.6223 60.2459 87.7522 60.281 87.8716 60.3402C87.9911 60.3994 88.0976 60.4816 88.1853 60.582C88.273 60.6824 88.34 60.7991 88.3825 60.9254C88.4251 61.0517 88.4424 61.1852 88.4333 61.3182L88.4333 61.3186C87.9898 67.5922 85.188 73.4654 80.5912 77.7576C75.9943 82.0499 69.9432 84.4431 63.654 84.4561C63.6539 84.4561 63.6539 84.4561 63.6539 84.4561L63.6536 84.3061C58.3464 84.3212 53.178 82.6115 48.9267 79.4346L87.4889 60.2369ZM87.4889 60.2369C87.2206 60.2195 86.9564 60.3089 86.7539 60.4858M87.4889 60.2369L86.7539 60.4858M86.4082 61.1805C86.4082 61.1805 86.4082 61.1805 86.4082 61.1805L86.5578 61.1911L86.4082 61.1805ZM86.4082 61.1805C86.4271 60.9124 86.5513 60.6626 86.7539 60.4858M86.4082 61.1805L86.7539 60.4858M63.6535 82.5762C58.7187 82.5904 53.9129 81.0007 49.9599 78.0466L63.6535 82.5762Z" fill="#1D1D1D" stroke="#1D1D1D" stroke-width="0.3"/>
</g>
<defs>
<filter id="filter0_d_124_4591" x="0.734375" y="0.259766" width="125.833" height="125.833" filterUnits="userSpaceOnUse" color-interpolation-filters="sRGB">
<feFlood flood-opacity="0" result="BackgroundImageFix"/>
<feColorMatrix in="SourceAlpha" type="matrix" values="0 0 0 0 0 0 0 0 0 0 0 0 0 0 0 0 0 0 127 0" result="hardAlpha"/>
<feOffset dy="4"/>
<feGaussianBlur stdDeviation="2"/>
<feComposite in2="hardAlpha" operator="out"/>
<feColorMatrix type="matrix" values="0 0 0 0 0 0 0 0 0 0 0 0 0 0 0 0 0 0 0.25 0"/>
<feBlend mode="normal" in2="BackgroundImageFix" result="effect1_dropShadow_124_4591"/>
<feBlend mode="normal" in="SourceGraphic" in2="effect1_dropShadow_124_4591" result="shape"/>
</filter>
</defs>
</svg>
