<svg width="14" height="23" viewBox="0 0 14 23" fill="none" xmlns="http://www.w3.org/2000/svg">
<path d="M11.2249 9.67901C11.0402 9.4111 10.7358 9.2514 10.4104 9.2514H4.66268L4.49234 8.54358L4.49234 8.54357C4.38857 8.11276 4.00656 7.81163 3.56333 7.81163H3.04012C2.83371 7.81163 2.66662 7.97872 2.66662 8.18513C2.66662 8.39154 2.83371 8.55863 3.04012 8.55863H3.56333C3.66003 8.55863 3.74339 8.62435 3.76601 8.71838L4.25949 10.7701L4.82336 13.1148L4.82272 13.115L4.82426 13.118L5.01178 13.8973C5.11299 14.3184 5.48618 14.6125 5.91919 14.6125H11.0084C11.2149 14.6125 11.3819 14.4454 11.3819 14.239C11.3819 14.0326 11.2149 13.8655 11.0084 13.8655H5.91942C5.83293 13.8655 5.75843 13.8068 5.73835 13.7228L5.73834 13.7228L5.66096 13.4009H9.58587C9.99401 13.4012 10.3655 13.1447 10.5105 12.7631L11.3352 10.5922L11.3352 10.5921C11.4506 10.288 11.4096 9.9467 11.2249 9.67901ZM11.2249 9.67901L11.2043 9.6932L11.2249 9.679C11.2249 9.67901 11.2249 9.67901 11.2249 9.67901ZM4.84222 9.99863H10.4102C10.4912 9.99863 10.5636 10.0366 10.6096 10.1033C10.6556 10.17 10.6655 10.2515 10.6366 10.3269L10.6366 10.327L9.81179 12.4979L9.81178 12.4979C9.77644 12.5911 9.68514 12.6541 9.5854 12.6541H5.48119L4.84222 9.99863ZM10.9866 0.975H3.08031C1.91947 0.975 0.975 1.91947 0.975 3.08031V20.5197C0.975 21.6805 1.91947 22.625 3.08031 22.625H10.9866C12.1474 22.625 13.0919 21.6805 13.0919 20.5197V3.08031C13.0919 1.91947 12.1474 0.975 10.9866 0.975ZM12.3449 20.5197C12.3449 21.2686 11.7355 21.878 10.9866 21.878H3.08031C2.33137 21.878 1.722 21.2686 1.722 20.5197V3.08031C1.722 2.33137 2.33137 1.722 3.08031 1.722H10.9866C11.7355 1.722 12.3449 2.33137 12.3449 3.08031V20.5197ZM6.45239 15.016C5.89446 15.016 5.44067 15.4698 5.44067 16.0278C5.44067 16.5857 5.89446 17.0395 6.45239 17.0395C7.01032 17.0395 7.46411 16.5857 7.46411 16.0278C7.46411 15.4698 7.01009 15.016 6.45239 15.016ZM6.45239 16.2923C6.30635 16.2923 6.18767 16.1736 6.18767 16.0275C6.18767 15.8815 6.30635 15.7628 6.45239 15.7628C6.59843 15.7628 6.71711 15.8815 6.71711 16.0275C6.71711 16.1736 6.59821 16.2923 6.45239 16.2923ZM10.2327 15.016C9.67475 15.016 9.22096 15.4698 9.22096 16.0278C9.22096 16.5857 9.67475 17.0395 10.2327 17.0395C10.7906 17.0395 11.2444 16.5857 11.2444 16.0278C11.2444 15.4698 10.7906 15.016 10.2327 15.016ZM10.2327 16.2923C10.0866 16.2923 9.96796 16.1736 9.96796 16.0275C9.96796 15.8815 10.0866 15.7628 10.2327 15.7628C10.3787 15.7628 10.4974 15.8815 10.4974 16.0275C10.4974 16.1736 10.3787 16.2923 10.2327 16.2923ZM5.8 2.78302C5.59359 2.78302 5.4265 2.9501 5.4265 3.15652C5.4265 3.36294 5.59383 3.53001 5.8 3.53001H8.26668C8.47309 3.53001 8.64018 3.36293 8.64018 3.15652C8.64018 2.9501 8.47309 2.78302 8.26668 2.78302H5.8Z" fill="#525252" stroke="#525252" stroke-width="0.05"/>
</svg>
