<svg width="118" height="118" viewBox="0 0 118 118" fill="none" xmlns="http://www.w3.org/2000/svg">
<circle cx="59.4219" cy="58.8125" r="58.5" fill="#F6EDFF"/>
<path d="M59.7756 42.6641C59.5399 42.6641 59.3138 42.7577 59.1471 42.9244C58.9804 43.0911 58.8867 43.3172 58.8867 43.553V59.553L69.9089 66.273C70.0703 66.3657 70.2576 66.4032 70.4423 66.3796C70.6325 66.3754 70.8163 66.3103 70.9667 66.1938C71.1171 66.0774 71.2262 65.9157 71.2779 65.7327C71.3297 65.5496 71.3213 65.3548 71.2541 65.1769C71.1869 64.9989 71.0643 64.8472 70.9045 64.7441L60.6645 58.5574V43.553C60.6645 43.3172 60.5708 43.0911 60.4041 42.9244C60.2374 42.7577 60.0114 42.6641 59.7756 42.6641Z" fill="#5801B7"/>
<path d="M49.4489 68.5647C49.4489 68.3289 49.3552 68.1028 49.1885 67.9361C49.0218 67.7694 48.7957 67.6758 48.56 67.6758H34.8889C34.6531 67.6758 34.427 67.7694 34.2603 67.9361C34.0937 68.1028 34 68.3289 34 68.5647C34 68.8004 34.0937 69.0265 34.2603 69.1932C34.427 69.3599 34.6531 69.4536 34.8889 69.4536H48.56C48.7943 69.449 49.0178 69.3539 49.1835 69.1882C49.3492 69.0225 49.4443 68.799 49.4489 68.5647Z" fill="black"/>
<path d="M51.2284 73.133C51.2284 72.8973 51.1348 72.6712 50.9681 72.5045C50.8014 72.3378 50.5753 72.2441 50.3395 72.2441H39.7795C39.5438 72.2441 39.3177 72.3378 39.151 72.5045C38.9843 72.6712 38.8906 72.8973 38.8906 73.133C38.8952 73.3674 38.9903 73.5908 39.156 73.7565C39.3217 73.9223 39.5452 74.0174 39.7795 74.0219H50.3395C50.5738 74.0174 50.7973 73.9223 50.963 73.7565C51.1287 73.5908 51.2239 73.3674 51.2284 73.133Z" fill="black"/>
<path d="M52.1161 76.8125H45.2717C45.036 76.8125 44.8099 76.9061 44.6432 77.0728C44.4765 77.2395 44.3828 77.4656 44.3828 77.7014C44.3828 77.9371 44.4765 78.1632 44.6432 78.3299C44.8099 78.4966 45.036 78.5903 45.2717 78.5903H52.1161C52.3519 78.5903 52.578 78.4966 52.7447 78.3299C52.9114 78.1632 53.005 77.9371 53.005 77.7014C53.005 77.4656 52.9114 77.2395 52.7447 77.0728C52.578 76.9061 52.3519 76.8125 52.1161 76.8125Z" fill="black"/>
<path d="M59.7779 35.0533C56.2944 35.0558 52.8531 35.8161 49.6928 37.2813C46.5324 38.7465 43.7286 40.8817 41.4758 43.5387C39.223 46.1957 37.5751 49.311 36.6465 52.6685C35.7178 56.0259 35.5307 59.5452 36.0979 62.9822C36.1357 63.218 36.2655 63.4291 36.4588 63.5691C36.6522 63.7091 36.8933 63.7666 37.129 63.7289C37.3648 63.6912 37.5759 63.5613 37.7159 63.368C37.856 63.1746 37.9134 62.9335 37.8757 62.6978C37.6813 61.5224 37.5803 60.3335 37.5735 59.1422C37.5559 54.7426 38.8447 50.4367 41.2766 46.7702C43.7084 43.1038 47.1739 40.2417 51.234 38.5466C55.294 36.8515 59.7658 36.3998 64.0828 37.2486C68.3999 38.0974 72.3678 40.2086 75.4838 43.3147C78.5998 46.4207 80.7237 50.3818 81.5864 54.6961C82.4491 59.0104 82.0117 63.4836 80.3296 67.5491C78.6476 71.6145 75.7966 75.0892 72.138 77.5328C68.4793 79.9764 64.1776 81.279 59.7779 81.2756C57.9798 81.2602 56.1897 81.0335 54.4446 80.6C54.3325 80.5682 54.215 80.5597 54.0995 80.5751C53.9839 80.5904 53.8728 80.6293 53.7728 80.6893C53.6729 80.7492 53.5863 80.829 53.5184 80.9237C53.4504 81.0185 53.4026 81.1261 53.3779 81.24C53.3234 81.4685 53.3596 81.7092 53.479 81.9114C53.5983 82.1137 53.7916 82.2618 54.0179 82.3244C55.8874 82.7711 57.8026 82.9978 59.7246 83C66.0898 83 72.1943 80.4714 76.6952 75.9706C81.196 71.4697 83.7246 65.3652 83.7246 59C83.7246 52.6348 81.196 46.5303 76.6952 42.0294C72.1943 37.5286 66.0898 35 59.7246 35L59.7779 35.0533Z" fill="black"/>
</svg>
