<svg width="119" height="119" viewBox="0 0 119 119" fill="none" xmlns="http://www.w3.org/2000/svg">
<circle cx="59.6511" cy="59.5261" r="58.9167" fill="#F6EDFF"/>
<path d="M73.9476 45.7493C73.8215 45.6434 73.6678 45.5758 73.5045 45.5543C73.3413 45.5328 73.1753 45.5583 73.026 45.6279C72.8768 45.6975 72.7505 45.8082 72.662 45.9471C72.5735 46.0859 72.5265 46.2472 72.5265 46.4118V52.3687H50.8684C50.639 52.3687 50.419 52.4598 50.2568 52.622C50.0946 52.7842 50.0034 53.0043 50.0034 53.2337C50.0034 53.4631 50.0946 53.6831 50.2568 53.8453C50.419 54.0075 50.639 54.0986 50.8684 54.0986H73.3915C73.5051 54.0986 73.6176 54.0763 73.7225 54.0328C73.8275 53.9893 73.9228 53.9256 74.0032 53.8453C74.0835 53.765 74.1472 53.6696 74.1907 53.5647C74.2341 53.4597 74.2565 53.3472 74.2565 53.2337V48.2675L83.5725 56.0901L74.2565 64.9669V60.1639C74.2565 60.0503 74.2341 59.9378 74.1907 59.8329C74.1472 59.7279 74.0835 59.6326 74.0032 59.5523C73.9228 59.4719 73.8275 59.4082 73.7225 59.3648C73.6176 59.3213 73.5051 59.2989 73.3915 59.2989H67.2516C67.2404 59.2985 67.2311 59.2925 67.2198 59.2925H46.9422V53.3357C46.9422 53.171 46.8952 53.0098 46.8067 52.8709C46.7182 52.7321 46.592 52.6213 46.4427 52.5518C46.2935 52.4822 46.1275 52.4566 45.9643 52.4781C45.801 52.4996 45.6473 52.5672 45.5211 52.6731L34.0433 62.3105C33.9501 62.3887 33.8744 62.4857 33.8212 62.5952C33.7681 62.7047 33.7386 62.8241 33.7348 62.9457C33.731 63.0674 33.7529 63.1885 33.799 63.301C33.8452 63.4136 33.9146 63.5152 34.0027 63.5992L45.4806 74.5357C45.6031 74.6524 45.7573 74.7307 45.9239 74.7607C46.0905 74.7907 46.2622 74.7712 46.4178 74.7046C46.5734 74.6379 46.7061 74.5271 46.7993 74.3857C46.8925 74.2444 46.9422 74.0789 46.9422 73.9096V67.9527H68.6004C68.8298 67.9527 69.0498 67.8616 69.212 67.6994C69.3742 67.5372 69.4653 67.3172 69.4653 67.0878C69.4653 66.8584 69.3742 66.6383 69.212 66.4761C69.0498 66.3139 68.8298 66.2228 68.6004 66.2228H46.0773C45.9637 66.2228 45.8512 66.2451 45.7462 66.2886C45.6413 66.3321 45.5459 66.3958 45.4656 66.4761C45.3853 66.5564 45.3216 66.6518 45.2781 66.7567C45.2346 66.8617 45.2123 66.9742 45.2123 67.0878V71.8907L35.8962 63.0139L45.2123 55.1913V60.1575C45.2123 60.2711 45.2346 60.3836 45.2781 60.4886C45.3216 60.5935 45.3853 60.6889 45.4656 60.7692C45.5459 60.8495 45.6413 60.9132 45.7462 60.9567C45.8512 61.0001 45.9637 61.0225 46.0773 61.0225H66.4298C66.4409 61.0229 66.4503 61.0289 66.4616 61.0289H72.5265V66.9858C72.5265 67.1551 72.5762 67.3207 72.6694 67.462C72.7626 67.6033 72.8953 67.7142 73.0509 67.7809C73.2065 67.8475 73.3783 67.867 73.5449 67.837C73.7115 67.807 73.8657 67.7287 73.9882 67.6119L85.466 56.6753C85.5541 56.5914 85.6236 56.4898 85.6697 56.3772C85.7159 56.2646 85.7378 56.1435 85.7339 56.0219C85.7301 55.9003 85.7007 55.7808 85.6475 55.6713C85.5944 55.5619 85.5187 55.4649 85.4255 55.3866L73.9476 45.7493Z" fill="#5801B7"/>
<path d="M35.8637 58.4347C36.092 58.4578 36.32 58.3893 36.4978 58.2442C36.6755 58.0992 36.7883 57.8895 36.8115 57.6613C37.225 53.6285 38.6988 49.7771 41.0831 46.4986C43.4675 43.22 46.6773 40.6312 50.3864 38.9952C54.0956 37.3592 58.1717 36.7344 62.2005 37.1843C66.2294 37.6342 70.0673 39.1427 73.3242 41.5565C73.5084 41.693 73.7392 41.7507 73.9659 41.7171C74.1926 41.6835 74.3967 41.5612 74.5334 41.3772C74.67 41.1932 74.728 40.9625 74.6947 40.7357C74.6613 40.5089 74.5393 40.3047 74.3554 40.1678C70.8531 37.5717 66.7258 35.9491 62.3931 35.4651C58.0604 34.9811 53.6768 35.653 49.688 37.4124C45.6991 39.1718 42.2472 41.956 39.6832 45.482C37.1192 49.008 35.5346 53.15 35.0903 57.4869C35.0672 57.7152 35.1358 57.9432 35.2808 58.1209C35.4258 58.2987 35.6355 58.4115 35.8637 58.4347Z" fill="black"/>
<path d="M83.4792 60.4159C83.2505 60.401 83.0252 60.4773 82.8525 60.628C82.6799 60.7788 82.5739 60.9918 82.5578 61.2204C82.1477 67.019 79.5578 72.4475 75.3088 76.4147C71.0599 80.3819 65.4667 82.5937 59.6535 82.6055C54.7187 82.6197 49.9129 81.03 45.9599 78.0759C45.7759 77.9389 45.5449 77.8806 45.3179 77.9139C45.0908 77.9471 44.8863 78.0692 44.7493 78.2533C44.6123 78.4373 44.554 78.6683 44.5873 78.8953C44.6205 79.1224 44.7426 79.3269 44.9267 79.4639C49.178 82.6408 54.3464 84.3505 59.6536 84.3354C65.9049 84.3225 71.9196 81.9437 76.4888 77.6773C81.0579 73.4109 83.8428 67.5731 84.2837 61.3373C84.2914 61.224 84.2767 61.1102 84.2404 61.0026C84.2041 60.8949 84.147 60.7955 84.0723 60.7099C83.9976 60.6244 83.9068 60.5544 83.805 60.5039C83.7032 60.4535 83.5925 60.4235 83.4792 60.4159Z" fill="black"/>
</svg>
