<svg width="15" height="24" viewBox="0 0 15 24" fill="none" xmlns="http://www.w3.org/2000/svg">
<path d="M12.7014 2.96502H11.9097V0.460121C11.9097 0.452769 11.9023 0.448173 11.9009 0.44128C11.8977 0.356727 11.8793 0.271714 11.8274 0.19727C11.6826 -0.0108979 11.3964 -0.0623651 11.1877 0.0828466L10.1313 0.819015L9.07481 0.0828466C8.91765 -0.0269812 8.70719 -0.0274408 8.54911 0.0828466L7.4954 0.818095L6.44216 0.0828466C6.28408 -0.0274408 6.07408 -0.0274408 5.916 0.0828466L4.86275 0.818095L3.81135 0.0828466C3.60226 -0.0623651 3.31643 -0.0118169 3.17122 0.196351C3.11883 0.271254 3.10045 0.356267 3.09724 0.440821C3.09586 0.447714 3.08851 0.452309 3.08851 0.459202V2.9641H2.29765C1.03073 2.9641 0 3.99483 0 5.26176V12.0306C0 13.1707 0.403927 14.2782 1.1378 15.1486C1.73197 15.853 2.05916 16.7514 2.05916 17.6783V21.1248C2.05916 22.3917 3.08988 23.4224 4.35681 23.4224H10.6432C11.9101 23.4224 12.9408 22.3917 12.9408 21.1248V17.6783C12.9408 16.7514 13.268 15.853 13.8622 15.1486C14.5961 14.2782 15 13.1712 15 12.0306V5.26176C14.9991 3.99575 13.9684 2.96502 12.7014 2.96502ZM5.12652 1.75554L6.17977 1.02029L7.23301 1.75554C7.31205 1.81068 7.40396 1.83825 7.49586 1.83825C7.58777 1.83825 7.67968 1.81068 7.75872 1.75554L8.81242 1.01983L9.86888 1.75554C10.026 1.86537 10.237 1.86537 10.3941 1.75554L10.9911 1.33966V4.91711H4.00803V1.34196L4.5999 1.75554C4.7589 1.86628 4.96845 1.86628 5.12652 1.75554ZM14.08 12.0316C14.08 12.9552 13.7528 13.8522 13.1587 14.5571C12.4248 15.427 12.0209 16.5359 12.0209 17.6792V21.1257C12.0209 21.8857 11.4023 22.5043 10.6423 22.5043H4.35635C3.59629 22.5043 2.97776 21.8857 2.97776 21.1257V17.6792C2.97776 16.5359 2.57383 15.427 1.83996 14.5571C1.24579 13.8522 0.918602 12.9557 0.918602 12.0316V5.26268C0.918602 4.50261 1.53713 3.88408 2.29719 3.88408H3.08897V4.91803H2.95892C2.7048 4.91803 2.49939 5.1239 2.49939 5.37756C2.49939 5.63122 2.7048 5.83709 2.95892 5.83709H12.0402C12.2943 5.83709 12.4997 5.63122 12.4997 5.37756C12.4997 5.1239 12.2943 4.91803 12.0402 4.91803H11.9101V3.88408H12.7019C13.462 3.88408 14.0805 4.50261 14.0805 5.26268L14.08 12.0316Z" fill="#525252"/>
<path d="M11.0686 6.68359H3.9266C2.98686 6.68359 2.22266 7.44779 2.22266 8.38753V12.0137C2.22266 12.953 2.98686 13.7176 3.9266 13.7176H11.0682C12.0079 13.7176 12.7721 12.9534 12.7721 12.0137V8.38753C12.7726 7.44825 12.0079 6.68359 11.0686 6.68359ZM11.8535 12.0137C11.8535 12.4461 11.501 12.7986 11.0686 12.7986H3.9266C3.49418 12.7986 3.14172 12.4466 3.14172 12.0137V8.38753C3.14172 7.95512 3.49418 7.60266 3.9266 7.60266H11.0682C11.5006 7.60266 11.853 7.95466 11.853 8.38753L11.8535 12.0137Z" fill="#525252"/>
<path d="M5.18121 15.2383H4.30719C4.05307 15.2383 3.84766 15.4442 3.84766 15.6978C3.84766 15.9515 4.05307 16.1573 4.30719 16.1573H5.18121C5.43533 16.1573 5.64075 15.9515 5.64075 15.6978C5.64075 15.4442 5.43533 15.2383 5.18121 15.2383Z" fill="#525252"/>
<path d="M10.6968 15.2383H9.82281C9.56869 15.2383 9.36328 15.4442 9.36328 15.6978C9.36328 15.9515 9.56869 16.1573 9.82281 16.1573H10.6968C10.951 16.1573 11.1564 15.9515 11.1564 15.6978C11.1564 15.4442 10.951 15.2383 10.6968 15.2383Z" fill="#525252"/>
<path d="M7.93512 15.2383H7.06109C6.80697 15.2383 6.60156 15.4442 6.60156 15.6978C6.60156 15.9515 6.80697 16.1573 7.06109 16.1573H7.93512C8.18924 16.1573 8.39465 15.9515 8.39465 15.6978C8.39465 15.4442 8.18924 15.2383 7.93512 15.2383Z" fill="#525252"/>
<path d="M5.18121 17.4961H4.30719C4.05307 17.4961 3.84766 17.702 3.84766 17.9556C3.84766 18.2093 4.05307 18.4152 4.30719 18.4152H5.18121C5.43533 18.4152 5.64075 18.2093 5.64075 17.9556C5.64075 17.702 5.43533 17.4961 5.18121 17.4961Z" fill="#525252"/>
<path d="M10.6968 17.4961H9.82281C9.56869 17.4961 9.36328 17.702 9.36328 17.9556C9.36328 18.2093 9.56869 18.4152 9.82281 18.4152H10.6968C10.951 18.4152 11.1564 18.2093 11.1564 17.9556C11.1564 17.702 10.951 17.4961 10.6968 17.4961Z" fill="#525252"/>
<path d="M7.93512 17.4961H7.06109C6.80697 17.4961 6.60156 17.702 6.60156 17.9556C6.60156 18.2093 6.80697 18.4152 7.06109 18.4152H7.93512C8.18924 18.4152 8.39465 18.2093 8.39465 17.9556C8.39465 17.702 8.18924 17.4961 7.93512 17.4961Z" fill="#525252"/>
<path d="M5.18121 19.75H4.30719C4.05307 19.75 3.84766 19.9559 3.84766 20.2095C3.84766 20.4632 4.05307 20.6691 4.30719 20.6691H5.18121C5.43533 20.6691 5.64075 20.4632 5.64075 20.2095C5.64075 19.9559 5.43533 19.75 5.18121 19.75Z" fill="#525252"/>
<path d="M10.6968 19.75H9.82281C9.56869 19.75 9.36328 19.9559 9.36328 20.2095C9.36328 20.4632 9.56869 20.6691 9.82281 20.6691H10.6968C10.951 20.6691 11.1564 20.4632 11.1564 20.2095C11.1564 19.9559 10.951 19.75 10.6968 19.75Z" fill="#525252"/>
<path d="M7.93512 19.75H7.06109C6.80697 19.75 6.60156 19.9559 6.60156 20.2095C6.60156 20.4632 6.80697 20.6691 7.06109 20.6691H7.93512C8.18924 20.6691 8.39465 20.4632 8.39465 20.2095C8.39465 19.9559 8.18924 19.75 7.93512 19.75Z" fill="#525252"/>
</svg>
