<svg width="119" height="118" viewBox="0 0 119 118" fill="none" xmlns="http://www.w3.org/2000/svg">
<circle cx="59.6093" cy="58.8593" r="58.8593" fill="#F6EDFF"/>
<path d="M76.7533 46.788V46.6246L76.6236 46.724L62.9803 57.1809L62.9072 57.2368L62.9723 57.3019L65.9778 60.3074C66.3749 60.7045 66.3749 61.3483 65.9778 61.7454C65.5807 62.1425 64.9368 62.1425 64.5397 61.7454L61.329 58.5347L61.279 58.4847L61.223 58.5277L55.3415 63.0356C54.9765 63.3153 54.4693 63.3153 54.1043 63.0356L48.2228 58.5277L48.1667 58.4847L48.1167 58.5347L34.2682 72.3833L34.1305 72.5209H34.3252H55.8204C56.382 72.5209 56.8372 72.9762 56.8372 73.5378C56.8372 74.0994 56.382 74.5546 55.8204 74.5546H31.6756C31.114 74.5546 30.6588 74.0994 30.6588 73.5378V40.6131C30.6588 40.0515 31.114 39.5963 31.6756 39.5963H77.7701C78.3317 39.5963 78.787 40.0515 78.787 40.6131V51.588C78.787 52.1496 78.3317 52.6049 77.7701 52.6049C77.2085 52.6049 76.7533 52.1496 76.7533 51.588V46.788ZM54.6738 60.9148L54.7229 60.9524L54.7719 60.9148L76.7217 44.0866L76.7533 44.0624V44.0226V41.7106V41.63H76.6727H32.7731H32.6925V41.7106V44.0226V44.0624L32.724 44.0866L54.6738 60.9148ZM46.4735 57.3019L46.5385 57.2368L46.4655 57.1809L32.8222 46.724L32.6925 46.6246V46.788V70.8882V71.0829L32.8301 70.9452L46.4735 57.3019Z" fill="#1B1B1B" stroke="#F6EDFF" stroke-width="0.161258"/>
<path d="M85.7708 74.5312L83.7609 72.0254C83.5088 71.71 83.147 71.51 82.7426 71.4673C82.3392 71.4209 81.9428 71.5373 81.631 71.7904L80.569 72.641C80.5139 72.6849 80.5424 72.6377 80.5053 72.7022C80.4997 72.7086 80.44 72.7552 80.2951 72.7395C80.0512 72.7128 79.3611 72.4789 78.1722 70.8545L78.0547 70.7089C76.7448 69.2126 76.666 68.4889 76.6927 68.245C76.7071 68.1194 76.7522 68.0688 76.7495 68.0641C76.8096 68.0451 76.795 68.0411 76.8491 68.0008L77.9111 67.1503C78.2265 66.8981 78.4265 66.5363 78.4692 66.1319C78.5119 65.7276 78.3991 65.3321 78.147 65.0167L76.1022 62.4661C75.5801 61.8147 74.6238 61.7089 73.9723 62.2311L72.899 63.0943C71.9518 63.8543 71.4151 65.0982 71.4976 66.3448C71.625 68.2666 72.6587 70.5515 74.5714 73.1409C74.5934 73.19 74.621 73.2328 74.656 73.2776C74.7063 73.3383 74.7566 73.399 74.8079 73.456C74.8535 73.5194 74.9038 73.5801 74.9494 73.6434C74.9807 73.6872 75.0213 73.7257 75.0639 73.7568C77.1772 76.1847 79.1834 77.6889 81.0335 78.2327C81.0591 78.2396 81.0811 78.2456 81.1067 78.2525C82.262 78.5651 83.5159 78.2962 84.4744 77.5236L85.5477 76.6604C85.8632 76.4083 86.0631 76.0465 86.1058 75.6421C86.1485 75.2377 86.0229 74.8466 85.7708 74.5312ZM84.8261 75.7745L83.7528 76.6377C83.0613 77.1922 82.16 77.3761 81.3413 77.1388C80.1673 76.7937 78.2404 75.7504 75.6835 72.7434C73.3056 69.5964 72.7031 67.4871 72.621 66.2681C72.5608 65.3886 72.9361 64.5091 73.6014 63.9789L74.6784 63.1167C74.7586 63.0521 74.8566 63.0237 74.9556 63.0348C75.0546 63.0459 75.1474 63.0945 75.212 63.1748L77.2568 65.7254C77.3214 65.8057 77.3499 65.9036 77.3388 66.0026C77.3277 66.1016 77.279 66.1944 77.1987 66.259L76.1712 67.0836C75.9443 67.2262 75.6748 67.5261 75.5853 67.9728C75.4054 68.8697 75.9338 70.0055 77.1871 71.4355L77.276 71.5419C78.4102 73.0927 79.408 73.8572 80.322 73.8729C80.7784 73.8827 81.1295 73.6873 81.3188 73.4952L82.3463 72.6707C82.5079 72.5378 82.7471 72.5672 82.88 72.7287L84.8898 75.2346C84.9544 75.3148 84.9828 75.4128 84.9717 75.5118C84.954 75.6208 84.9054 75.7136 84.8261 75.7745Z" fill="#5801B7"/>
<path d="M82.3923 57.5416C75.3834 55.645 68.1363 59.8053 66.2397 66.8142C65.4264 69.8196 65.7032 73.0023 67.0179 75.8144L63.5719 79.6024C63.4207 79.7695 63.382 80.0141 63.4754 80.2199C63.5468 80.3765 63.6852 80.4885 63.8425 80.5311C63.8936 80.5449 63.9505 80.5524 64.0056 80.5517L70.5434 80.3902C72.0012 81.6009 73.6706 82.4646 75.5133 82.9632C82.5223 84.8598 89.7694 80.6996 91.666 73.6906C93.5626 66.6816 89.4013 59.4382 82.3923 57.5416ZM75.8101 81.8664C74.0625 81.3935 72.4835 80.5581 71.1141 79.3832C71.0057 79.291 70.8697 79.2425 70.7308 79.248L65.3072 79.3814L68.1168 76.2923C68.2736 76.1189 68.3107 75.866 68.2036 75.6526C66.8719 73.0046 66.5639 69.9665 67.3375 67.1074C69.0709 60.7017 75.6908 56.9014 82.0965 58.6348C88.5022 60.3681 92.3025 66.9881 90.5691 73.3938C88.8358 79.7995 82.2158 83.5997 75.8101 81.8664Z" fill="#5801B7"/>
</svg>
