<svg width="118" height="118" viewBox="0 0 118 118" fill="none" xmlns="http://www.w3.org/2000/svg">
<circle cx="58.8593" cy="58.8593" r="58.8593" fill="#F6EDFF"/>
<path d="M81.8729 49.6719V49.7928H81.9938C82.2986 49.7928 82.6063 49.8691 82.9314 49.9503C87.798 51.2272 91.1443 55.6143 91.0646 60.3129V60.315C91.0646 65.2584 87.7157 69.565 82.9302 70.8412L82.9295 70.8413C82.0562 71.0795 81.1807 71.1596 80.22 71.1596H69.0932C68.5149 71.1596 68.0853 70.73 68.0853 70.1517C68.0853 69.5735 68.5149 69.1439 69.0932 69.1439H80.3812C81.1159 69.1439 81.8504 69.0622 82.5845 68.8991L82.5845 68.8991L82.5876 68.8984C86.5122 67.9172 89.2101 64.4012 89.2101 60.3956C89.2101 56.3899 86.5122 52.874 82.5876 51.8928L82.5877 51.8922L82.5753 51.8904C82.4015 51.8656 82.2227 51.8335 82.0386 51.8005C81.9248 51.7801 81.809 51.7593 81.6912 51.7397C81.3915 51.6897 81.0856 51.6485 80.7966 51.6473C80.4316 51.5723 80.2131 51.4277 79.9891 51.2051C79.7681 50.9074 79.7035 50.6238 79.7729 50.3463C79.8572 50.0093 79.8572 49.5942 79.8571 49.2766V49.2688V49.2609C79.8572 48.9445 79.8572 48.5314 79.7739 48.1951C79.2784 45.4799 76.9724 43.5038 74.1728 43.5038C73.0205 43.5038 71.9499 43.8331 71.0439 44.4096L71.0418 44.411C70.8243 44.556 70.5365 44.6269 70.2513 44.5556L70.2369 44.552H70.222C69.9639 44.552 69.7537 44.357 69.5973 44.1226C67.6404 41.1061 64.297 39.2304 60.6271 39.2304C55.8976 39.2304 51.8193 42.2482 50.4329 46.7335L50.4323 46.7333L50.4298 46.7455C50.3588 47.1008 50.0737 47.3859 49.7184 47.4569C49.3488 47.5309 48.9895 47.4571 48.7004 47.169C47.627 46.0141 46.143 45.4389 44.5819 45.4389C42.4391 45.4389 40.4634 46.6746 39.4756 48.5678L39.4756 48.5678L39.4747 48.5696C39.0646 49.3899 38.8169 50.2952 38.8169 51.2039C38.8169 51.6987 38.899 52.2725 39.0621 52.8448C39.1349 53.2154 39.0598 53.5811 38.8411 53.8727C38.6265 54.1589 38.2697 54.3011 37.9134 54.2298L37.9134 54.2298L37.9102 54.2292C33.1587 53.41 28.9801 57.0965 28.9801 61.6857C28.9801 65.8645 32.3401 69.2245 36.519 69.2245H48.694C49.2722 69.2245 49.7018 69.6541 49.7018 70.2323C49.7018 70.8106 49.2722 71.2402 48.694 71.2402H36.3577C31.0223 71.2402 26.7225 66.9404 26.7225 61.605C26.7225 56.2697 31.0223 51.9698 36.3577 51.9698H36.4383H36.5593V51.8489V51.8479V51.847V51.8461V51.8451V51.8441V51.8432V51.8422V51.8413V51.8403V51.8394V51.8384V51.8374V51.8365V51.8355V51.8345V51.8335V51.8326V51.8316V51.8306V51.8296V51.8287V51.8277V51.8267V51.8257V51.8247V51.8237V51.8227V51.8217V51.8207V51.8197V51.8187V51.8177V51.8167V51.8157V51.8147V51.8137V51.8127V51.8117V51.8107V51.8097V51.8086V51.8076V51.8066V51.8056V51.8046V51.8035V51.8025V51.8015V51.8005V51.7994V51.7984V51.7973V51.7963V51.7953V51.7942V51.7932V51.7921V51.7911V51.7901V51.789V51.788V51.7869V51.7859V51.7848V51.7837V51.7827V51.7816V51.7806V51.7795V51.7784V51.7774V51.7763V51.7752V51.7742V51.7731V51.772V51.7709V51.7699V51.7688V51.7677V51.7666V51.7655V51.7645V51.7634V51.7623V51.7612V51.7601V51.759V51.7579V51.7568V51.7557V51.7546V51.7535V51.7524V51.7513V51.7502V51.7491V51.748V51.7469V51.7458V51.7447V51.7436V51.7424V51.7413V51.7402V51.7391V51.738V51.7368V51.7357V51.7346V51.7335V51.7323V51.7312V51.7301V51.7289V51.7278V51.7267V51.7255V51.7244V51.7233V51.7221V51.721V51.7198V51.7187V51.7175V51.7164V51.7152V51.7141V51.7129V51.7118V51.7106V51.7095V51.7083V51.7072V51.706V51.7048V51.7037V51.7025V51.7013V51.7002V51.699V51.6978V51.6967V51.6955V51.6943V51.6931V51.692V51.6908V51.6896V51.6884V51.6872V51.6861V51.6849V51.6837V51.6825V51.6813V51.6801V51.6789V51.6777V51.6766V51.6754V51.6742V51.673V51.6718V51.6706V51.6694V51.6682V51.667V51.6658V51.6645V51.6633V51.6621V51.6609V51.6597V51.6585V51.6573V51.6561V51.6549V51.6536V51.6524V51.6512V51.65V51.6488V51.6475V51.6463V51.6451V51.6439V51.6426V51.6414V51.6402V51.6389V51.6377V51.6365V51.6352V51.634V51.6328V51.6315V51.6303V51.6291V51.6278V51.6266V51.6253V51.6241V51.6228V51.6216V51.6203V51.6191V51.6178V51.6166V51.6153V51.6141V51.6128V51.6116V51.6103V51.6091V51.6078V51.6065V51.6053V51.604V51.6028V51.6015V51.6002V51.599V51.5977V51.5964V51.5952V51.5939V51.5926V51.5913V51.5901V51.5888V51.5875V51.5862V51.585V51.5837V51.5824V51.5811V51.5798V51.5786V51.5773V51.576V51.5747V51.5734V51.5721V51.5708V51.5696V51.5683V51.567V51.5657V51.5644V51.5631V51.5618V51.5605V51.5592V51.5579V51.5566V51.5553V51.554V51.5527V51.5514V51.5501V51.5488V51.5475V51.5462V51.5449V51.5436V51.5423V51.541V51.5396V51.5383V51.537V51.5357V51.5344V51.5331V51.5318V51.5304V51.5291V51.5278V51.5265V51.5252V51.5239V51.5225V51.5212V51.5199V51.5186V51.5172V51.5159V51.5146V51.5133V51.5119V51.5106V51.5093V51.5079V51.5066V51.5053V51.5039V51.5026V51.5013V51.4999V51.4986V51.4973V51.4959V51.4946V51.4933V51.4919V51.4906V51.4892V51.4879V51.4865V51.4852V51.4839V51.4825V51.4812V51.4798V51.4785V51.4771V51.4758V51.4744V51.4731V51.4717V51.4704V51.469V51.4677V51.4663V51.465V51.4636V51.4623V51.4609V51.4595V51.4582V51.4568V51.4555V51.4541V51.4528V51.4514V51.45V51.4487V51.4473V51.4459V51.4446V51.4432V51.4419V51.4405V51.4391V51.4378V51.4364V51.435V51.4336V51.4323V51.4309V51.4295V51.4282V51.4268V51.4254V51.4241V51.4227V51.4213V51.4199V51.4186V51.4172V51.4158V51.4144V51.4131V51.4117V51.4103V51.4089V51.4075V51.4062V51.4048V51.4034V51.402V51.4006V51.3993V51.3979V51.3965V51.3951V51.3937V51.3923V51.3909V51.3896V51.3882V51.3868V51.3854V51.384V51.3826V51.3812V51.3798V51.3785V51.3771V51.3757V51.3743V51.3729V51.3715V51.3701V51.3687V51.3673V51.3659V51.3645V51.3631V51.3618V51.3604V51.359V51.3576V51.3562V51.3548V51.3534V51.352V51.3506V51.3492V51.3478V51.3464V51.345V51.3436V51.3422V51.3408V51.3394V51.338V51.3366V51.3352V51.3338V51.3324V51.331V51.3296V51.3282V51.3268V51.3254V51.324V51.3226V51.3212V51.3197V51.3183V51.3169V51.3155V51.3141V51.3127V51.3113V51.3099V51.3085V51.3071V51.3057V51.3043V51.3029V51.3015V51.3V51.2986V51.2972V51.2958V51.2944V51.293V51.2916V51.2902V51.2888V51.2874V51.2859V51.2845V51.2831V51.2817V51.2803V51.2789V51.2775V51.2761V51.2746V51.2732V51.2718V51.2704V51.269V51.2676V51.2662V51.2648V51.2633V51.2619V51.2605V51.2591V51.2577V51.2563V51.2549V51.2534V51.252V51.2506V51.2492V51.2478V51.2464V51.2449V51.2435V51.2421V51.2407V51.2393V51.2379V51.2364V51.235V51.2336V51.2322V51.2308V51.2294V51.228V51.2265V51.2251V51.2237V51.2223V51.2209V51.2194V51.218V51.2166V51.2152V51.2138V51.2124V51.2109V51.2095V51.2081V51.2067V51.2053V51.2039C36.5593 49.935 36.8763 48.7442 37.4331 47.6303C38.7834 45.0096 41.4835 43.3425 44.4206 43.3425C46.0077 43.3425 47.4371 43.8183 48.7105 44.6142L48.8266 44.6868L48.8843 44.5626C50.9607 40.0902 55.4331 37.2147 60.4658 37.2147C64.5389 37.2147 68.213 39.1311 70.6099 42.2471L70.6707 42.3261L70.7598 42.2816C71.7076 41.8077 72.8979 41.5687 74.0115 41.5687C77.8217 41.5687 80.998 44.2666 81.7135 48.0001C81.7944 48.4851 81.8729 48.9584 81.8729 49.43V49.4305V49.431V49.4314V49.4319V49.4324V49.4329V49.4333V49.4338V49.4343V49.4347V49.4352V49.4357V49.4362V49.4366V49.4371V49.4376V49.4381V49.4385V49.439V49.4395V49.4399V49.4404V49.4409V49.4414V49.4418V49.4423V49.4428V49.4432V49.4437V49.4442V49.4447V49.4451V49.4456V49.4461V49.4466V49.447V49.4475V49.448V49.4484V49.4489V49.4494V49.4499V49.4503V49.4508V49.4513V49.4518V49.4522V49.4527V49.4532V49.4536V49.4541V49.4546V49.4551V49.4555V49.456V49.4565V49.4569V49.4574V49.4579V49.4584V49.4588V49.4593V49.4598V49.4603V49.4607V49.4612V49.4617V49.4621V49.4626V49.4631V49.4636V49.464V49.4645V49.465V49.4655V49.4659V49.4664V49.4669V49.4673V49.4678V49.4683V49.4688V49.4692V49.4697V49.4702V49.4706V49.4711V49.4716V49.4721V49.4725V49.473V49.4735V49.474V49.4744V49.4749V49.4754V49.4758V49.4763V49.4768V49.4773V49.4777V49.4782V49.4787V49.4792V49.4796V49.4801V49.4806V49.481V49.4815V49.482V49.4825V49.4829V49.4834V49.4839V49.4843V49.4848V49.4853V49.4858V49.4862V49.4867V49.4872V49.4877V49.4881V49.4886V49.4891V49.4895V49.49V49.4905V49.491V49.4914V49.4919V49.4924V49.4929V49.4933V49.4938V49.4943V49.4947V49.4952V49.4957V49.4962V49.4966V49.4971V49.4976V49.498V49.4985V49.499V49.4995V49.4999V49.5004V49.5009V49.5014V49.5018V49.5023V49.5028V49.5032V49.5037V49.5042V49.5047V49.5051V49.5056V49.5061V49.5066V49.507V49.5075V49.508V49.5084V49.5089V49.5094V49.5099V49.5103V49.5108V49.5113V49.5118V49.5122V49.5127V49.5132V49.5136V49.5141V49.5146V49.5151V49.5155V49.516V49.5165V49.5169V49.5174V49.5179V49.5184V49.5188V49.5193V49.5198V49.5203V49.5207V49.5212V49.5217V49.5221V49.5226V49.5231V49.5236V49.524V49.5245V49.525V49.5255V49.5259V49.5264V49.5269V49.5273V49.5278V49.5283V49.5288V49.5292V49.5297V49.5302V49.5306V49.5311V49.5316V49.5321V49.5325V49.533V49.5335V49.534V49.5344V49.5349V49.5354V49.5358V49.5363V49.5368V49.5373V49.5377V49.5382V49.5387V49.5392V49.5396V49.5401V49.5406V49.541V49.5415V49.542V49.5425V49.5429V49.5434V49.5439V49.5443V49.5448V49.5453V49.5458V49.5462V49.5467V49.5472V49.5477V49.5481V49.5486V49.5491V49.5495V49.55V49.5505V49.551V49.5514V49.5519V49.5524V49.5529V49.5533V49.5538V49.5543V49.5547V49.5552V49.5557V49.5562V49.5566V49.5571V49.5576V49.558V49.5585V49.559V49.5595V49.5599V49.5604V49.5609V49.5614V49.5618V49.5623V49.5628V49.5632V49.5637V49.5642V49.5647V49.5651V49.5656V49.5661V49.5666V49.567V49.5675V49.568V49.5684V49.5689V49.5694V49.5699V49.5703V49.5708V49.5713V49.5717V49.5722V49.5727V49.5732V49.5736V49.5741V49.5746V49.5751V49.5755V49.576V49.5765V49.5769V49.5774V49.5779V49.5784V49.5788V49.5793V49.5798V49.5803V49.5807V49.5812V49.5817V49.5821V49.5826V49.5831V49.5836V49.584V49.5845V49.585V49.5855V49.5859V49.5864V49.5869V49.5873V49.5878V49.5883V49.5888V49.5892V49.5897V49.5902V49.5906V49.5911V49.5916V49.5921V49.5925V49.593V49.5935V49.594V49.5944V49.5949V49.5954V49.5958V49.5963V49.5968V49.5973V49.5977V49.5982V49.5987V49.5992V49.5996V49.6001V49.6006V49.601V49.6015V49.602V49.6025V49.6029V49.6034V49.6039V49.6043V49.6048V49.6053V49.6058V49.6062V49.6067V49.6072V49.6077V49.6081V49.6086V49.6091V49.6095V49.61V49.6105V49.611V49.6114V49.6119V49.6124V49.6129V49.6133V49.6138V49.6143V49.6147V49.6152V49.6157V49.6162V49.6166V49.6171V49.6176V49.618V49.6185V49.619V49.6195V49.6199V49.6204V49.6209V49.6214V49.6218V49.6223V49.6228V49.6232V49.6237V49.6242V49.6247V49.6251V49.6256V49.6261V49.6266V49.627V49.6275V49.628V49.6284V49.6289V49.6294V49.6299V49.6303V49.6308V49.6313V49.6317V49.6322V49.6327V49.6332V49.6336V49.6341V49.6346V49.6351V49.6355V49.636V49.6365V49.6369V49.6374V49.6379V49.6384V49.6388V49.6393V49.6398V49.6403V49.6407V49.6412V49.6417V49.6421V49.6426V49.6431V49.6436V49.644V49.6445V49.645V49.6454V49.6459V49.6464V49.6469V49.6473V49.6478V49.6483V49.6488V49.6492V49.6497V49.6502V49.6506V49.6511V49.6516V49.6521V49.6525V49.653V49.6535V49.654V49.6544V49.6549V49.6554V49.6558V49.6563V49.6568V49.6573V49.6577V49.6582V49.6587V49.6592V49.6596V49.6601V49.6606V49.661V49.6615V49.662V49.6625V49.6629V49.6634V49.6639V49.6643V49.6648V49.6653V49.6658V49.6662V49.6667V49.6672V49.6677V49.6681V49.6686V49.6691V49.6695V49.67V49.6705V49.671V49.6714V49.6719Z" fill="#1D1D1D" stroke="#F6EDFF" stroke-width="0.241888"/>
<path d="M58.2943 54.4327L58.2947 54.4331L58.3017 54.4246C58.6524 54.0038 59.294 53.9914 59.7353 54.4322C59.7355 54.4324 59.7357 54.4325 59.7359 54.4327L66.1852 61.0433L66.1847 61.0437L66.1943 61.0517C66.6153 61.4025 66.6275 62.0446 66.1862 62.4859C66.0752 62.5968 65.9682 62.6671 65.8554 62.7105C65.7421 62.7541 65.6166 62.773 65.4654 62.773C65.2464 62.773 64.9581 62.6993 64.7447 62.4859L60.1488 57.89L59.9423 57.6835V57.9755V81.5999C59.9423 82.1781 59.5127 82.6077 58.9345 82.6077C58.3562 82.6077 57.9266 82.1781 57.9266 81.5999V57.9755V57.6835L57.7201 57.89L53.1243 62.4859L53.1239 62.4855L53.1169 62.494C52.7736 62.9059 52.1303 62.8582 51.6746 62.4785C51.2536 62.1277 51.2414 61.4856 51.6827 61.0443L58.2943 54.4327Z" fill="#5801B7" stroke="#F6EDFF" stroke-width="0.241888"/>
</svg>
