<svg width="118" height="118" viewBox="0 0 118 118" fill="none" xmlns="http://www.w3.org/2000/svg">
<path d="M117.719 58.8593C117.719 91.3664 91.3664 117.719 58.8593 117.719C26.3522 117.719 0 91.3664 0 58.8593C0 26.3522 26.3522 0 58.8593 0C91.3664 0 117.719 26.3522 117.719 58.8593Z" fill="#F6EDFF"/>
<mask id="path-2-inside-1_4478_8492" fill="white">
<path fill-rule="evenodd" clip-rule="evenodd" d="M37.5631 36.8007L56.6266 30.2918C57.7697 29.9026 59.0159 29.9026 60.1569 30.2927L79.2152 36.7999C81.3518 37.5268 82.7807 39.4848 82.7807 41.6843V60.7423C82.7807 66.5401 80.6246 72.1246 76.7389 76.4748C74.9056 78.5301 72.5697 80.2426 69.7441 81.7273L59.44 87.1354C58.7961 87.4734 58.0204 87.4736 57.3763 87.1359L47.054 81.7245C44.2208 80.2376 41.8851 78.5284 40.052 76.4737C36.1604 72.1205 34 66.5323 34 60.731V41.6843C34 39.4848 35.4289 37.5268 37.5631 36.8007ZM77.7849 40.773L58.7223 34.2644C58.5137 34.1931 58.2829 34.1931 58.0725 34.2647L39.0085 40.7739C38.6144 40.9079 38.3516 41.2681 38.3516 41.6746V60.7213C38.3516 65.503 40.1323 70.1089 43.3406 73.6979C44.7979 75.3313 46.7229 76.74 49.1252 78.0008L58.4123 82.8694L67.6861 78.0045C69.7815 76.9035 71.5177 75.6851 72.8959 74.3025L73.4646 73.6998C76.6671 70.1145 78.4441 65.5117 78.4441 60.7326V41.6746C78.4441 41.2681 78.1813 40.9079 77.7849 40.773Z"/>
</mask>
<path fill-rule="evenodd" clip-rule="evenodd" d="M37.5631 36.8007L56.6266 30.2918C57.7697 29.9026 59.0159 29.9026 60.1569 30.2927L79.2152 36.7999C81.3518 37.5268 82.7807 39.4848 82.7807 41.6843V60.7423C82.7807 66.5401 80.6246 72.1246 76.7389 76.4748C74.9056 78.5301 72.5697 80.2426 69.7441 81.7273L59.44 87.1354C58.7961 87.4734 58.0204 87.4736 57.3763 87.1359L47.054 81.7245C44.2208 80.2376 41.8851 78.5284 40.052 76.4737C36.1604 72.1205 34 66.5323 34 60.731V41.6843C34 39.4848 35.4289 37.5268 37.5631 36.8007ZM77.7849 40.773L58.7223 34.2644C58.5137 34.1931 58.2829 34.1931 58.0725 34.2647L39.0085 40.7739C38.6144 40.9079 38.3516 41.2681 38.3516 41.6746V60.7213C38.3516 65.503 40.1323 70.1089 43.3406 73.6979C44.7979 75.3313 46.7229 76.74 49.1252 78.0008L58.4123 82.8694L67.6861 78.0045C69.7815 76.9035 71.5177 75.6851 72.8959 74.3025L73.4646 73.6998C76.6671 70.1145 78.4441 65.5117 78.4441 60.7326V41.6746C78.4441 41.2681 78.1813 40.9079 77.7849 40.773Z" fill="#1B1B1B"/>
<path d="M56.6266 30.2918L56.2367 29.1469L56.2358 29.1472L56.6266 30.2918ZM37.5631 36.8007L37.9526 37.9457L37.9539 37.9453L37.5631 36.8007ZM60.1569 30.2927L59.7655 31.4371L59.7661 31.4373L60.1569 30.2927ZM79.2152 36.7999L78.8244 37.9445L78.8257 37.9449L79.2152 36.7999ZM76.7389 76.4748L75.8369 75.6691L75.8363 75.6697L76.7389 76.4748ZM69.7441 81.7273L70.3062 82.7982L70.3067 82.7979L69.7441 81.7273ZM59.44 87.1354L60.0021 88.2063L59.44 87.1354ZM57.3763 87.1359L56.8148 88.2071H56.8148L57.3763 87.1359ZM47.054 81.7245L46.492 82.7954L46.4925 82.7957L47.054 81.7245ZM40.052 76.4737L40.9545 75.6686L40.9537 75.6677L40.052 76.4737ZM58.7223 34.2644L58.331 35.4088L58.3315 35.4089L58.7223 34.2644ZM77.7849 40.773L77.3941 41.9176L77.3954 41.918L77.7849 40.773ZM58.0725 34.2647L57.6827 33.1198L57.6817 33.1201L58.0725 34.2647ZM39.0085 40.7739L39.398 41.9189L39.3993 41.9184L39.0085 40.7739ZM43.3406 73.6979L44.2431 72.8927L44.2423 72.8918L43.3406 73.6979ZM49.1252 78.0008L48.5631 79.0717L48.5636 79.0719L49.1252 78.0008ZM58.4123 82.8694L57.8508 83.9405L58.4125 84.235L58.9742 83.9404L58.4123 82.8694ZM67.6861 78.0045L68.2479 79.0756L68.2486 79.0752L67.6861 78.0045ZM72.8959 74.3025L73.7524 75.1563L73.7641 75.1446L73.7755 75.1325L72.8959 74.3025ZM73.4646 73.6998L74.3443 74.5298L74.3556 74.5178L74.3666 74.5054L73.4646 73.6998ZM56.2358 29.1472L37.1723 35.6562L37.9539 37.9453L57.0174 31.4364L56.2358 29.1472ZM60.5482 29.1483C59.1533 28.6714 57.6324 28.6717 56.2367 29.1469L57.0164 31.4367C57.907 31.1335 58.8784 31.1338 59.7655 31.4371L60.5482 29.1483ZM79.606 35.6554L60.5476 29.1482L59.7661 31.4373L78.8244 37.9445L79.606 35.6554ZM83.9901 41.6843C83.9901 38.9491 82.2144 36.5427 79.6047 35.6549L78.8257 37.9449C80.4892 38.5108 81.5712 40.0205 81.5712 41.6843H83.9901ZM83.9901 60.7423V41.6843H81.5712V60.7423H83.9901ZM77.6409 77.2805C81.7215 72.712 83.9901 66.8418 83.9901 60.7423H81.5712C81.5712 66.2384 79.5276 71.5372 75.8369 75.6691L77.6409 77.2805ZM70.3067 82.7979C73.2269 81.2635 75.6892 79.4685 77.6414 77.2799L75.8363 75.6697C74.122 77.5917 71.9124 79.2217 69.1815 80.6567L70.3067 82.7979ZM60.0021 88.2063L70.3062 82.7982L69.182 80.6564L58.878 86.0645L60.0021 88.2063ZM56.8148 88.2071C57.8107 88.7292 59.0064 88.7289 60.0021 88.2063L58.878 86.0645C58.5858 86.2178 58.2301 86.2179 57.9379 86.0647L56.8148 88.2071ZM46.4925 82.7957L56.8148 88.2071L57.9379 86.0647L47.6156 80.6533L46.4925 82.7957ZM39.1496 77.2789C41.1021 79.4674 43.5645 81.2591 46.492 82.7954L47.6161 80.6536C44.877 79.2161 42.6682 77.5893 40.9545 75.6686L39.1496 77.2789ZM32.7906 60.731C32.7906 66.8345 35.0638 72.7084 39.1503 77.2798L40.9537 75.6677C37.2571 71.5325 35.2094 66.2302 35.2094 60.731H32.7906ZM32.7906 41.6843V60.731H35.2094V41.6843H32.7906ZM37.1736 35.6557C34.5659 36.5428 32.7906 38.9494 32.7906 41.6843H35.2094C35.2094 40.0202 36.2918 38.5107 37.9526 37.9457L37.1736 35.6557ZM58.3315 35.4089L77.3941 41.9176L78.1757 39.6285L59.1131 33.1198L58.3315 35.4089ZM58.4623 35.4096C58.4211 35.4236 58.3772 35.4246 58.331 35.4088L59.1136 33.12C58.6502 32.9616 58.1447 32.9625 57.6827 33.1198L58.4623 35.4096ZM39.3993 41.9184L58.4633 35.4093L57.6817 33.1201L38.6177 39.6293L39.3993 41.9184ZM39.561 41.6746C39.561 41.8032 39.4777 41.8917 39.398 41.9189L38.619 39.6288C37.7512 39.9241 37.1421 40.733 37.1421 41.6746H39.561ZM39.561 60.7213V41.6746H37.1421V60.7213H39.561ZM44.2423 72.8918C41.2289 69.521 39.561 65.2008 39.561 60.7213H37.1421C37.1421 65.8052 39.0356 70.6969 42.4389 74.5039L44.2423 72.8918ZM49.6872 76.9298C47.3744 75.716 45.5782 74.3892 44.2431 72.8927L42.4381 74.503C44.0177 76.2734 46.0715 77.764 48.5631 79.0717L49.6872 76.9298ZM58.9739 81.7982L49.6867 76.9296L48.5636 79.0719L57.8508 83.9405L58.9739 81.7982ZM67.1242 76.9335L57.8505 81.7983L58.9742 83.9404L68.2479 79.0756L67.1242 76.9335ZM72.0393 73.4486C70.7682 74.7238 69.1397 75.8745 67.1235 76.9339L68.2486 79.0752C70.4232 77.9325 72.2672 76.6463 73.7524 75.1563L72.0393 73.4486ZM72.585 72.8697L72.0162 73.4724L73.7755 75.1325L74.3443 74.5298L72.585 72.8697ZM77.2347 60.7326C77.2347 65.21 75.5701 69.5271 72.5626 72.8941L74.3666 74.5054C77.7641 70.7018 79.6536 65.8134 79.6536 60.7326H77.2347ZM77.2347 41.6746V60.7326H79.6536V41.6746H77.2347ZM77.3954 41.918C77.3198 41.8923 77.2347 41.805 77.2347 41.6746H79.6536C79.6536 40.7312 79.0428 39.9235 78.1744 39.628L77.3954 41.918Z" fill="#F6EDFF" mask="url(#path-2-inside-1_4478_8492)"/>
<path d="M66.4522 51.1292L66.4522 51.1291C67.1127 50.4874 68.1892 50.4874 68.8497 51.1291C69.4394 51.7021 69.4953 52.5906 69.0228 53.2229L68.8369 53.4321L57.561 64.3879C56.9656 64.9664 56.0293 65.0247 55.3661 64.5562L55.1505 64.3753L49.6839 59.0611C49.0314 58.4268 49.0317 57.4045 49.6845 56.7705C50.28 56.1923 51.2161 56.1342 51.8791 56.6026L52.0946 56.7834L56.0235 60.6048L56.3606 60.9327L56.6979 60.605L66.4522 51.1292Z" fill="#5801B7" stroke="#F6EDFF" stroke-width="0.967551"/>
</svg>
