<svg width="119" height="118" viewBox="0 0 119 118" fill="none" xmlns="http://www.w3.org/2000/svg">
<path d="M118.234 58.8593C118.234 91.3664 91.882 117.719 59.3749 117.719C26.8678 117.719 0.515625 91.3664 0.515625 58.8593C0.515625 26.3522 26.8678 0 59.3749 0C91.882 0 118.234 26.3522 118.234 58.8593Z" fill="#F6EDFF"/>
<path d="M47.6656 36.3453H47.464V36.5469V36.898V49.7741H44.8569C42.3424 49.7741 40.0988 50.8072 38.4408 52.4204L38.4408 52.4203L38.4369 52.4243C36.8237 54.0823 35.7906 56.3258 35.7906 58.8404V71.3915V71.7426V71.9441H35.9922H36.3433H47.464V81.3095V81.6605V81.8621H47.6656H48.0166H71.4951H71.89H72.0916V81.6605V81.3095V71.9441H83.2123H83.5634H83.765V71.7426V71.3915V58.8404C83.765 56.3255 82.7316 54.0811 81.0728 52.4223C79.4571 50.8066 77.1684 49.7741 74.6987 49.7741H72.0916V36.898V36.5469V36.3453H71.89H71.4951H48.0166H47.6656ZM76.7721 57.9518L76.7657 57.9454L76.7586 57.9395C76.547 57.7631 76.3923 57.428 76.3923 57.085C76.3923 56.7554 76.5372 56.456 76.7657 56.2246C77.0034 56.0286 77.3077 55.8823 77.639 55.8823C77.9702 55.8823 78.2744 56.0286 78.5121 56.2246C78.7288 56.4448 78.8417 56.7399 78.8417 57.085C78.8417 57.4456 78.7201 57.7722 78.5193 57.9395L78.5122 57.9454L78.5058 57.9518C78.2735 58.1841 77.9716 58.3316 77.639 58.3316C77.3063 58.3316 77.0044 58.1841 76.7721 57.9518ZM50.6059 77.246H50.4043V77.4476V78.1498V78.3513H50.6059H68.9059H69.1074V78.1498V77.4476V77.246H68.9059H50.6059ZM50.6059 68.6007H50.4043V68.8023V69.5044V69.706H50.6059H59.7559H68.9059H69.1074V69.5044V68.8023V68.6007H68.9059H50.6059ZM50.6059 72.9014H50.4043V73.103V73.849V74.0506H50.6059H68.9059H69.1074V73.849V73.103V72.9014H68.9059H50.6059ZM39.2484 53.2361L39.2484 53.2361L39.2505 53.234C40.7075 51.777 42.676 50.8794 44.8569 50.8794H74.6987C76.8796 50.8794 78.8481 51.777 80.305 53.234C81.7167 54.6457 82.6158 56.6575 82.6158 58.8404V70.8388H72.0916V66.283H74.8742H75.2692H75.4707V66.0814V65.7303V62.0001V61.649V61.4475H75.2692H74.8742H44.6375H44.2864H44.0849V61.649V62.0001V65.7303V66.0814V66.283H44.2864H44.6375H47.464V70.8388H36.8959V58.8404C36.8959 56.6578 37.7947 54.6471 39.2484 53.2361ZM79.2777 55.4545C78.881 55.0114 78.2533 54.777 77.639 54.777C76.9736 54.777 76.395 55.0159 75.9604 55.4504C75.5275 55.8834 75.287 56.4613 75.287 57.085C75.287 57.7503 75.5259 58.329 75.9604 58.7635C76.395 59.198 76.9736 59.4369 77.639 59.4369C78.2533 59.4369 78.881 59.2025 79.2777 58.7594C79.7024 58.3329 79.9909 57.7584 79.9909 57.085C79.9909 56.4532 79.7006 55.8793 79.2777 55.4545ZM70.9424 80.7568H48.5693V66.283H70.9424V80.7568ZM45.234 62.5528H74.3216V65.1338H45.234V62.5528ZM70.9424 49.7741H48.5693V37.4506H70.9424V49.7741Z" fill="#1B1B1B" stroke="#1B1B1B" stroke-width="0.403146"/>
<rect x="49.7031" y="67.9844" width="20.9636" height="11.2881" fill="#F6EDFF"/>
<ellipse cx="77.5173" cy="56.7017" rx="2.82202" ry="3.22517" fill="#F6EDFF"/>
<path d="M77.4529 58.619C78.3817 58.619 79.1346 57.8661 79.1346 56.9373C79.1346 56.0085 78.3817 55.2556 77.4529 55.2556C76.5242 55.2556 75.7712 56.0085 75.7712 56.9373C75.7712 57.8661 76.5242 58.619 77.4529 58.619Z" stroke="#5801B7" stroke-width="0.645034"/>
<line x1="50.5" y1="69.8015" x2="69.0447" y2="69.8015" stroke="#5801B7" stroke-width="1.20944"/>
<line x1="50.5" y1="73.8406" x2="69.0447" y2="73.8406" stroke="#5801B7" stroke-width="1.20944"/>
<line x1="50.5" y1="77.8718" x2="69.0447" y2="77.8718" stroke="#5801B7" stroke-width="1.20944"/>
</svg>
