<svg width="118" height="118" viewBox="0 0 118 118" fill="none" xmlns="http://www.w3.org/2000/svg">
<circle cx="59.1249" cy="59.1249" r="58.8593" fill="#F6EDFF"/>
<path d="M51.2032 42.8791H80.1054C81.375 42.8791 82.5288 43.3983 83.3642 44.2336C84.1994 45.069 84.7186 46.2228 84.7186 47.4924C84.7186 48.762 84.1994 49.9159 83.3642 50.7512C82.5288 51.5866 81.375 52.1058 80.1054 52.1058H51.2032C49.9336 52.1058 48.7798 51.5866 47.9446 50.7512C47.1092 49.9159 46.59 48.7621 46.59 47.4925C46.59 46.2229 47.1092 45.069 47.9446 44.2336C47.9446 44.2336 47.9446 44.2336 47.9446 44.2336M51.2032 42.8791L48.0301 50.6657C48.8438 51.4795 49.9672 51.9849 51.2032 51.9849H80.1054C81.3414 51.9849 82.4648 51.4795 83.2786 50.6657C84.0923 49.8519 84.5977 48.7284 84.5977 47.4924C84.5977 46.2564 84.0923 45.133 83.2786 44.3192C82.4648 43.5054 81.3414 43 80.1054 43H51.2032C49.9672 43 48.8438 43.5054 48.0301 44.3192L47.9446 44.2336M51.2032 42.8791C49.9336 42.8791 48.7798 43.3983 47.9446 44.2336M51.2032 42.8791L47.9446 44.2336M48.9521 45.2412L48.9521 45.2412C49.5305 44.6627 50.3275 44.304 51.2032 44.304H80.1054C80.9811 44.304 81.7781 44.6627 82.3566 45.2412C82.935 45.8197 83.2937 46.6168 83.2937 47.4925C83.2937 48.3682 82.935 49.1652 82.3566 49.7437C81.7781 50.3222 80.9811 50.6809 80.1054 50.6809H51.2032C50.3275 50.6809 49.5305 50.3222 48.9521 49.7437L48.9521 49.7437C48.3736 49.1652 48.0149 48.3681 48.0149 47.4924C48.0149 46.6167 48.3736 45.8197 48.9521 45.2412Z" fill="#1B1B1B" stroke="#1B1B1B" stroke-width="0.241888"/>
<path d="M35.3474 44.2302C36.182 43.3956 37.3357 42.8791 38.6096 42.8791C39.8835 42.8791 41.0371 43.3955 41.8717 44.2301C42.7064 45.0648 43.2229 46.2185 43.2229 47.4924C43.2229 48.7663 42.7065 49.9199 41.8717 50.7545C41.0371 51.5891 39.8835 52.1056 38.6096 52.1056C37.3357 52.1056 36.182 51.589 35.3474 50.7544C34.5127 49.9198 33.9962 48.7662 33.9962 47.4924C33.9962 46.2185 34.5128 45.0648 35.3474 44.2303C35.3474 44.2303 35.3474 44.2303 35.3474 44.2302ZM35.3474 44.2302L35.433 44.3158L35.3474 44.2302ZM36.355 45.2378L36.355 45.2378C36.932 44.6607 37.729 44.304 38.6096 44.304C39.4902 44.304 40.2872 44.6607 40.8642 45.2377C41.4413 45.8148 41.798 46.6118 41.798 47.4924C41.798 48.373 41.4413 49.17 40.8642 49.747L40.8642 49.747C40.2872 50.3239 39.4902 50.6807 38.6096 50.6807C37.729 50.6807 36.932 50.3239 36.355 49.7469L36.355 49.7468C35.7779 49.1699 35.4212 48.3728 35.4212 47.4924C35.4212 46.6118 35.7779 45.8148 36.355 45.2378Z" fill="#5801B7" stroke="#5801B7" stroke-width="0.241888"/>
<path d="M51.2032 54.9025H80.1054C81.375 54.9025 82.5288 55.4217 83.3642 56.2571C84.1994 57.0925 84.7186 58.2462 84.7186 59.5158C84.7186 60.7854 84.1994 61.9393 83.3642 62.7747C82.5288 63.61 81.375 64.1292 80.1054 64.1292H51.2032C49.9336 64.1292 48.7798 63.6101 47.9446 62.7747C47.1092 61.9393 46.59 60.7855 46.59 59.5159C46.59 58.2463 47.1092 57.0924 47.9446 56.2571C47.9446 56.2571 47.9446 56.2571 47.9446 56.2571M51.2032 54.9025L48.0301 62.6891C48.8438 63.503 49.9672 64.0083 51.2032 64.0083H80.1054C81.3414 64.0083 82.4648 63.5029 83.2786 62.6891C84.0923 61.8754 84.5977 60.7518 84.5977 59.5158C84.5977 58.2798 84.0923 57.1564 83.2786 56.3426C82.4648 55.5288 81.3414 55.0234 80.1054 55.0234H51.2032C49.9672 55.0234 48.8438 55.5288 48.0301 56.3426L47.9446 56.2571M51.2032 54.9025C49.9336 54.9025 48.7798 55.4217 47.9446 56.2571M51.2032 54.9025L47.9446 56.2571M48.9521 57.2646L48.9521 57.2646C49.5305 56.6861 50.3275 56.3274 51.2032 56.3274H80.1054C80.9811 56.3274 81.7781 56.6861 82.3566 57.2646C82.935 57.8431 83.2937 58.6402 83.2937 59.5159C83.2937 60.3917 82.935 61.1886 82.3566 61.7671C81.7781 62.3456 80.9811 62.7043 80.1054 62.7043H51.2032C50.3275 62.7043 49.5305 62.3456 48.9521 61.7671L48.9521 61.7671C48.3736 61.1886 48.0149 60.3915 48.0149 59.5158C48.0149 58.6401 48.3736 57.8431 48.9521 57.2646Z" fill="#1B1B1B" stroke="#1B1B1B" stroke-width="0.241888"/>
<path d="M36.355 57.2612L36.355 57.2612C36.932 56.6841 37.729 56.3274 38.6096 56.3274C39.4902 56.3274 40.2872 56.6841 40.8642 57.2611L40.8642 57.2611C41.4413 57.8381 41.798 58.6351 41.798 59.5157C41.798 60.3963 41.4413 61.1933 40.8642 61.7704C40.2872 62.3474 39.4902 62.7041 38.6096 62.7041C37.729 62.7041 36.932 62.3474 36.355 61.7703L36.355 61.7703C35.7779 61.1933 35.4212 60.3963 35.4212 59.5157C35.4212 58.6352 35.7779 57.8382 36.355 57.2612ZM38.6096 54.9025C37.3357 54.9025 36.182 55.4191 35.3474 56.2537C34.5128 57.0882 33.9962 58.2419 33.9962 59.5157C33.9962 60.7896 34.5128 61.9433 35.3474 62.7778C36.182 63.6125 37.3357 64.129 38.6096 64.129C39.8835 64.129 41.0371 63.6126 41.8717 62.778C42.7064 61.9433 43.2229 60.7896 43.2229 59.5157C43.2229 58.2418 42.7064 57.0881 41.8717 56.2536C41.0371 55.4189 39.8835 54.9025 38.6096 54.9025Z" fill="#5801B7" stroke="#5801B7" stroke-width="0.241888"/>
<path d="M51.2032 66.9572H80.1054C81.375 66.9572 82.5288 67.4764 83.3642 68.3118C84.1994 69.1471 84.7186 70.3009 84.7186 71.5705C84.7186 72.8401 84.1994 73.994 83.3642 74.8294C82.5288 75.6647 81.375 76.1839 80.1054 76.1839H51.2032C49.9336 76.1839 48.7798 75.6647 47.9446 74.8294C47.1092 73.994 46.59 72.8402 46.59 71.5706C46.59 70.301 47.1092 69.1471 47.9446 68.3118C47.9446 68.3118 47.9446 68.3118 47.9446 68.3118M51.2032 66.9572L48.0301 74.7438C48.8438 75.5576 49.9672 76.063 51.2032 76.063H80.1054C81.3414 76.063 82.4648 75.5576 83.2786 74.7438C84.0923 73.93 84.5977 72.8065 84.5977 71.5705C84.5977 70.3345 84.0923 69.2111 83.2786 68.3973C82.4648 67.5835 81.3414 67.0781 80.1054 67.0781H51.2032C49.9672 67.0781 48.8438 67.5835 48.0301 68.3973L47.9446 68.3118M51.2032 66.9572C49.9336 66.9572 48.7798 67.4764 47.9446 68.3118M51.2032 66.9572L47.9446 68.3118M48.9521 69.3193L48.9521 69.3193C49.5305 68.7408 50.3275 68.3821 51.2032 68.3821H80.1054C80.9811 68.3821 81.7781 68.7408 82.3566 69.3193C82.935 69.8978 83.2937 70.6949 83.2937 71.5706C83.2937 72.4463 82.935 73.2433 82.3566 73.8218C81.7781 74.4003 80.9811 74.759 80.1054 74.759H51.2032C50.3275 74.759 49.5305 74.4003 48.9521 73.8218L48.9521 73.8218C48.3736 73.2433 48.0149 72.4462 48.0149 71.5705C48.0149 70.6948 48.3736 69.8978 48.9521 69.3193Z" fill="#1B1B1B" stroke="#1B1B1B" stroke-width="0.241888"/>
<path d="M35.3474 68.3084C36.182 67.4737 37.3357 66.9572 38.6096 66.9572C39.8835 66.9572 41.0371 67.4736 41.8717 68.3083C42.7065 69.1429 43.2229 70.2965 43.2229 71.5704C43.2229 72.8443 42.7064 73.998 41.8717 74.8326C41.0371 75.6673 39.8835 76.1837 38.6096 76.1837C37.3357 76.1837 36.182 75.6672 35.3474 74.8325C34.5128 73.998 33.9962 72.8443 33.9962 71.5704C33.9962 70.2966 34.5127 69.143 35.3474 68.3084C35.3474 68.3084 35.3474 68.3084 35.3474 68.3084ZM35.3474 68.3084L35.433 68.3939L35.3474 68.3084ZM36.355 69.3159L36.355 69.3159C36.932 68.7388 37.729 68.3821 38.6096 68.3821C39.4902 68.3821 40.2872 68.7388 40.8642 69.3158L40.8642 69.3158C41.4413 69.8928 41.798 70.6898 41.798 71.5704C41.798 72.451 41.4413 73.248 40.8642 73.8251C40.2872 74.4021 39.4902 74.7588 38.6096 74.7588C37.729 74.7588 36.932 74.4021 36.355 73.825L36.355 73.825C35.7779 73.248 35.4212 72.451 35.4212 71.5704C35.4212 70.6899 35.7779 69.8929 36.355 69.3159Z" fill="#5801B7" stroke="#5801B7" stroke-width="0.241888"/>
</svg>
