<svg width="33" height="30" viewBox="0 0 33 30" fill="none" xmlns="http://www.w3.org/2000/svg">
<path d="M16.1247 0C14.7768 0 13.6756 1.10177 13.6756 2.44916C13.6756 3.66811 14.5801 4.68014 15.7496 4.86329V9.24605C13.9016 9.36611 12.2887 10.3567 11.3201 11.8124L7.83947 9.58582C7.99877 9.21412 8.08562 8.8079 8.08562 8.37892C8.08562 6.67763 6.70555 5.29702 5.00372 5.29702C3.30161 5.29702 1.91003 6.67763 1.91003 8.37892C1.91003 10.0802 3.30161 11.4608 5.00372 11.4608C6.00952 11.4608 6.90042 10.9774 7.46466 10.2304L10.945 12.4687C10.5715 13.2325 10.3591 14.0934 10.3591 15C10.3591 15.9124 10.5791 16.7759 10.9568 17.5431L7.37076 19.8165H4.85122C4.80179 19.5534 4.71101 19.2991 4.57003 19.0548C3.89643 17.8879 2.38558 17.4788 1.21839 18.1523C0.0514689 18.8261 -0.345831 20.337 0.327965 21.504C1.00156 22.6709 2.50063 23.0682 3.66782 22.3946C4.3605 21.9947 4.78606 21.3075 4.87472 20.5665H7.47642C7.55097 20.5683 7.62421 20.5479 7.68725 20.5079L11.3201 18.1991C12.2892 19.6504 13.905 20.6342 15.7496 20.754V25.1367C14.5801 25.3198 13.6755 26.3319 13.6755 27.5508C13.6755 28.8982 14.7768 30 16.1247 30C17.4726 30 18.5739 28.8982 18.5739 27.5508C18.5739 26.3293 17.673 25.3049 16.4998 25.1249V20.754C18.351 20.636 19.9712 19.6454 20.9411 18.1876L24.3864 20.3789C24.247 20.7302 24.1638 21.1155 24.1638 21.5157C24.1638 23.217 25.5556 24.5976 27.2575 24.5976C28.9593 24.5976 30.3394 23.217 30.3394 21.5157C30.3394 19.8142 28.9593 18.422 27.2575 18.422C26.2258 18.422 25.3108 18.9429 24.7497 19.7226L21.3045 17.5314C21.6785 16.767 21.9019 15.9075 21.9019 15C21.9019 14.0887 21.6814 13.2237 21.3045 12.4569L24.8787 10.1835H27.3982C27.4471 10.4506 27.5363 10.7208 27.6794 10.9688C28.353 12.1355 29.8639 12.5331 31.0311 11.8595C32.198 11.1857 32.5953 9.68634 31.9215 8.51968C31.2479 7.35276 29.7488 6.94368 28.5816 7.6172C27.896 8.01298 27.4694 8.70143 27.3747 9.43361H24.773C24.6985 9.43178 24.6252 9.45219 24.5622 9.49221L20.9412 11.8124C19.9712 10.3546 18.351 9.36404 16.4998 9.24605V4.87508C17.673 4.69511 18.5739 3.67079 18.5739 2.44916C18.5739 1.10177 17.4727 0 16.1247 0H16.1247ZM16.1247 0.749934C17.0672 0.749934 17.8239 1.50697 17.8239 2.44916C17.8239 3.39135 17.0672 4.14838 16.1247 4.14838C15.1823 4.14838 14.4373 3.39135 14.4373 2.44916C14.4373 1.50697 15.1823 0.749934 16.1247 0.749934ZM5.00393 6.03517C6.30029 6.03517 7.3359 7.08283 7.3359 8.37892C7.3359 9.67502 6.30029 10.7227 5.00393 10.7227C3.7073 10.7227 2.66018 9.67502 2.66018 8.37892C2.66018 7.08283 3.7073 6.03517 5.00393 6.03517ZM29.5899 8.05093C30.2462 7.96801 30.9243 8.28269 31.2774 8.89455C31.7485 9.71045 31.4722 10.7439 30.6564 11.215C29.8405 11.6858 28.807 11.4096 28.3362 10.5938C27.8651 9.77813 28.1413 8.7444 28.9572 8.27357C29.1612 8.15586 29.3713 8.07843 29.5899 8.05097L29.5899 8.05093ZM16.1254 9.97274C18.9047 9.97274 21.1527 12.2215 21.1527 15C21.1527 17.7785 18.9047 20.0273 16.1254 20.0273C13.3461 20.0273 11.0981 17.7785 11.0981 15C11.0981 12.2215 13.3461 9.97274 16.1254 9.97274ZM2.2383 18.5857C2.8946 18.5028 3.56085 18.8175 3.91395 19.4293C4.38506 20.2452 4.10883 21.2787 3.29296 21.7498C2.47707 22.2206 1.44361 21.9444 0.972779 21.1285C0.501671 20.3129 0.7779 19.2792 1.59377 18.8083C1.7978 18.6906 2.01962 18.6132 2.2383 18.5857V18.5857ZM27.2576 19.1716C28.5542 19.1716 29.5895 20.2193 29.5895 21.5154C29.5895 22.8115 28.5542 23.8592 27.2576 23.8592C25.9609 23.8592 24.9138 22.8115 24.9138 21.5154C24.9138 20.2193 25.9609 19.1716 27.2576 19.1716ZM16.1247 25.8514C17.0672 25.8514 17.8239 26.6084 17.8239 27.5506C17.8239 28.4928 17.0672 29.2498 16.1247 29.2498C15.1823 29.2498 14.4373 28.4928 14.4373 27.5506C14.4373 26.6084 15.1823 25.8514 16.1247 25.8514Z" fill="#200E32"/>
</svg>
