<svg width="25" height="28" viewBox="0 0 25 28" fill="none" xmlns="http://www.w3.org/2000/svg">
<path d="M23.991 7.99994L14.4998 0.499942C13.9345 0.0759888 13.2684 0 12.5618 0C11.8552 0 11.565 0.0759888 10.9997 0.499942L6.03083 3.99994L0.999734 7.99994C0.177523 8.6166 0 9.19315 0 10.2209L8.35657e-05 17.5683L0 24.9157C0 25.7817 0.194016 26.1929 0.806301 26.8055C1.41886 27.4178 1.89936 27.7895 2.7653 27.7895L12.5622 27.7893H22.3583C23.2243 27.7893 23.7055 27.7201 24.318 27.1079C24.9303 26.4953 24.9999 25.7814 24.9999 24.9154L25 21.1079V17.5683V10.2206C25 9.19279 24.8132 8.61656 23.991 7.99994ZM11.7456 18.3848H6.03108V11.8535H11.7456V18.3848ZM6.03108 26.5481V20.0171H11.7456V26.5481H6.03108ZM13.3785 26.5481V20.0171H19.093V26.5481H13.3785ZM23.991 24.9154C23.9907 25.3484 23.8185 25.7633 23.5124 26.0695C23.2062 26.3756 22.7913 26.5478 22.3583 26.5481H20.7257V20.0171C20.7257 19.5842 20.5534 19.1687 20.2473 18.8625C19.9412 18.5564 19.5259 18.3845 19.0927 18.3845H13.378V11.8532C13.378 11.4203 13.206 11.0051 12.8999 10.6989C12.5937 10.3925 12.1783 10.2206 11.7453 10.2206H6.03083C5.59758 10.2206 5.18237 10.3925 4.87623 10.6989C4.57009 11.0051 4.39789 11.4203 4.39789 11.8532V26.5481H2.76522C2.33225 26.5478 1.91733 26.3756 1.61119 26.0695C1.30504 25.7633 1.13284 25.3484 1.13257 24.9154V10.2206C1.13366 9.70699 1.3753 9.22345 1.78558 8.9143L11.5821 1.56688C11.8648 1.35504 12.2086 1.2405 12.5618 1.2405C12.915 1.2405 13.2588 1.35503 13.5414 1.56688L23.338 8.9143C23.7483 9.22345 23.9899 9.70698 23.991 10.2206L23.991 24.9154Z" fill="#200E32"/>
</svg>
