<svg width="43" height="35" viewBox="0 0 43 35" fill="none" xmlns="http://www.w3.org/2000/svg">
<path d="M29.323 12.821V11.2665C29.323 10.6066 28.7852 10.0687 28.1253 10.0687H25.7411C25.0811 10.0687 24.5433 10.6066 24.5433 11.2665V12.5485H18.3511V11.2665C18.3511 10.6066 17.8133 10.0687 17.1534 10.0687L17.1532 10.0688L14.7692 10.0706L14.7691 10.0706L14.7692 10.2206C14.1921 10.2206 13.7214 10.6912 13.7214 11.2683V12.8896M29.323 12.821L37.7851 24.6011C38.0916 25.3892 38.2467 26.2584 38.2467 27.1818V32.7797C38.2467 33.7464 37.4605 34.5326 36.4938 34.5326H6.4014C5.43473 34.5326 4.64844 33.7464 4.64844 32.7797V27.1818C4.64844 26.2584 4.80353 25.391 5.11012 24.6011C7.33542 18.8661 12.8305 13.7012 13.7214 12.8896M29.323 12.821C30.3479 13.761 35.7227 18.8699 37.9249 24.5468M29.323 12.821L37.9249 24.5468M13.7214 12.8896L13.6204 12.7787C13.6054 12.7924 13.589 12.8074 13.5714 12.8235M13.7214 12.8896H13.5714V12.8235M13.5714 12.8235C12.5444 13.7652 7.17184 18.873 4.97028 24.5468C4.6564 25.3555 4.49844 26.2416 4.49844 27.1818V32.7797C4.49844 33.8292 5.35188 34.6826 6.4014 34.6826H36.4938C37.5433 34.6826 38.3967 33.8292 38.3967 32.7797V27.1818C38.3967 26.2417 38.2388 25.3538 37.9249 24.5468M13.5714 12.8235L37.9249 24.5468M5.47974 27.182V27.1819C5.47974 26.3599 5.61585 25.5923 5.88436 24.9008L5.88438 24.9007C7.03212 21.9433 9.13957 19.0839 10.9746 16.9525C11.8911 15.8879 12.7375 15.0073 13.3587 14.3896C13.6692 14.0808 13.9233 13.8379 14.1016 13.6706C14.1907 13.5869 14.2608 13.5222 14.3096 13.4777C14.3339 13.4554 14.3529 13.4382 14.3662 13.4263L14.3817 13.4124C14.3844 13.41 14.3859 13.4086 14.3865 13.4081C14.3868 13.4078 14.3869 13.4078 14.3867 13.4079L14.3868 13.4079L14.389 13.4059L14.5026 13.3049L14.553 13.2602V13.1928V11.2685C14.553 11.1494 14.6499 11.0524 14.7691 11.0524H17.1532C17.2724 11.0524 17.3693 11.1494 17.3693 11.2685V13.3822V13.5322H17.5193H25.3753H25.5253V13.3822V11.2685C25.5253 11.1494 25.6222 11.0524 25.7414 11.0524H28.1256C28.2447 11.0524 28.3417 11.1494 28.3417 11.2685V13.1928V13.2602L28.392 13.3049L28.5056 13.4059L28.506 13.4063L28.5062 13.4064L28.5066 13.4068L28.5079 13.408L28.5124 13.412L28.528 13.4261L28.5846 13.4776C28.6333 13.5221 28.7033 13.5868 28.7924 13.6704C28.9705 13.8377 29.2244 14.0806 29.5348 14.3892C30.1557 15.0067 31.0021 15.8869 31.9186 16.9513C33.7536 19.0823 35.8615 21.9417 37.0102 24.9008C37.2788 25.5923 37.4149 26.3581 37.4149 27.1819L37.4146 32.7798C37.4146 33.2885 37.0002 33.7029 36.4915 33.7029H6.40098C5.89232 33.7029 5.47794 33.2885 5.47794 32.7798L5.47974 27.182Z" fill="#5801B7" stroke="#5801B7" stroke-width="0.3"/>
<path d="M0.528572 9.9863L0.528583 9.98617C0.576407 9.42981 0.926475 8.78595 1.31505 8.23347C1.70729 7.67578 2.15801 7.18463 2.43991 6.92873C5.714 3.92581 10.3394 2.44789 14.1993 1.71995C18.0488 0.993969 21.1594 1.00994 21.4605 1.01554C21.7588 1.00909 24.859 0.993219 28.6991 1.71959C32.5498 2.44798 37.167 3.92679 40.4422 6.9305C40.7242 7.18563 41.1749 7.67633 41.5669 8.23373C41.9552 8.78599 42.3049 9.42994 42.3518 9.98643M0.528572 9.9863L11.3851 11.792L10.828 10.6957C10.7107 10.4643 10.6494 10.2063 10.6494 9.94841V9.44887C10.6494 9.27771 10.7519 9.13449 10.9184 9.07898L10.9193 9.07866C11.951 8.72709 16.1222 7.70884 21.4411 7.70884C26.76 7.70884 30.9311 8.72705 31.9644 9.07869L31.9656 9.0791C32.1278 9.13271 32.2324 9.27724 32.2324 9.44887V9.94841C32.2324 10.2082 32.1711 10.4662 32.0541 10.6953L32.0539 10.6956L31.4967 11.792L31.6304 11.86L31.4967 11.7921C31.2041 12.3671 31.4167 13.0644 31.9791 13.3795L31.9792 13.3796L38.4931 17.019L38.4939 17.0194C38.6752 17.1192 38.8749 17.1733 39.0785 17.1733C39.1935 17.1733 39.3112 17.1569 39.4254 17.1216C39.7386 17.0267 39.9943 16.8118 40.1442 16.5202L40.1443 16.5201L41.0893 14.6788L41.0896 14.6789L41.0934 14.6701L41.0965 14.6631C41.416 13.9288 41.7607 13.1368 42.0096 12.3449C42.2592 11.5509 42.4163 10.7455 42.3518 9.98643M0.528572 9.9863C0.46398 10.7455 0.621571 11.551 0.872668 12.3476C1.1225 13.1401 1.46874 13.9351 1.79211 14.6776L1.79753 14.69L1.79725 14.6902M0.528572 9.9863L1.79725 14.6902M42.3518 9.98643L42.2023 9.99901L42.3518 9.98629C42.3518 9.98634 42.3518 9.98638 42.3518 9.98643ZM1.79725 14.6902L1.80163 14.6987M1.79725 14.6902L1.80163 14.6987M1.80163 14.6987L2.7376 16.5202L2.73761 16.5202M1.80163 14.6987L2.73761 16.5202M2.73761 16.5202C2.88757 16.8119 3.14327 17.0267 3.45656 17.1216C3.57077 17.1569 3.68841 17.1733 3.80341 17.1733C4.00596 17.1733 4.2061 17.1215 4.38886 17.0189C4.38892 17.0189 4.38899 17.0188 4.38906 17.0188L10.9026 13.3796L10.9028 13.3795M2.73761 16.5202L10.9028 13.3795M10.9028 13.3795C11.4652 13.0644 11.6778 12.3671 11.3852 11.7921L10.9028 13.3795ZM9.67445 10.1192C9.6701 10.0624 9.66791 10.0055 9.66791 9.94856V9.44902C9.66791 8.85808 10.0444 8.33554 10.605 8.14906C11.695 7.77729 15.9994 6.72731 21.441 6.72731C26.883 6.72731 31.1875 7.77743 32.279 8.1491C32.8378 8.33564 33.2142 8.85818 33.2142 9.44902V9.94856C33.2142 10.0068 33.2112 10.0643 33.2067 10.1205L40.2827 14.0744C40.5624 13.4311 40.8498 12.7556 41.0617 12.091C41.2907 11.373 41.427 10.6808 41.3753 10.0676C41.3631 9.92524 41.3018 9.73876 41.1976 9.52265C41.0946 9.30888 40.9547 9.07632 40.7956 8.84457C40.4767 8.38015 40.0883 7.9305 39.7829 7.65395L39.7822 7.65335C36.6621 4.79308 32.1226 3.37616 28.3302 2.6762C24.7173 2.00938 21.806 1.99709 21.4897 1.99575C21.4789 1.9957 21.4711 1.99567 21.4664 1.99563H21.4577H21.4482L21.4482 1.99535C21.4479 1.99535 21.4471 1.99533 21.4457 1.99531C21.441 1.99523 21.4302 1.99505 21.4113 1.99492C21.3855 1.99475 21.3486 1.99469 21.301 1.99492C21.2058 1.9954 21.0683 1.99705 20.8929 2.00133C20.542 2.00988 20.0395 2.02893 19.4199 2.07C18.1804 2.15215 16.4734 2.32234 14.5742 2.6725C10.7704 3.37385 6.21974 4.79307 3.1024 7.65148L3.10174 7.65209C2.79547 7.92957 2.4066 8.37968 2.08746 8.84431C1.92821 9.07617 1.78829 9.30878 1.68525 9.52258C1.58106 9.73876 1.51971 9.92527 1.50755 10.0676L9.67445 10.1192ZM9.67445 10.1192L2.5999 14.0723C2.31722 13.4228 2.02963 12.7453 1.81846 12.0814C1.59044 11.3646 1.45592 10.6764 1.50754 10.0677L9.67445 10.1192ZM10.4251 12.5224L10.4244 12.5227L3.91132 16.1616C3.91122 16.1617 3.91111 16.1618 3.911 16.1618C3.85643 16.1918 3.797 16.1986 3.73993 16.1818C3.68563 16.1653 3.63946 16.127 3.61014 16.0707C3.61011 16.0707 3.61007 16.0706 3.61003 16.0705L3.03462 14.952L9.93248 11.0988C9.93906 11.1128 9.94589 11.1267 9.953 11.1405C9.95304 11.1406 9.95308 11.1407 9.95311 11.1408L10.5113 12.2356C10.5114 12.2358 10.5114 12.2359 10.5115 12.2361C10.5645 12.3427 10.5258 12.4668 10.4251 12.5224ZM32.4557 12.5245L32.4556 12.5245C32.355 12.4684 32.3162 12.3418 32.3683 12.2383C32.3684 12.2382 32.3685 12.2381 32.3685 12.238L32.9252 11.1426C32.9253 11.1425 32.9253 11.1424 32.9253 11.1423C32.9324 11.1285 32.9393 11.1146 32.9458 11.1006L39.8438 14.9539L39.27 16.0723C39.27 16.0724 39.27 16.0725 39.2699 16.0725C39.2406 16.1289 39.1942 16.1673 39.1398 16.1837C39.0857 16.2 39.0261 16.1942 38.9685 16.1633C38.9682 16.1631 38.9679 16.163 38.9676 16.1628L32.4557 12.5245Z" fill="#5801B7" stroke="#5801B7" stroke-width="0.3"/>
<path d="M21.4424 15.5922C16.9682 15.5922 13.3266 19.2319 13.3266 23.7062C13.3266 28.1804 16.9663 31.822 21.4424 31.822C25.9166 31.822 29.5583 28.1823 29.5583 23.7062C29.5583 19.2338 25.9185 15.5922 21.4424 15.5922ZM21.4424 30.842C17.509 30.842 14.3085 27.6413 14.3085 23.708C14.3085 19.7748 17.5091 16.5741 21.4424 16.5741C25.3757 16.5741 28.5764 19.7748 28.5764 23.708C28.5764 27.6413 25.3757 30.842 21.4424 30.842Z" fill="#5801B7" stroke="#5801B7" stroke-width="0.3"/>
<path d="M21.4438 18.7719C18.7298 18.7719 16.5219 20.9797 16.5219 23.6938C16.5219 26.4079 18.7297 28.6158 21.4438 28.6158C24.1579 28.6158 26.3658 26.4079 26.3658 23.6938C26.3658 20.9797 24.1579 18.7719 21.4438 18.7719ZM21.4438 27.6339C19.2706 27.6339 17.5036 25.8651 17.5036 23.6936C17.5036 21.5204 19.2723 19.7534 21.4438 19.7534C23.617 19.7534 25.384 21.5221 25.384 23.6936C25.384 25.8669 23.6171 27.6339 21.4438 27.6339Z" fill="#5801B7" stroke="#5801B7" stroke-width="0.3"/>
</svg>
