<svg width="15" height="24" viewBox="0 0 15 24" fill="none" xmlns="http://www.w3.org/2000/svg">
<path d="M11.4499 7.53281H3.90146C3.66049 7.53281 3.47422 7.76222 3.47422 8.00291C3.47422 8.24361 3.66049 8.47301 3.90146 8.47301H11.4281C11.6691 8.47301 11.8554 8.24361 11.8554 8.00291C11.8554 7.77179 11.699 7.53281 11.4499 7.53281Z" fill="#5F5F5F" stroke="#5F5F5F" stroke-width="0.2"/>
<path d="M11.4499 11.482H3.90146C3.66049 11.482 3.47422 11.7114 3.47422 11.9521C3.47422 12.1928 3.66049 12.4222 3.90146 12.4222H11.4281C11.6673 12.4222 11.8525 12.1963 11.8553 11.9576C11.8796 11.7091 11.6881 11.482 11.4499 11.482Z" fill="#5F5F5F" stroke="#5F5F5F" stroke-width="0.2"/>
<path d="M11.4499 15.1812H3.90146C3.66049 15.1812 3.47422 15.4107 3.47422 15.6513C3.47422 15.892 3.66049 16.1214 3.90146 16.1214H11.4281C11.6691 16.1214 11.8554 15.892 11.8554 15.6513C11.8554 15.4202 11.699 15.1812 11.4499 15.1812Z" fill="#5F5F5F" stroke="#5F5F5F" stroke-width="0.2"/>
<path d="M9.54397 22.9037L9.54392 22.9037L9.54657 22.9064C9.75932 23.1203 10.0458 23.2566 10.3592 23.2566C10.6265 23.2566 10.8891 23.147 11.101 22.9608C11.1012 22.9606 11.1014 22.9604 11.1016 22.9603L11.8205 22.3443L11.8207 22.3444L11.8251 22.3402C11.8795 22.2874 11.9619 22.2573 12.05 22.2573C12.1381 22.2573 12.2205 22.2874 12.2749 22.3402L12.2769 22.342L12.974 22.9826C13.1408 23.1439 13.3388 23.2319 13.5226 23.2319C13.6913 23.2319 13.8616 23.1653 13.9883 23.0183C14.1144 22.8721 14.1898 22.6554 14.1898 22.3671V1.83889C14.1898 1.5618 14.1138 1.34608 13.9891 1.19779C13.8641 1.04913 13.6944 0.97402 13.5226 0.97402C13.3386 0.97402 13.1404 1.06221 12.9734 1.2239C12.9733 1.22402 12.9732 1.22415 12.973 1.22428L12.3006 1.86207C12.2453 1.90544 12.1672 1.92948 12.0885 1.92707C12.0085 1.92463 11.939 1.89549 11.8958 1.84667L11.8959 1.84662L11.8931 1.84374L11.3272 1.25297C11.1307 1.03166 10.8403 0.924673 10.5556 0.924673C10.2665 0.924673 10.0012 1.03442 9.78655 1.25023L9.78523 1.25158L9.21993 1.84173C9.12465 1.92978 8.97944 1.91965 8.91258 1.82892L8.91264 1.82888L8.91032 1.82597L8.51763 1.3325C8.30385 1.06387 8.0141 0.924673 7.71944 0.924673C7.43215 0.924673 7.1646 1.03335 6.96963 1.25292L6.42563 1.81894L6.42556 1.81888L6.42281 1.822C6.33171 1.92502 6.16196 1.92502 6.07086 1.822L6.07088 1.82198L6.06945 1.82043L5.54585 1.25294L5.5459 1.25289L5.54325 1.25023C5.3305 1.03635 5.044 0.9 4.7306 0.9C4.44431 0.9 4.17958 1.00775 3.98586 1.19844L3.26783 1.83825L3.26777 1.83818L3.26475 1.84111C3.21035 1.89384 3.12793 1.92394 3.03983 1.92394C2.95174 1.92394 2.86931 1.89384 2.81491 1.84111L2.81494 1.84108L2.81297 1.83928L2.1158 1.19865C1.94896 1.03732 1.75102 0.949347 1.56723 0.949347C1.39849 0.949347 1.22824 1.01595 1.10152 1.16293C0.975452 1.30916 0.9 1.5259 0.9 1.81422V22.3177C0.9 22.5948 0.975999 22.8105 1.10073 22.9588C1.22576 23.1075 1.3954 23.1826 1.56723 23.1826C1.75121 23.1826 1.94937 23.0944 2.11632 22.9328C2.11648 22.9326 2.11663 22.9325 2.11679 22.9323L2.78919 22.2945C2.8445 22.2512 2.92258 22.2271 3.00132 22.2295C3.08134 22.232 3.15082 22.2611 3.19399 22.3099L3.19393 22.31L3.19669 22.3129L3.76257 22.9036C3.95916 23.1249 4.24949 23.2319 4.53425 23.2319C4.82328 23.2319 5.0886 23.1222 5.30327 22.9064L5.30329 22.9064L5.30459 22.905L5.86989 22.3149C5.96517 22.2268 6.11038 22.237 6.17724 22.3277L6.17718 22.3277L6.1795 22.3306L6.57219 22.8241C6.78597 23.0927 7.07572 23.2319 7.37038 23.2319C7.65767 23.2319 7.92522 23.1233 8.12019 22.9037L8.6642 22.3377L8.66426 22.3377L8.66701 22.3346C8.75811 22.2316 8.92786 22.2316 9.01896 22.3346L9.01894 22.3346L9.02038 22.3362L9.54397 22.9037ZM2.28281 21.6046L1.81994 22.0559V2.1199L2.30585 2.57784L2.3058 2.57789L2.30838 2.58016C2.52301 2.76895 2.80829 2.87648 3.09437 2.87648C3.38258 2.87648 3.64558 2.76748 3.85854 2.58016L3.8586 2.58022L3.86153 2.57742L4.55642 1.91433C4.61173 1.87101 4.68976 1.847 4.76845 1.8494C4.84846 1.85185 4.91795 1.88099 4.96111 1.92981L4.9611 1.92982L4.96253 1.93138L5.48542 2.4981C5.67796 2.71538 5.96622 2.8518 6.25775 2.8518C6.5527 2.8518 6.81683 2.71262 7.02677 2.50157L7.02678 2.50158L7.02797 2.50034L7.57338 1.93286L7.57344 1.93292L7.57619 1.92981C7.64405 1.85307 7.78666 1.85195 7.8571 1.94756L7.85704 1.9476L7.85936 1.95051L8.25034 2.44182C8.44463 2.7149 8.73687 2.8518 9.05024 2.8518C9.31714 2.8518 9.5842 2.74215 9.77835 2.52343L10.3647 1.90945C10.4818 1.79715 10.6545 1.80564 10.7425 1.90513L10.7424 1.90518L10.7452 1.90807L11.3124 2.50022L11.3124 2.50024L11.3137 2.50157C11.5246 2.71361 11.7889 2.8518 12.1045 2.8518C12.372 2.8518 12.6348 2.74201 12.8469 2.55548L12.847 2.55558L12.8506 2.552L13.3135 2.10072V22.0367L12.8276 21.5788L12.8277 21.5787L12.8251 21.5765C12.6104 21.3877 12.3252 21.2801 12.0391 21.2801C11.7301 21.2801 11.4669 21.3884 11.2531 21.5765L11.253 21.5764L11.2501 21.5792L10.5552 22.2423C10.4999 22.2856 10.4219 22.3096 10.3432 22.3072C10.2632 22.3048 10.1937 22.2756 10.1505 22.2268L10.1505 22.2268L10.1491 22.2252L9.62693 21.6593C9.62669 21.659 9.62644 21.6588 9.6262 21.6585C9.43366 21.4412 9.14541 21.3048 8.85389 21.3048C8.56272 21.3048 8.27362 21.441 8.08031 21.6844L7.53826 22.2484L7.5382 22.2484L7.53545 22.2515C7.46759 22.3282 7.32498 22.3293 7.25454 22.2337L7.25459 22.2337L7.25228 22.2308L6.86129 21.7395C6.667 21.4664 6.37477 21.3295 6.0614 21.3295C5.79453 21.3295 5.52749 21.4391 5.33335 21.6578L4.76885 22.2471C4.65167 22.3595 4.47899 22.351 4.391 22.2515L4.39106 22.2514L4.3883 22.2485L3.82108 21.6564L3.82109 21.6564L3.81976 21.655C3.60884 21.443 3.34456 21.3048 3.02892 21.3048C2.76143 21.3048 2.49862 21.4146 2.28657 21.6011L2.28648 21.601L2.28281 21.6046Z" fill="#5F5F5F" stroke="#5F5F5F" stroke-width="0.2"/>
</svg>
