<svg width="17" height="17" viewBox="0 0 17 17" fill="none" xmlns="http://www.w3.org/2000/svg">
<path d="M12.7774 9.5286L11.2863 8.43792C11.0596 8.27168 10.7825 8.20619 10.5054 8.24901C10.2283 8.29183 9.9865 8.44044 9.82025 8.66714L9.3593 9.29938C9.35426 9.30694 9.34922 9.3145 9.34418 9.32205C9.27365 9.33213 8.90086 9.33969 8.00917 8.62936L7.91345 8.56135C6.98146 7.9417 6.87567 7.58654 6.86308 7.51349C6.86811 7.50593 6.87567 7.49838 6.88071 7.49082L7.34167 6.85858C7.68172 6.39258 7.58096 5.73515 7.11245 5.39258L5.59355 4.28427C5.12756 3.9417 4.47013 4.04498 4.12756 4.51349L3.66156 5.15329C3.21068 5.77294 3.0923 6.58654 3.3467 7.32961C3.71698 8.40518 4.64645 9.5412 6.11748 10.71C6.14267 10.7402 6.1729 10.7654 6.20564 10.7906C6.24091 10.8158 6.27869 10.8409 6.31396 10.8661C6.34922 10.8938 6.38449 10.919 6.41975 10.9467C6.4525 10.9719 6.48776 10.9921 6.52303 11.0072C8.08474 12.05 9.44998 12.5916 10.5885 12.6142C10.6036 12.6142 10.6213 12.6142 10.6364 12.6142C11.3794 12.6142 12.0898 12.249 12.5381 11.6319L13.0041 10.9921C13.1704 10.7654 13.2359 10.4883 13.1931 10.2112C13.1527 9.93666 13.0041 9.69233 12.7774 9.5286ZM12.1931 10.4001L11.7271 11.0399C11.4601 11.4052 11.0318 11.6142 10.6112 11.6067C9.93109 11.5916 8.74217 11.3095 6.91345 10.0525C5.15779 8.69233 4.52554 7.64699 4.30388 7.00467C4.15779 6.57898 4.22328 6.09787 4.47768 5.75027L4.94368 5.11047C4.95627 5.09283 4.98146 5.0878 5.00161 5.10039L6.52051 6.2087C6.53814 6.2213 6.54318 6.24901 6.53058 6.26664L6.08978 6.86865C5.95627 7.01475 5.83789 7.2616 5.85804 7.57646C5.89834 8.15833 6.387 8.7553 7.33915 9.38755L7.39708 9.43037C8.3064 10.1558 9.02429 10.4404 9.59104 10.3019C9.89582 10.2263 10.0948 10.0374 10.1931 9.86614L10.6339 9.26412C10.6465 9.24901 10.6767 9.24397 10.6918 9.25404L12.1855 10.3447C12.2006 10.3523 12.2031 10.3825 12.1931 10.4001Z" fill="#5F5F5F"/>
<path d="M8.28463 0C3.71788 0 0 3.71537 0 8.28463C0 10.2091 0.667506 12.063 1.88413 13.5441L0.486146 16.267C0.392947 16.4458 0.418136 16.6625 0.5466 16.8186C0.644836 16.9345 0.785894 17 0.934509 17C0.982368 17 1.03023 16.9924 1.07809 16.9798L4.89421 15.8463C5.96222 16.3275 7.10075 16.5693 8.28212 16.5693C12.8489 16.5693 16.5667 12.8539 16.5667 8.28463C16.5667 3.71537 12.8514 0 8.28463 0ZM8.28463 15.5592C7.18892 15.5592 6.1335 15.3224 5.15365 14.8514C5.0403 14.7985 4.91184 14.7884 4.79345 14.8237L1.92443 15.6776L2.93703 13.7028C3.03275 13.5164 3.00252 13.2922 2.86398 13.136C1.66751 11.801 1.00756 10.0756 1.00756 8.28463C1.00756 4.27204 4.27204 1.00756 8.28463 1.00756C12.2972 1.00756 15.5592 4.27204 15.5592 8.28463C15.5592 12.2972 12.2972 15.5592 8.28463 15.5592Z" fill="#5F5F5F"/>
</svg>
