<svg width="22" height="22" viewBox="0 0 22 22" fill="none" xmlns="http://www.w3.org/2000/svg">
<rect width="22" height="22" rx="2" fill="#4C4C4C"/>
<path fill-rule="evenodd" clip-rule="evenodd" d="M4.15131 4.22818C4.23448 4.35369 5.524 6.17641 7.01674 8.27861L9.73086 12.101L9.49884 12.3508C8.89704 12.9987 4.25267 18.2493 4.1867 18.3563C4.13017 18.4481 4.2511 18.4768 4.683 18.4741L5.25412 18.4705L7.71017 15.705C9.06103 14.184 10.21 12.9539 10.2635 12.9715C10.317 12.9892 11.2393 14.2353 12.3129 15.7407L14.2651 18.4777H16.3714C17.5299 18.4777 18.4777 18.4574 18.4777 18.4325C18.4777 18.4077 17.1725 16.5528 15.5773 14.3105C13.9822 12.0682 12.677 10.2063 12.677 10.1731C12.677 10.1222 17.1056 5.09039 17.8715 4.27102L18.1212 4.00389H17.5248H16.9285L14.5486 6.67522C13.2397 8.14446 12.1392 9.3451 12.1033 9.34326C12.0674 9.34151 11.1941 8.15029 10.1627 6.69621L8.28728 4.05246L6.14369 4.02623L4 4L4.15131 4.22818ZM12.2346 11.1572C14.722 14.6055 16.7925 17.4884 16.8358 17.5637C16.9012 17.6776 16.7424 17.7006 15.8872 17.7006H14.8601L10.3175 11.4174C7.8191 7.96164 5.75259 5.0766 5.72526 5.00617C5.68603 4.90515 5.89013 4.87911 6.69377 4.8829L7.71203 4.88766L12.2346 11.1572Z" fill="#F6EDFF"/>
</svg>
