<svg width="26" height="19" viewBox="0 0 26 19" fill="none" xmlns="http://www.w3.org/2000/svg">
<path d="M12.7882 18.2012H12.928C14.2193 18.1965 20.7622 18.1493 22.5264 17.6749C23.0597 17.5301 23.5457 17.2479 23.9358 16.8564C24.3259 16.465 24.6064 15.978 24.7493 15.4442C24.9079 14.8472 25.0195 14.0571 25.0949 13.2417L25.1106 13.0784L25.1451 12.6699L25.1577 12.5065C25.2598 11.0707 25.2724 9.726 25.274 9.43223V9.31441C25.2724 9.00965 25.2583 7.57382 25.1451 6.07829L25.1326 5.91335L25.1184 5.74997C25.0399 4.8514 24.9236 3.95911 24.7493 3.30246C24.6064 2.76863 24.3259 2.28166 23.9358 1.8902C23.5457 1.49875 23.0597 1.21653 22.5264 1.07174C20.7041 0.581604 13.7779 0.547044 12.818 0.545473H12.595C12.1096 0.545473 10.1019 0.554899 7.99685 0.627161L7.7298 0.636586L7.59312 0.642871L7.3245 0.653868L7.05587 0.664864C5.31213 0.74184 3.65166 0.865942 2.88661 1.07331C2.35348 1.21796 1.86763 1.49995 1.47757 1.89111C1.08751 2.28227 0.806894 2.76892 0.663745 3.30246C0.489372 3.95754 0.373123 4.8514 0.294576 5.74997L0.282009 5.91492L0.269441 6.07829C0.191466 7.14273 0.148504 8.20945 0.140625 9.27671L0.140625 9.46993C0.143767 9.80769 0.156334 10.9749 0.241165 12.2631L0.252161 12.4249L0.256874 12.5065L0.269441 12.6699L0.304002 13.0784L0.319711 13.2417C0.395116 14.0571 0.506652 14.8488 0.665316 15.4442C0.808225 15.978 1.08873 16.465 1.47881 16.8564C1.86888 17.2479 2.35486 17.5301 2.88818 17.6749C3.65323 17.8791 5.3137 18.0048 7.05744 18.0834L7.3245 18.0943L7.5947 18.1038L7.7298 18.1085L7.99843 18.1195C9.49349 18.1675 10.9892 18.1943 12.485 18.1996L12.7882 18.2012ZM10.1946 13.1585V5.58973L16.725 9.37254L10.1946 13.1585Z" fill="#4D4D4D"/>
</svg>
