<svg width="27" height="26" viewBox="0 0 27 26" fill="none" xmlns="http://www.w3.org/2000/svg">
<path fill-rule="evenodd" clip-rule="evenodd" d="M4.61851 24.5708C4.97492 25.2364 5.67019 25.6522 6.42622 25.6509C6.74483 25.6522 7.06074 25.578 7.34425 25.4349L13.4897 22.2218C13.5059 22.2123 13.5248 22.2069 13.5437 22.2083L19.6472 25.3944C19.9429 25.5537 20.2736 25.636 20.6085 25.6347C20.7151 25.6347 20.8231 25.6252 20.9284 25.6104C22.0274 25.4308 22.778 24.4021 22.616 23.3018L21.4279 16.5381C21.421 16.5282 21.4192 16.5277 21.4187 16.5266C21.4185 16.5262 21.4185 16.5257 21.4185 16.5246C21.4185 16.5205 21.4279 16.5111 21.4279 16.5111L26.3826 11.7184C27.1143 11.0123 27.2075 9.87424 26.5986 9.05881C26.2678 8.6322 25.7832 8.35139 25.2486 8.27578L18.4146 7.29025C18.4025 7.29025 18.389 7.27675 18.3755 7.26325L15.323 1.13404C14.9788 0.441465 14.274 0.00405014 13.5005 0C13.2764 0 13.0522 0.0351012 12.8389 0.108004C12.3273 0.28216 11.9047 0.649372 11.6644 1.13404L8.61599 7.2457C8.61599 7.27405 8.58764 7.2862 8.56064 7.2862L1.74291 8.27173C1.32575 8.34194 0.936932 8.52824 0.622371 8.81175C0.224108 9.20191 0 9.73788 0 10.2968C0.00135005 10.8274 0.214657 11.335 0.59402 11.7049L5.58919 16.5111C5.59999 16.5219 5.60404 16.5367 5.60404 16.5516L4.40115 23.2883C4.3296 23.7284 4.40655 24.1793 4.61851 24.5708ZM13.4619 1.98211L13.4754 1.97266H13.501L13.5132 1.98481C13.5253 1.98481 13.5361 1.98751 13.5456 1.99561C13.5537 2.00371 13.5577 2.01451 13.5564 2.02666L16.6075 8.12752C16.9004 8.72829 17.4702 9.1468 18.1317 9.24805L24.9656 10.2417C24.9778 10.2417 24.9899 10.2444 25.0007 10.2498C25.0075 10.2511 25.0129 10.2511 25.0196 10.2498L25.0331 10.2619L25.0196 10.2916L20.0649 15.0965C19.5722 15.5582 19.3521 16.2413 19.4831 16.9042L20.6725 23.6287L20.6455 23.6544H20.6171C20.6117 23.6571 20.6063 23.6571 20.6009 23.6544C20.5874 23.653 20.5739 23.6476 20.5618 23.6409H20.5496L14.4744 20.4683C14.1828 20.3171 13.8588 20.2361 13.5294 20.2374C13.1905 20.2374 12.8557 20.3225 12.556 20.4818L6.44163 23.6881C6.43488 23.6895 6.42678 23.6895 6.42003 23.6881C6.39168 23.6881 6.36738 23.6692 6.36063 23.6422V23.6152L7.54867 16.892C7.65937 16.2345 7.44336 15.5636 6.96815 15.0965L1.97298 10.3038C1.97163 10.2835 1.97433 10.266 1.98513 10.2484L2.06748 10.2214L8.85821 9.24805C9.51973 9.14545 10.0881 8.72829 10.3824 8.12752L13.4349 2.01181C13.4416 1.99966 13.4497 1.98886 13.4619 1.98211Z" fill="#5801B7"/>
</svg>
