<svg width="28" height="25" viewBox="0 0 28 25" fill="none" xmlns="http://www.w3.org/2000/svg">
<path d="M20.04 0C22.1288 0.0234591 24.1167 0.908224 25.541 2.44727C26.9652 3.98617 27.7023 6.04506 27.5811 8.08301L27.5791 16.6885C27.7023 18.7888 26.9654 20.8487 25.541 22.3877C24.1167 23.9265 22.1286 24.8105 20.0283 24.834H7.52734C3.15472 24.8337 0.000121926 21.3001 0 16.751V8.08301C0.000225224 3.53396 3.15479 0.00023409 7.52734 0H20.04ZM7.52637 2.10742C4.36229 2.10742 2.09189 4.6503 2.0918 8.08203V16.749C2.0918 20.1809 4.36222 22.7246 7.52637 22.7246H20.0146C21.5307 22.7076 22.9739 22.0653 24.0078 20.9482C25.0417 19.8311 25.5766 18.3358 25.4854 16.749L25.4873 8.02051C25.5768 6.49594 25.0417 5.00092 24.0078 3.88379C22.9739 2.76665 21.5308 2.12445 20.0146 2.10742H7.52637ZM20.6377 7.61621C21.089 7.25232 21.7481 7.32566 22.1094 7.78027C22.4377 8.19355 22.4069 8.77977 22.0596 9.15625L21.9463 9.2627L16.2793 13.8301C14.9031 14.9105 13.0023 14.9645 11.5674 13.9873L11.3447 13.8252L5.64062 9.26465C5.18792 8.90277 5.1117 8.24029 5.4707 7.78418C5.79742 7.36952 6.37161 7.26832 6.81348 7.52539L6.94141 7.61328L12.6387 12.167C13.2774 12.6685 14.1535 12.7077 14.8203 12.29L14.9824 12.1758L20.6377 7.61621Z" fill="#5801B7"/>
</svg>
