<svg width="26" height="26" viewBox="0 0 26 26" fill="none" xmlns="http://www.w3.org/2000/svg">
<path d="M11.4922 0.777344C12.3869 0.0751552 13.6224 0.0733889 14.5059 0.77832H14.5068C15.4969 1.56985 16.5727 2.23438 17.7188 2.75781C19.4864 3.56323 21.3817 4.01476 23.3496 4.09961H23.3486C24.5415 4.14788 25.5176 5.09561 25.6309 6.2793L25.6934 7.04688C25.7436 7.81895 25.7573 8.60439 25.7461 9.39648V9.40234C25.7253 9.96496 25.2618 10.2933 24.79 10.3457L24.7725 10.3477H24.7539C24.2157 10.3279 23.8076 9.90088 23.8076 9.36426V9.36133C23.821 8.37662 23.7934 7.39397 23.708 6.45605L23.707 6.4541C23.6873 6.21479 23.5128 6.04655 23.2842 6.03711H23.2832C21.0659 5.93601 18.9336 5.42401 16.9346 4.52051L16.9326 4.51953C15.6513 3.92316 14.425 3.18059 13.3145 2.29004L13.3115 2.28711C13.1478 2.1508 12.92 2.14486 12.7344 2.29102C11.6252 3.19472 10.3992 3.93667 9.11621 4.51953L9.11719 4.52051C7.13099 5.4244 4.98514 5.9346 2.76855 6.03711H2.7666C2.54639 6.04569 2.36161 6.22191 2.34375 6.43945V6.44141C2.18664 8.13707 2.09107 11.0838 2.7793 14.207C3.46733 17.3292 4.93416 20.6109 7.88867 23.0068L8.21191 23.2578C8.54027 23.5063 8.88227 23.7452 9.23242 23.9678L9.95703 24.4287H9.5791C9.693 24.7082 9.67576 25.0346 9.49805 25.3066L9.49707 25.3057C9.31677 25.5995 9.00355 25.7499 8.68457 25.75C8.53709 25.75 8.40151 25.717 8.28027 25.6611L8.16406 25.5977C7.62229 25.262 7.11088 24.8957 6.62793 24.501V24.502C3.29202 21.7975 1.64513 18.1478 0.873047 14.7285C0.10118 11.3101 0.19971 8.10579 0.366211 6.2666C0.464013 5.07783 1.44502 4.14793 2.63281 4.09961L3.00293 4.08008C4.85055 3.95758 6.62114 3.51288 8.27832 2.75781C9.42402 2.2359 10.4994 1.57014 11.4912 0.77832L11.4922 0.777344Z" fill="#5801B7" stroke="#5801B7" stroke-width="0.5"/>
<path d="M24.6826 12.552C23.8749 11.3803 22.609 10.6391 21.2094 10.5179C19.8224 10.3967 18.4493 10.8954 17.4535 11.8777C16.377 12.9547 15.8924 14.49 16.1347 15.985C16.2294 16.5367 16.0136 17.1302 15.5554 17.5872L13.0919 20.0518C12.7145 20.4293 12.5 20.9407 12.5 21.4798V22.827C12.5 23.2046 12.7966 23.5 13.1727 23.5H14.5193C15.0582 23.5 15.5693 23.2841 15.9467 22.9078L18.5049 20.3485C19.0299 19.8233 19.7707 19.8372 20.1607 19.8776C21.9515 20.12 23.7007 19.3119 24.7243 17.7905C25.7743 16.2148 25.7604 14.0999 24.67 12.5381L24.6826 12.552ZM23.6061 17.0506C22.8791 18.1415 21.6272 18.7072 20.3348 18.5456C19.2305 18.3978 18.2348 18.7072 17.5482 19.394L14.99 21.9534C14.8689 22.0746 14.6934 22.1554 14.5193 22.1554H13.8466V21.4824C13.8466 21.3069 13.9135 21.1327 14.0485 21.0115L16.5121 18.5469C17.2794 17.7792 17.629 16.7552 17.4674 15.7729C17.292 14.6959 17.6429 13.605 18.4102 12.8374C19.1107 12.124 20.0925 11.773 21.0896 11.8677C22.0992 11.9624 22.9877 12.4738 23.5796 13.3361C24.333 14.427 24.3469 15.9623 23.62 17.0671L23.6061 17.0506Z" fill="#5801B7"/>
<path d="M19.082 14.0814C18.306 14.8565 18.306 16.1388 19.082 16.9127C19.4694 17.2996 19.991 17.5 20.5 17.5C21.0077 17.5 21.5293 17.2996 21.918 16.9127C22.694 16.1375 22.694 14.8552 21.918 14.0814C21.1419 13.3062 19.8581 13.3062 19.0833 14.0814H19.082ZM20.9676 15.9648C20.7006 16.2315 20.2856 16.2315 20.0186 15.9648C19.7515 15.698 19.7641 15.2835 20.0186 15.0168C20.1527 14.8828 20.3257 14.8164 20.4862 14.8164C20.6467 14.8164 20.8335 14.8828 20.9538 15.0168C21.2083 15.271 21.2083 15.698 20.9538 15.9648H20.9676Z" fill="#5801B7"/>
</svg>
