<svg width="25" height="26" viewBox="0 0 25 26" fill="none" xmlns="http://www.w3.org/2000/svg">
<path d="M8.99316 5.53613C9.39933 5.53624 9.77395 5.67563 10.0791 5.98633L11.7227 7.65918C12.3335 8.2813 12.3335 9.28315 11.7227 9.90527L10.8604 10.7822C11.1982 11.4629 12.1014 13.0359 13.8105 13.8242L14.6729 12.9141H14.6738C15.2851 12.2914 16.2695 12.2914 16.8809 12.9141L18.5898 14.6553C18.8623 14.9329 19.0312 15.3469 19.0312 15.7607C19.0312 16.1738 18.8949 16.5554 18.5898 16.8662L17.9326 17.5361L17.9316 17.5371C17.3654 18.0807 16.6319 18.4205 15.8643 18.4883L15.8633 18.4873C15.6944 18.5212 15.4954 18.5225 15.3018 18.5225C13.7785 18.5225 11.3648 18.0491 9.08691 15.6279V15.627L8.62695 15.125C6.38042 12.6359 6.21494 10.0422 6.31445 8.72852C6.349 7.94467 6.7163 7.23084 7.24805 6.65625L7.24902 6.65527L7.90625 5.98633C8.17889 5.70874 8.58595 5.53613 8.99316 5.53613ZM8.9873 6.97559C8.98478 6.97609 8.98141 6.97631 8.97754 6.97754C8.96934 6.98018 8.95957 6.98501 8.94922 6.99023C8.92799 7.00098 8.90825 7.01447 8.89648 7.02637L8.23926 7.69531C7.91869 8.02182 7.72678 8.44686 7.69434 8.87012V8.87109C7.59659 9.9309 7.7588 12.0562 9.61816 14.1514H9.61914L10.0781 14.6201L10.0791 14.6211C12.2355 16.9497 14.5516 17.1475 15.7236 17.0479C16.1382 17.0161 16.5544 16.8207 16.875 16.4941L17.5322 15.8252V15.8242C17.5662 15.7902 17.5888 15.7679 17.6025 15.75C17.6092 15.7414 17.6126 15.7353 17.6143 15.7314C17.6148 15.7301 17.6151 15.7291 17.6152 15.7285V15.7207C17.6147 15.7181 17.6135 15.7148 17.6123 15.7109C17.6097 15.7025 17.6057 15.6921 17.6006 15.6816C17.5899 15.6597 17.5762 15.6389 17.5645 15.627L15.9209 13.9541C15.8997 13.9326 15.8645 13.9189 15.8252 13.9189C15.7859 13.919 15.7506 13.9326 15.7295 13.9541L14.8096 14.8916L14.8076 14.8926C14.401 15.273 13.7883 15.4126 13.2744 15.1689C11.1565 14.2245 10.065 12.4061 9.57031 11.3984L9.56934 11.3965C9.33156 10.8764 9.43386 10.2173 9.84277 9.80078L10.7295 8.89746C10.7507 8.87574 10.7646 8.83952 10.7646 8.79883C10.7646 8.75815 10.7507 8.72194 10.7295 8.7002L9.08691 7.02637L9.08105 7.02051L9.07715 7.0127C9.05978 6.97704 9.02691 6.97461 8.99121 6.97461C8.99085 6.97463 8.98952 6.97515 8.9873 6.97559Z" fill="#5801B7" stroke="#5801B7" stroke-width="0.1"/>
<path d="M12.5088 0.0498047L13.1182 0.0644531C16.1513 0.213283 18.9553 1.47279 21.1191 3.67773C23.4285 6.02981 24.6825 9.12276 24.6826 12.4482C24.6826 15.7752 23.4282 18.8657 21.1191 21.2178L21.1201 21.2188C17.1342 25.3128 10.8435 26.0225 6.06152 22.9785L0.170898 25.1465L0.0771484 25.1807L0.105469 25.085L2.00488 18.7471C-0.819792 13.8457 -0.0573208 7.70671 3.89648 3.67969C6.18148 1.35236 9.17871 0.0794515 12.4053 0.0527344L12.4033 0.0498047H12.5088ZM12.5107 1.4873C9.63226 1.4873 6.91719 2.62047 4.88965 4.68555C1.32349 8.31628 0.702561 13.8797 3.38477 18.2451L3.54883 18.5137L3.56055 18.5322L3.55371 18.5537L2.26855 22.8418L6.24805 21.3711L6.27441 21.3613L6.2959 21.3789L6.55664 21.5781C10.8081 24.4758 16.4988 23.9103 20.1299 20.2119C22.1573 18.147 23.2688 15.3816 23.2715 12.4492C23.2715 9.51658 22.1584 6.75068 20.1309 4.68555C18.1035 2.61932 15.389 1.48739 12.5107 1.4873Z" fill="#5801B7" stroke="#5801B7" stroke-width="0.1"/>
</svg>
