<svg width="24" height="24" viewBox="0 0 24 24" fill="none" xmlns="http://www.w3.org/2000/svg">
<path fill-rule="evenodd" clip-rule="evenodd" d="M11.2012 0.0448033C11.6899 0.0449 12.0859 0.440673 12.0859 0.928592C12.0858 1.37573 11.7531 1.74499 11.3213 1.80359L11.2012 1.81238H6.78906C3.81355 1.81238 1.88623 3.7825 1.77539 6.84265L1.77051 7.1239V16.9188C1.77062 20.0483 3.6037 22.107 6.52051 22.2255L6.78906 22.2304H17.2012C20.1841 22.2304 22.1063 20.2642 22.2168 17.2001L22.2217 16.9188V12.1727C22.2219 11.685 22.6178 11.2899 23.1064 11.2899C23.5545 11.2899 23.9248 11.6223 23.9834 12.0536L23.9912 12.1727V16.9188C23.9911 20.9973 21.4035 23.8648 17.4775 23.993L17.2012 23.9979H6.78906C2.80244 23.9979 0.123588 21.2224 0.00390625 17.2011L0 16.9188V7.1239C9.69491e-06 3.04925 2.59494 0.178106 6.51367 0.0496862L6.78906 0.0448033H11.2012ZM16.251 1.07996C17.6951 -0.360018 20.0354 -0.359955 21.4795 1.07996L22.916 2.51453C24.3601 3.9564 24.3601 6.29491 22.916 7.73523L14.0557 16.5809C13.4093 17.2262 12.5323 17.5897 11.6182 17.5897H7.19824C6.70084 17.5897 6.30111 17.1799 6.31348 16.6835L6.42383 12.2304C6.44609 11.3484 6.80747 10.5088 7.43262 9.88465L16.251 1.07996ZM8.68359 11.1346C8.37959 11.4382 8.20418 11.8467 8.19336 12.2753L8.10352 15.8212L11.6182 15.8221C12.0069 15.822 12.3824 15.6872 12.6807 15.4432L12.8037 15.3319L19.6875 8.45789L15.5254 4.30262L8.68359 11.1346ZM20.2285 2.33094C19.4756 1.58007 18.2547 1.57971 17.502 2.32996L16.7764 3.05262L20.9395 7.20789L21.665 6.48523C22.417 5.73472 22.4166 4.51605 21.6641 3.76453L20.2285 2.33094Z" fill="#5801B7"/>
</svg>
