<svg width="22" height="26" viewBox="0 0 22 26" fill="none" xmlns="http://www.w3.org/2000/svg">
<path fill-rule="evenodd" clip-rule="evenodd" d="M10.2041 0.13181C10.7197 -0.0437254 11.2823 -0.0441476 11.7969 0.13181L20.3916 3.06638C21.3552 3.39417 22 4.27756 22 5.26951V13.8642C22 16.479 21.0277 18.998 19.2754 20.9599C18.4486 21.8869 17.3944 22.6595 16.1201 23.3291L11.4736 25.7676C11.1834 25.9199 10.8334 25.9206 10.543 25.7685L5.8877 23.3281C4.61001 22.6576 3.55618 21.8865 2.72949 20.9599C0.974393 18.9966 6.54526e-06 16.4757 0 13.8593V5.26951C3.71481e-05 4.27756 0.64492 3.39478 1.60742 3.06736L10.2041 0.13181ZM11.1484 1.92673C11.0545 1.89461 10.9503 1.89453 10.8555 1.92673L2.25684 4.86228C2.07932 4.92284 1.96094 5.08531 1.96094 5.26853V13.8584C1.96094 16.0149 2.76399 18.0923 4.21094 19.7109C4.86811 20.4475 5.73613 21.0828 6.81934 21.6513L11.0088 23.8476L15.1904 21.6533C16.1354 21.1568 16.9185 20.6069 17.54 19.9834L17.7969 19.7119C19.2412 18.0949 20.043 16.0186 20.043 13.8633V5.26853C20.043 5.08518 19.9239 4.9231 19.7451 4.86228L11.1484 1.92673ZM14.4766 9.37009C14.859 8.99891 15.4789 8.99885 15.8613 9.37009C16.2091 9.70795 16.2405 10.2368 15.9561 10.6093L15.8613 10.7168L10.7705 15.6631C10.4227 16.001 9.8786 16.0314 9.49512 15.7549L9.38477 15.6631L6.91406 13.2607C6.53166 12.889 6.53154 12.2866 6.91406 11.915C7.26193 11.5772 7.80604 11.5467 8.18945 11.8232L8.2998 11.915L10.0771 13.6445L14.4766 9.37009Z" fill="#5801B7"/>
</svg>
