<svg width="24" height="27" viewBox="0 0 24 27" fill="none" xmlns="http://www.w3.org/2000/svg">
<path fill-rule="evenodd" clip-rule="evenodd" d="M6.79358 26.4444C6.24882 26.4444 5.73183 26.4021 5.24526 26.3188L4.95701 26.2646C1.82202 25.6128 0 23.2116 0 19.557V6.88746C0 6.44583 0.0264444 6.02272 0.0793333 5.61812C0.540789 2.06796 2.98029 0 6.79358 0H17.0077C21.2336 0 23.7603 2.53867 23.8 6.78564V6.88746V19.557C23.8 23.8635 21.2666 26.4444 17.0077 26.4444H6.79358ZM6.79589 1.92773C3.54851 1.92773 1.90234 3.5977 1.90234 6.88871V19.5582C1.90234 22.8493 3.54851 24.5192 6.79589 24.5192H16.9982C20.2442 24.5192 21.8798 22.8493 21.8798 19.5582V6.88871C21.8798 3.5977 20.2442 1.92773 16.9982 1.92773H6.79589ZM17.5932 18.8206C17.5932 18.2917 17.1714 17.8633 16.6505 17.8633H7.11594C6.59499 17.8633 6.17188 18.2917 6.17188 18.8206C6.17188 19.3495 6.59499 19.7779 7.11594 19.7779H16.6505C17.1714 19.7779 17.5932 19.3495 17.5932 18.8206ZM16.6504 12.2556C17.014 12.2159 17.3696 12.3904 17.564 12.7038C17.7584 13.0198 17.7584 13.4191 17.564 13.7351C17.3696 14.0485 17.014 14.223 16.6504 14.1834H7.11581C6.63188 14.1278 6.26562 13.714 6.26562 13.2195C6.26562 12.725 6.63188 12.3098 7.11581 12.2556H16.6504ZM11.6039 7.63187C11.6039 7.13736 11.2377 6.72218 10.7538 6.66797H7.1269C6.64165 6.72218 6.27539 7.13736 6.27539 7.63187C6.27539 8.12506 6.64165 8.54024 7.1269 8.59445H10.7538C11.2377 8.54024 11.6039 8.12506 11.6039 7.63187Z" fill="#5801B7"/>
</svg>
