<svg width="25" height="25" viewBox="0 0 25 25" fill="none" xmlns="http://www.w3.org/2000/svg">
<path d="M15.6211 1.01562C16.1227 1.01563 16.5291 1.4209 16.5293 1.9209C16.5293 2.37939 16.1876 2.75839 15.7441 2.81836L15.6211 2.82715H6.81836C3.84508 2.82715 1.93223 4.78975 1.82227 7.85156L1.81738 8.13281V17.8926C1.81738 21.0351 3.61371 23.0658 6.54785 23.1826L6.81836 23.1875H17.2402C20.2158 23.1873 22.1255 21.2323 22.2354 18.1738L22.2412 17.8926V9.39258C22.2414 8.89259 22.6478 8.4873 23.1494 8.4873C23.6093 8.48738 23.9897 8.82851 24.0498 9.27051L24.0576 9.39258V17.8926C24.0576 21.9865 21.465 24.8626 17.5234 24.9941L17.2402 24.999H6.81836C2.7841 24.999 0.125345 22.2331 0.00390625 18.1836L0 17.8926V8.13281C6.05485e-05 4.037 2.59407 1.15247 6.53418 1.02051L6.81836 1.01562H15.6211ZM16.9072 9.4248C17.2144 9.02968 17.7851 8.95771 18.1816 9.26367C18.5422 9.54217 18.635 10.038 18.418 10.4229L18.3438 10.5342L14.7959 15.0996C14.5152 15.4606 14.0153 15.5516 13.6289 15.332L13.5166 15.2568L10.1025 12.583L7.03711 16.5557C6.75897 16.916 6.26176 17.01 5.875 16.7949L5.7627 16.7217C5.40122 16.4444 5.3068 15.949 5.52246 15.5635L5.59668 15.4512L9.22266 10.7539C9.50275 10.3913 10.0034 10.2988 10.3906 10.5186L10.5029 10.5938L13.9189 13.2695L16.9072 9.4248ZM21.7617 0C23.5493 0 24.9989 1.44457 24.999 3.22656C24.999 5.00864 23.5493 6.45312 21.7617 6.45312C19.9743 6.4529 18.5254 5.0085 18.5254 3.22656C18.5255 1.44471 19.9744 0.00022855 21.7617 0ZM21.7617 1.81055C20.9777 1.81055 20.342 2.44404 20.3418 3.22559C20.3418 4.00732 20.9776 4.6416 21.7617 4.6416C22.5458 4.64156 23.1816 4.00729 23.1816 3.22559C23.1814 2.44407 22.5457 1.81059 21.7617 1.81055Z" fill="#5801B7"/>
</svg>
