<svg width="26" height="26" viewBox="0 0 26 26" fill="none" xmlns="http://www.w3.org/2000/svg">
<path d="M20.4385 15.4268C23.2157 15.4269 25.4492 17.6613 25.4492 20.4385C25.4491 23.2156 23.2156 25.4491 20.4385 25.4492C17.6613 25.4492 15.4269 23.2157 15.4268 20.4385C15.4268 17.6612 17.6612 15.4268 20.4385 15.4268ZM20.4385 16.5879C18.3269 16.5879 16.5879 18.3269 16.5879 20.4385C16.588 22.55 18.3269 24.2881 20.4385 24.2881C22.5499 24.288 24.288 22.5499 24.2881 20.4385C24.2881 18.3269 22.55 16.588 20.4385 16.5879Z" fill="#5801B7" stroke="#5801B7" stroke-width="0.3"/>
<path d="M7.11621 22.7949C8.79999 23.7563 10.7466 24.3164 12.7998 24.3164C13.8958 24.3164 14.9657 24.1517 15.9824 23.877L16.0732 23.8525L16.1348 23.9229C16.3253 24.1406 16.5436 24.36 16.7666 24.583L16.9414 24.7568L16.7061 24.832C15.4704 25.2251 14.1496 25.4502 12.7998 25.4502C5.82807 25.4502 0.149414 19.7715 0.149414 12.7998C0.149415 5.82807 5.82807 0.149415 12.7998 0.149414C19.7715 0.149414 25.4502 5.82807 25.4502 12.7998C25.4502 14.1775 25.2251 15.4706 24.832 16.7061L24.751 16.96L24.5762 16.7598C24.3862 16.5426 24.1702 16.3277 23.9297 16.1406L23.8516 16.0791L23.877 15.9824C24.1517 14.9657 24.3164 13.8958 24.3164 12.7998C24.3164 6.4382 19.1614 1.2832 12.7998 1.2832C6.4382 1.2832 1.2832 6.4382 1.2832 12.7998C1.2832 16.5878 3.12645 19.9601 5.9541 22.0596C5.94061 20.745 5.93152 19.2103 6.30371 17.8135C6.67354 16.4258 7.42332 15.165 8.91699 14.3809C7.57302 13.243 6.76074 11.5754 6.76074 9.7998C6.76074 6.49474 9.4674 3.78906 12.7725 3.78906C16.0776 3.7893 18.783 6.49511 18.7832 9.82715C18.7832 11.5993 17.9983 13.2646 16.6582 14.4033C17.1383 14.6463 17.5511 14.9505 17.8779 15.2773L18.0322 15.4316L17.833 15.5205C17.5982 15.6249 17.3583 15.7832 17.1396 15.9473L17.0361 16.0254L16.9434 15.9336C16.5485 15.5388 16.0166 15.2436 15.3379 15.0264L15.3271 15.0225C15.1488 14.951 14.9949 14.8014 14.957 14.5742C14.9173 14.335 15.0422 14.1405 15.2227 14.0322L15.2236 14.0312C16.7347 13.1407 17.6777 11.5228 17.6777 9.7998C17.6777 7.10487 15.4947 4.92188 12.7998 4.92188C10.1061 4.92188 7.92211 7.13133 7.92188 9.82715C7.92188 11.4436 8.75125 12.9904 10.0977 13.8877L10.374 14.0586L10.377 14.0596V14.0605C10.5804 14.1828 10.6445 14.4139 10.6445 14.6055C10.6445 14.8454 10.4828 15.0354 10.2637 15.1084L10.2617 15.1094C8.65037 15.6196 7.85497 16.6877 7.46387 17.9756C7.0693 19.2752 7.08835 20.7923 7.11621 22.1855V22.7949Z" fill="#5801B7" stroke="#5801B7" stroke-width="0.3"/>
<path d="M21.8232 18.8154C22.0141 18.5864 22.3866 18.5473 22.6182 18.7402C22.8469 18.9309 22.8846 19.3016 22.6924 19.5332L22.6934 19.5342L20.4189 22.2783C20.3706 22.3427 20.3152 22.4026 20.2422 22.4443C20.1672 22.4871 20.0849 22.5059 19.9941 22.5059C19.838 22.5058 19.6963 22.4297 19.6055 22.3691L19.5938 22.3613L19.584 22.3516L18.1943 20.9902L18.1934 20.9893C17.9685 20.7641 17.9686 20.4195 18.1934 20.1943C18.4186 19.9691 18.764 19.9691 18.9893 20.1943L19.9268 21.1318L21.8223 18.8164L21.8232 18.8154Z" fill="#5801B7" stroke="#5801B7" stroke-width="0.3"/>
</svg>
