<svg width="12" height="7" viewBox="0 0 12 7" fill="none" xmlns="http://www.w3.org/2000/svg">
<path d="M0.137947 3.13306C-0.0458292 3.31684 -0.0458292 3.6148 0.137947 3.79858L3.13275 6.79338C3.31653 6.97716 3.61449 6.97716 3.79826 6.79338C3.98204 6.60961 3.98204 6.31165 3.79826 6.12787L1.13622 3.46582L3.79826 0.803771C3.98204 0.619995 3.98204 0.322035 3.79826 0.138259C3.61449 -0.0455174 3.31653 -0.0455174 3.13275 0.138259L0.137947 3.13306ZM11.3917 3.79858C11.5755 3.6148 11.5755 3.31684 11.3917 3.13306L8.39689 0.138259C8.21311 -0.0455174 7.91515 -0.0455174 7.73138 0.138259C7.5476 0.322035 7.5476 0.619995 7.73138 0.803771L10.3934 3.46582L7.73138 6.12787C7.5476 6.31165 7.5476 6.60961 7.73138 6.79338C7.91515 6.97716 8.21311 6.97716 8.39689 6.79338L11.3917 3.79858ZM0.470703 3.46582V3.93641H11.0589V3.46582V2.99523H0.470703V3.46582Z" fill="white"/>
</svg>
